<svg width="186" height="69" viewBox="0 0 186 69" fill="none" xmlns="http://www.w3.org/2000/svg"><path d="M47.191 26V.406h8.244c2.262 0 4.295.516 6.1 1.547 1.805 1.02 3.211 2.467 4.219 4.342 1.02 1.863 1.535 3.955 1.547 6.275v1.178c0 2.344-.498 4.447-1.494 6.31a10.854 10.854 0 01-4.184 4.36c-1.793 1.043-3.797 1.57-6.012 1.582h-8.42zm6.17-20.83v16.084h2.145c1.77 0 3.129-.627 4.078-1.881.95-1.266 1.424-3.14 1.424-5.625v-1.107c0-2.473-.475-4.336-1.424-5.59-.95-1.254-2.332-1.881-4.149-1.881h-2.074zm31.254 16.049H76.16L74.684 26h-6.592L77.478.406h5.801L92.736 26H86.11l-1.494-4.781zm-6.978-4.764h5.502l-2.76-8.877-2.742 8.877zM101.19 26h-6.152V.406h6.152V26zm10.459-4.746h10.741V26H105.48V.406h6.17v20.848zm17.789-9.738L134.15.406h6.662l-8.244 16.4V26h-6.257v-9.193l-8.227-16.4h6.627l4.728 11.109zM66.686 68H60.55l-9.07-15.926V68h-6.17V42.406h6.17l9.052 15.926V42.406h6.153V68zM86.46 57.154h-9.703v6.1h11.46V68h-17.63V42.406h17.666v4.764H76.758v5.396h9.703v4.588zm24.1 1.301l2.935-16.049h6.117L114.182 68h-6.399l-3.428-14.59L100.998 68h-6.38l-5.45-25.594h6.135l2.935 16.05 3.516-16.05h5.238l3.569 16.05zm24.662 2.742c0-.902-.323-1.605-.967-2.11-.633-.503-1.752-1.025-3.358-1.564-1.605-.539-2.918-1.06-3.937-1.564-3.316-1.629-4.975-3.867-4.975-6.715 0-1.418.41-2.666 1.231-3.744.832-1.09 2.004-1.934 3.515-2.531 1.512-.61 3.211-.914 5.098-.914 1.84 0 3.486.328 4.94.984 1.464.656 2.601 1.594 3.41 2.813.808 1.207 1.213 2.59 1.213 4.148h-6.153c0-1.043-.322-1.852-.967-2.426-.632-.574-1.494-.861-2.584-.861-1.101 0-1.974.246-2.619.738-.632.48-.949 1.096-.949 1.846 0 .656.352 1.254 1.055 1.793.703.527 1.939 1.078 3.709 1.652 1.769.563 3.222 1.172 4.359 1.828 2.766 1.594 4.149 3.791 4.149 6.592 0 2.238-.844 3.996-2.532 5.274-1.687 1.277-4.002 1.916-6.943 1.916-2.074 0-3.955-.37-5.643-1.108-1.675-.75-2.941-1.77-3.796-3.058-.844-1.301-1.266-2.795-1.266-4.483h6.187c0 1.371.352 2.385 1.055 3.041.715.645 1.869.967 3.463.967 1.02 0 1.822-.217 2.408-.65.598-.446.897-1.067.897-1.864z" fill="#031841"/></svg>