<svg width="320" height="35" viewBox="0 0 320 35" fill="none" xmlns="http://www.w3.org/2000/svg"><path d="M42.642 23.023c-.58.695-1.4 1.236-2.46 1.622-1.06.38-2.235.57-3.524.57-1.353 0-2.542-.294-3.566-.881-1.017-.594-1.805-1.454-2.363-2.578-.552-1.125-.835-2.446-.85-3.964v-1.064c0-1.56.262-2.91.785-4.05.53-1.145 1.29-2.019 2.277-2.62.996-.61 2.16-.913 3.492-.913 1.854 0 3.305.444 4.35 1.332 1.046.88 1.665 2.166 1.859 3.856h-3.137c-.143-.895-.462-1.55-.956-1.966-.487-.415-1.16-.623-2.02-.623-1.095 0-1.93.412-2.503 1.236-.573.823-.863 2.048-.87 3.673v1c0 1.64.312 2.878.935 3.716.623.838 1.536 1.257 2.74 1.257 1.21 0 2.072-.258 2.588-.774v-2.696h-2.933v-2.374h6.156v6.241zm7.766 2.192c-1.704 0-3.093-.523-4.168-1.569-1.067-1.045-1.6-2.438-1.6-4.178v-.301c0-1.167.225-2.21.676-3.126.452-.924 1.089-1.633 1.912-2.127.831-.501 1.777-.752 2.837-.752 1.59 0 2.839.501 3.748 1.504.917 1.003 1.375 2.424 1.375 4.265v1.267h-7.4c.1.76.4 1.368.902 1.826.508.459 1.149.688 1.922.688 1.196 0 2.13-.433 2.804-1.3l1.525 1.708c-.465.659-1.095 1.175-1.89 1.547-.795.365-1.676.548-2.643.548zm-.354-9.54c-.616 0-1.117.208-1.504.624-.38.415-.623 1.01-.73 1.783h4.318v-.247c-.015-.688-.2-1.218-.559-1.59-.358-.38-.866-.57-1.525-.57zm10.624-5.155v2.857h1.987v2.277h-1.987v5.801c0 .43.082.738.247.924.165.186.48.28.945.28.344 0 .648-.026.913-.076v2.353a6.39 6.39 0 01-1.88.279c-2.177 0-3.287-1.1-3.33-3.298v-6.263h-1.697v-2.277h1.697V10.52h3.105zm12.053 2.857l.096 1.343c.83-1.039 1.945-1.558 3.341-1.558 1.232 0 2.148.362 2.75 1.085.601.723.91 1.805.924 3.244V25h-3.105v-7.434c0-.658-.143-1.135-.43-1.428-.286-.301-.762-.452-1.428-.452-.874 0-1.53.373-1.966 1.118V25H69.81V13.377h2.922zm14.824 11.838c-1.705 0-3.094-.523-4.168-1.569-1.067-1.045-1.6-2.438-1.6-4.178v-.301c0-1.167.225-2.21.676-3.126.451-.924 1.088-1.633 1.912-2.127.83-.501 1.776-.752 2.836-.752 1.59 0 2.84.501 3.749 1.504.917 1.003 1.375 2.424 1.375 4.265v1.267h-7.401c.1.76.4 1.368.902 1.826.508.459 1.15.688 1.923.688 1.196 0 2.13-.433 2.803-1.3l1.526 1.708c-.466.659-1.096 1.175-1.89 1.547-.796.365-1.676.548-2.643.548zm-.355-9.54c-.616 0-1.117.208-1.504.624-.38.415-.623 1.01-.73 1.783h4.318v-.247c-.014-.688-.2-1.218-.558-1.59-.358-.38-.867-.57-1.526-.57zM100.843 25a3.469 3.469 0 01-.312-1.042c-.752.838-1.73 1.257-2.932 1.257-1.139 0-2.084-.33-2.836-.988-.745-.66-1.118-1.49-1.118-2.493 0-1.231.455-2.177 1.365-2.836.916-.658 2.238-.991 3.964-.999h1.428v-.666c0-.537-.139-.966-.419-1.289-.272-.322-.705-.483-1.3-.483-.522 0-.934.125-1.235.376-.293.25-.44.594-.44 1.031h-3.105c0-.673.208-1.296.623-1.869.416-.573 1.003-1.02 1.762-1.343.76-.33 1.611-.494 2.557-.494 1.432 0 2.567.362 3.405 1.085.845.716 1.268 1.726 1.268 3.03v5.037c.007 1.103.161 1.938.461 2.503V25h-3.136zm-2.568-2.16c.459 0 .881-.1 1.268-.3a2.04 2.04 0 00.859-.827v-1.998h-1.16c-1.554 0-2.381.537-2.481 1.611l-.011.183c0 .386.136.705.408.956.272.25.645.376 1.117.376zm14.159-6.552a8.442 8.442 0 00-1.118-.086c-1.174 0-1.944.398-2.309 1.192V25h-3.105V13.377h2.933l.086 1.386c.623-1.067 1.486-1.6 2.589-1.6.344 0 .666.046.967.139l-.043 2.986zm11.977 3.008c0 1.862-.397 3.316-1.192 4.361-.795 1.039-1.905 1.558-3.33 1.558-1.261 0-2.267-.484-3.019-1.45L116.73 25h-2.792V8.5h3.104v5.919c.716-.838 1.658-1.257 2.825-1.257 1.418 0 2.528.523 3.33 1.568.81 1.039 1.214 2.503 1.214 4.394v.172zm-3.104-.226c0-1.174-.187-2.03-.559-2.567-.372-.544-.927-.816-1.665-.816-.988 0-1.669.404-2.041 1.213v4.587c.38.817 1.067 1.225 2.062 1.225 1.003 0 1.662-.494 1.977-1.482.15-.473.226-1.193.226-2.16zm9.238 1.536l2.148-7.229h3.33l-4.672 13.428-.258.612c-.695 1.518-1.841 2.277-3.438 2.277-.451 0-.909-.068-1.375-.204v-2.352l.473.01c.587 0 1.024-.09 1.31-.268.294-.18.523-.476.688-.892l.365-.956-4.071-11.655h3.341l2.159 7.23zm15.039-7.229l.097 1.343c.83-1.039 1.944-1.558 3.34-1.558 1.232 0 2.149.362 2.75 1.085.602.723.91 1.805.924 3.244V25h-3.104v-7.434c0-.658-.143-1.135-.43-1.428-.286-.301-.763-.452-1.429-.452-.873 0-1.529.373-1.965 1.118V25h-3.105V13.377h2.922zm14.824 11.838c-1.704 0-3.094-.523-4.168-1.569-1.067-1.045-1.6-2.438-1.6-4.178v-.301c0-1.167.225-2.21.676-3.126.452-.924 1.089-1.633 1.913-2.127.83-.501 1.776-.752 2.835-.752 1.59 0 2.84.501 3.749 1.504.917 1.003 1.375 2.424 1.375 4.265v1.267h-7.401c.1.76.401 1.368.902 1.826.509.459 1.15.688 1.923.688 1.196 0 2.131-.433 2.804-1.3l1.525 1.708c-.465.659-1.095 1.175-1.89 1.547-.795.365-1.676.548-2.643.548zm-.354-9.54c-.616 0-1.117.208-1.504.624-.38.415-.623 1.01-.731 1.783h4.319v-.247c-.015-.688-.201-1.218-.559-1.59-.358-.38-.866-.57-1.525-.57zm17.015 5.103l1.526-7.401h2.997L178.627 25h-2.6l-2.202-7.315L171.623 25h-2.589l-2.965-11.623h2.997l1.515 7.39 2.127-7.39h2.245l2.116 7.401zm12.365 1.01c0-.38-.19-.677-.57-.892-.372-.222-.974-.419-1.804-.59-2.765-.58-4.147-1.755-4.147-3.524 0-1.031.426-1.89 1.278-2.578.86-.695 1.981-1.042 3.363-1.042 1.475 0 2.653.347 3.534 1.042.888.695 1.332 1.597 1.332 2.707h-3.105c0-.444-.143-.81-.429-1.096-.287-.293-.734-.44-1.343-.44-.523 0-.927.118-1.214.354a1.12 1.12 0 00-.43.903c0 .344.162.623.484.838.329.207.881.39 1.654.548.774.15 1.425.322 1.955.515 1.64.602 2.46 1.644 2.46 3.126 0 1.06-.455 1.92-1.364 2.578-.91.652-2.084.978-3.524.978-.974 0-1.84-.172-2.599-.516-.752-.35-1.343-.827-1.773-1.429-.429-.608-.644-1.264-.644-1.965h2.943c.029.551.233.974.613 1.267.379.294.888.44 1.525.44.594 0 1.042-.11 1.343-.332.308-.23.462-.527.462-.892zm10.022-2.707c0-1.153.222-2.18.666-3.083.444-.902 1.081-1.6 1.912-2.095.838-.494 1.808-.74 2.911-.74 1.569 0 2.847.479 3.835 1.439.996.96 1.551 2.263 1.665 3.91l.022.795c0 1.783-.498 3.215-1.493 4.297-.996 1.074-2.331 1.61-4.007 1.61-1.676 0-3.015-.536-4.018-1.61-.995-1.075-1.493-2.536-1.493-4.383v-.14zm3.105.226c0 1.103.207 1.948.623 2.535.415.58 1.009.87 1.783.87.752 0 1.339-.287 1.762-.86.422-.58.633-1.503.633-2.77 0-1.082-.211-1.92-.633-2.515-.423-.594-1.017-.891-1.784-.891-.759 0-1.346.297-1.761.891-.416.588-.623 1.5-.623 2.74zm12.675-5.93l.097 1.343c.831-1.039 1.944-1.558 3.341-1.558 1.232 0 2.148.362 2.75 1.085.601.723.909 1.805.924 3.244V25h-3.105v-7.434c0-.658-.143-1.135-.43-1.428-.286-.301-.762-.452-1.428-.452-.874 0-1.529.373-1.966 1.118V25h-3.105V13.377h2.922zm18.67-2.857v2.857h1.988v2.277h-1.988v5.801c0 .43.083.738.247.924.165.186.48.28.946.28.343 0 .648-.026.913-.076v2.353a6.396 6.396 0 01-1.88.279c-2.177 0-3.287-1.1-3.33-3.298v-6.263h-1.698v-2.277h1.698V10.52h3.104zm6.746 4.125c.824-.989 1.859-1.483 3.105-1.483 2.521 0 3.799 1.465 3.835 4.394V25h-3.105v-7.358c0-.666-.143-1.157-.429-1.472-.287-.322-.763-.484-1.429-.484-.91 0-1.568.351-1.977 1.053V25h-3.104V8.5h3.104v6.145zm14.631 10.57c-1.704 0-3.094-.523-4.168-1.569-1.067-1.045-1.6-2.438-1.6-4.178v-.301c0-1.167.225-2.21.676-3.126.452-.924 1.089-1.633 1.913-2.127.83-.501 1.776-.752 2.835-.752 1.59 0 2.84.501 3.749 1.504.917 1.003 1.375 2.424 1.375 4.265v1.267h-7.401c.1.76.401 1.368.902 1.826.509.459 1.15.688 1.923.688 1.196 0 2.131-.433 2.804-1.3l1.525 1.708c-.465.659-1.095 1.175-1.89 1.547-.795.365-1.676.548-2.643.548zm-.354-9.54c-.616 0-1.117.208-1.504.624-.38.415-.623 1.01-.731 1.783h4.319v-.247c-.015-.688-.201-1.218-.559-1.59-.358-.38-.866-.57-1.525-.57zm11.934 3.427c0-1.783.423-3.219 1.268-4.307.852-1.089 1.998-1.633 3.437-1.633 1.275 0 2.267.437 2.976 1.31l.129-1.095h2.814v11.236c0 1.017-.232 1.902-.698 2.654-.458.752-1.106 1.325-1.944 1.718-.838.394-1.819.591-2.944.591a6.314 6.314 0 01-2.492-.515c-.809-.337-1.421-.774-1.837-1.311l1.375-1.89c.774.866 1.712 1.3 2.815 1.3.823 0 1.464-.223 1.923-.667.458-.437.687-1.06.687-1.869v-.623c-.716.81-1.658 1.214-2.825 1.214-1.397 0-2.528-.544-3.395-1.633-.859-1.096-1.289-2.546-1.289-4.35v-.13zm3.105.226c0 1.053.211 1.88.634 2.482.422.594 1.002.891 1.74.891.945 0 1.622-.354 2.03-1.063V16.75c-.415-.709-1.085-1.063-2.009-1.063-.745 0-1.332.304-1.761.913-.423.608-.634 1.518-.634 2.728zm9.431-.247c0-1.153.222-2.18.666-3.083a4.886 4.886 0 011.913-2.095c.837-.494 1.808-.74 2.911-.74 1.568 0 2.846.479 3.835 1.439.995.96 1.55 2.263 1.665 3.91l.021.795c0 1.783-.498 3.215-1.493 4.297-.995 1.074-2.331 1.61-4.007 1.61-1.676 0-3.015-.536-4.017-1.61-.996-1.075-1.494-2.536-1.494-4.383v-.14zm3.105.226c0 1.103.208 1.948.623 2.535.415.58 1.01.87 1.783.87.752 0 1.339-.287 1.762-.86.422-.58.634-1.503.634-2.77 0-1.082-.212-1.92-.634-2.515-.423-.594-1.017-.891-1.783-.891-.759 0-1.347.297-1.762.891-.415.588-.623 1.5-.623 2.74z" fill="#000"/><path d="M42.642 23.023l.767.641.233-.278v-.363h-1zm-2.46 1.622l.337.942.005-.002-.342-.94zm-7.09-.311l-.505.863.007.005.498-.868zm-2.363-2.578l-.898.44.002.005.896-.445zm-.85-3.964h-1v.01l1-.01zm.785-5.113l-.908-.42v.002l.908.418zm2.277-2.621l.52.854.002-.001-.522-.853zm7.842.419l-.647.762.003.002.644-.764zm1.859 3.856v1h1.12l-.127-1.114-.993.114zm-3.137 0l-.988.158.135.842h.853v-1zm-.956-1.966l-.65.761.006.005.644-.766zm-4.523.612l-.82-.57.82.57zm-.87 3.674l-1-.004v.004h1zm6.263 5.2l.707.707.293-.293v-.415h-1zm0-2.697h1v-1h-1v1zm-2.933 0h-1v1h1v-1zm0-2.374v-1h-1v1h1zm6.156 0h1v-1h-1v1zm-.768 5.6c-.443.53-1.1.983-2.035 1.324l.685 1.879c1.185-.432 2.168-1.061 2.885-1.92l-1.535-1.282zm-2.03 1.322c-.937.336-1.995.51-3.186.51v2c1.388 0 2.678-.204 3.86-.627l-.674-1.883zm-3.186.51c-1.205 0-2.217-.26-3.069-.747l-.995 1.735c1.197.686 2.562 1.013 4.064 1.013v-2zm-3.062-.743c-.837-.49-1.494-1.198-1.972-2.16l-1.791.89c.64 1.287 1.558 2.297 2.754 2.996l1.01-1.726zm-1.97-2.155c-.473-.965-.733-2.133-.746-3.533l-2 .018c.015 1.637.32 3.111.95 4.395l1.796-.88zm-.746-3.524v-1.064h-2v1.064h2zm0-1.064c0-1.451.243-2.652.693-3.632l-1.818-.835c-.595 1.298-.875 2.797-.875 4.468h2zm.692-3.63c.454-.982 1.086-1.697 1.89-2.186l-1.04-1.709c-1.174.715-2.06 1.747-2.666 3.056l1.816.84zm1.891-2.187c.817-.5 1.795-.766 2.97-.766v-2c-1.49 0-2.84.342-4.013 1.06l1.043 1.706zm2.97-.766c1.701 0 2.893.406 3.703 1.094l1.294-1.525c-1.28-1.088-2.99-1.57-4.997-1.57v2zm3.706 1.096c.805.679 1.337 1.704 1.51 3.206l1.986-.228c-.215-1.878-.922-3.424-2.207-4.507l-1.29 1.53zm2.503 2.092h-3.137v2h3.137v-2zm-2.15.842c-.166-1.037-.56-1.95-1.3-2.573l-1.287 1.53c.248.209.492.606.612 1.359l1.975-.316zm-1.294-2.569c-.722-.615-1.654-.862-2.669-.862v2c.704 0 1.119.169 1.37.384l1.299-1.522zm-2.669-.862c-1.387 0-2.544.544-3.324 1.664l1.642 1.143c.367-.527.879-.807 1.682-.807v-2zm-3.324 1.664c-.74 1.065-1.041 2.527-1.049 4.24l2 .01c.007-1.538.286-2.525.691-3.107l-1.642-1.143zm-1.049 4.245v1h2v-1h-2zm0 1c0 1.74.326 3.229 1.132 4.313l1.605-1.194c-.44-.591-.737-1.58-.737-3.12h-2zm1.132 4.313c.843 1.133 2.078 1.66 3.542 1.66v-2c-.942 0-1.533-.31-1.937-.854l-1.605 1.194zm3.542 1.66c1.31 0 2.502-.272 3.296-1.066l-1.414-1.415c-.237.237-.771.481-1.882.481v2zm3.589-1.774v-2.696h-2v2.697h2zm-1-3.696h-2.933v2h2.933v-2zm-1.933 1v-2.374h-2v2.374h2zm-1-1.374h6.156v-2h-6.156v2zm5.156-1v6.241h2v-6.24h-2zm4.598 6.864l-.7.715.003.002.697-.716zm-.924-7.605l.898.442.001-.003-.899-.439zm1.912-2.127l.515.858.002-.002-.517-.856zm6.585.752l-.74.672.002.003.738-.675zm1.375 5.532v1h1v-1h-1zm-7.4 0v-1h-1.142l.15 1.131.991-.13zm.902 1.826l-.675.738.005.005.67-.743zm4.726-.612l.746-.666-.8-.895-.736.948.79.613zm1.525 1.708l.817.577.46-.65-.53-.593-.747.666zm-1.89 1.547l.417.909.007-.003-.424-.906zm-4.501-8.368l-.732-.682-.006.007.738.675zm-.73 1.783l-.991-.137-.158 1.137h1.148v-1zm4.318 0v1h1v-1h-1zm0-.247h1v-.02l-1 .02zm-.559-1.59l-.727.686.006.007.721-.693zm-1.17 7.97c-1.483 0-2.61-.447-3.471-1.285l-1.395 1.433c1.287 1.253 2.939 1.852 4.865 1.852v-2zm-3.469-1.283c-.843-.826-1.3-1.945-1.3-3.464h-2c0 1.96.61 3.628 1.9 4.893l1.4-1.429zm-1.3-3.464v-.301h-2v.3h2zm0-.301c0-1.036.2-1.924.574-2.684l-1.795-.884c-.528 1.073-.78 2.27-.78 3.568h2zm.575-2.687c.372-.763.882-1.32 1.528-1.708l-1.029-1.715c-1.001.6-1.766 1.46-2.296 2.545l1.797.878zm1.53-1.71c.66-.398 1.424-.608 2.32-.608v-2c-1.225 0-2.352.292-3.353.896l1.033 1.712zm2.32-.608c1.361 0 2.321.42 3.008 1.176l1.481-1.344c-1.132-1.248-2.672-1.832-4.49-1.832v2zm3.01 1.179c.697.761 1.113 1.91 1.113 3.59h2c0-2-.5-3.696-1.637-4.94l-1.476 1.35zm1.113 3.59v1.267h2v-1.267h-2zm1 .267h-7.4v2h7.4v-2zm-8.392 1.131c.127.961.522 1.796 1.219 2.433l1.35-1.476c-.306-.279-.513-.661-.587-1.219l-1.982.262zm1.224 2.438c.716.646 1.606.945 2.592.945v-2c-.56 0-.952-.16-1.253-.43l-1.34 1.485zm2.592.945c1.473 0 2.712-.552 3.594-1.686l-1.58-1.227c-.465.598-1.095.913-2.014.913v2zm2.058-1.634l1.526 1.708 1.491-1.332-1.525-1.708-1.492 1.332zm1.455.465c-.357.505-.846.913-1.498 1.218l.848 1.812c.938-.44 1.709-1.063 2.283-1.876l-1.633-1.154zm-1.492 1.215c-.65.3-1.387.457-2.225.457v2c1.096 0 2.121-.208 3.06-.64l-.835-1.817zm-2.58-9.082c-.866 0-1.642.304-2.235.941l1.464 1.363c.18-.193.407-.304.772-.304v-2zm-2.241.948c-.56.613-.858 1.422-.983 2.32l1.98.276c.09-.649.28-1.028.479-1.247l-1.476-1.349zm.007 3.458h4.319v-2h-4.319v2zm5.319-1v-.247h-2v.247h2zm0-.268c-.018-.854-.255-1.655-.838-2.262l-1.442 1.386c.133.138.27.396.28.918l2-.042zm-.831-2.255c-.595-.63-1.396-.883-2.253-.883v2c.46 0 .675.126.798.255l1.455-1.372zm8.37-5.04h1v-1h-1v1zm0 2.858h-1v1h1v-1zm1.988 0h1v-1h-1v1zm0 2.277v1h1v-1h-1zm-1.987 0v-1h-1v1h1zm.247 6.725l.749-.663-.75.663zm1.858.204h1v-1.207l-1.186.224.186.983zm0 2.353l.293.956.707-.217v-.74h-1zm-5.21-3.019h-1v.02l1-.02zm0-6.263h1v-1h-1v1zm-1.697 0h-1v1h1v-1zm0-2.277v-1h-1v1h1zm1.697 0v1h1v-1h-1zm0-2.857v-1h-1v1h1zm2.105 0v2.857h2V10.52h-2zm1 3.857h1.987v-2h-1.987v2zm.987-1v2.277h2v-2.277h-2zm1 1.277h-1.987v2h1.987v-2zm-2.987 1v5.801h2v-5.8h-2zm0 5.801c0 .511.089 1.124.498 1.587l1.498-1.326c.045.051.044.08.032.034a1.198 1.198 0 01-.028-.295h-2zm.498 1.587c.466.526 1.17.616 1.694.616v-2c-.173 0-.266-.018-.302-.029-.034-.01.03.001.106.087l-1.498 1.325zm1.694.616c.39 0 .759-.028 1.1-.092l-.373-1.966c-.19.036-.43.058-.727.058v2zm-.087-1.075v2.353h2v-2.353h-2zm.708 1.396a5.392 5.392 0 01-1.588.236v2a7.39 7.39 0 002.173-.323l-.585-1.913zm-1.588.236c-.93 0-1.457-.234-1.761-.535-.306-.303-.55-.837-.569-1.782l-2 .038c.025 1.253.357 2.369 1.161 3.165.806.798 1.922 1.114 3.17 1.114v-2zm-2.33-2.298v-6.263h-2v6.263h2zm-1-7.263h-1.697v2h1.697v-2zm-.697 1v-2.277h-2v2.277h2zm-1-1.277h1.697v-2h-1.697v2zm2.697-1V10.52h-2v2.857h2zm-1-1.857h3.105v-2h-3.105v2zm15.158 1.857l.997-.072-.067-.928h-.93v1zm.096 1.343l-.997.071.183 2.547 1.595-1.994-.78-.624zm6.091-.473l.769-.64-.769.64zm.924 3.244h1v-.01l-1 .01zm0 7.509v1h1v-1h-1zm-3.105 0h-1v1h1v-1zm-.43-8.862l-.724.69.009.008.716-.698zm-3.394.666l-.862-.506-.138.234v.272h1zm0 8.196v1h1v-1h-1zm-3.104 0h-1v1h1v-1zm0-11.623v-1h-1v1h1zm1.924.072l.097 1.342 1.995-.143-.097-1.343-1.995.144zm1.875 1.895c.63-.787 1.45-1.182 2.56-1.182v-2c-1.683 0-3.09.644-4.122 1.933l1.562 1.25zm2.56-1.182c1.033 0 1.625.296 1.981.724l1.538-1.278c-.847-1.018-2.089-1.446-3.519-1.446v2zm1.981.724c.394.474.68 1.29.693 2.615l2-.02c-.016-1.553-.346-2.9-1.155-3.873l-1.538 1.278zm.693 2.605V25h2v-7.509h-2zm1 6.509h-3.105v2h3.105v-2zm-2.105 1v-7.434h-2V25h2zm0-7.434c0-.768-.161-1.56-.714-2.127l-1.431 1.397c.02.021.145.181.145.73h2zm-.705-2.118c-.563-.59-1.373-.761-2.153-.761v2c.552 0 .694.13.704.14l1.449-1.379zm-2.153-.761c-1.223 0-2.21.556-2.829 1.61l1.726 1.013c.254-.435.579-.623 1.103-.623v-2zm-2.966 2.117V25h2v-8.196h-2zm1 7.196H69.81v2h3.104v-2zm-2.104 1V13.377h-2V25h2zm-1-10.623h2.922v-2h-2.922v2zm13.578 9.27l-.7.714.002.002.698-.716zm-.924-7.606l.897.442.002-.003-.9-.439zm1.912-2.127l.514.858.003-.002-.517-.856zm6.585.752l-.74.672.002.003.738-.675zm1.375 5.532v1h1v-1h-1zm-7.401 0v-1h-1.141l.15 1.131.99-.13zm.902 1.826l-.675.738.005.005.67-.743zm4.727-.612l.745-.666-.799-.895-.736.948.79.613zm1.525 1.708l.817.577.459-.65-.53-.593-.746.666zm-1.89 1.547l.417.909.007-.003-.425-.906zm-4.502-8.368l-.732-.682-.006.007.738.675zm-.73 1.783l-.99-.137-.159 1.137h1.149v-1zm4.318 0v1h1v-1h-1zm0-.247h1v-.02l-1 .02zm-.558-1.59l-.728.686.007.007.72-.693zm-1.171 7.97c-1.483 0-2.61-.447-3.47-1.285l-1.396 1.433c1.287 1.253 2.94 1.852 4.866 1.852v-2zm-3.468-1.283c-.844-.826-1.3-1.945-1.3-3.464h-2c0 1.96.609 3.628 1.9 4.893l1.4-1.429zm-1.3-3.464v-.301h-2v.3h2zm0-.301c0-1.036.199-1.924.573-2.684l-1.794-.884c-.528 1.073-.78 2.27-.78 3.568h2zm.575-2.687c.372-.763.882-1.32 1.528-1.708l-1.03-1.715c-1 .6-1.766 1.46-2.296 2.545l1.798.878zm1.53-1.71c.66-.398 1.424-.608 2.319-.608v-2c-1.225 0-2.352.292-3.353.896l1.034 1.712zm2.319-.608c1.362 0 2.322.42 3.008 1.176l1.482-1.344c-1.133-1.248-2.672-1.832-4.49-1.832v2zm3.01 1.179c.697.761 1.114 1.91 1.114 3.59h2c0-2-.5-3.696-1.637-4.94l-1.476 1.35zm1.114 3.59v1.267h2v-1.267h-2zm1 .267h-7.401v2h7.401v-2zm-8.393 1.131c.127.961.522 1.796 1.22 2.433l1.349-1.476c-.306-.279-.512-.661-.586-1.219l-1.983.262zm1.224 2.438c.717.646 1.606.945 2.593.945v-2c-.56 0-.953-.16-1.254-.43l-1.339 1.485zm2.593.945c1.473 0 2.712-.552 3.593-1.686l-1.58-1.227c-.464.598-1.094.913-2.013.913v2zm2.058-1.634l1.525 1.708 1.492-1.332-1.526-1.708-1.491 1.332zm1.454.465c-.356.505-.846.913-1.498 1.218l.849 1.812c.937-.44 1.708-1.063 2.283-1.876l-1.634-1.154zm-1.491 1.215c-.651.3-1.387.457-2.225.457v2c1.095 0 2.12-.208 3.06-.64l-.835-1.817zm-2.58-9.082c-.867 0-1.642.304-2.236.941l1.464 1.363c.18-.193.407-.304.772-.304v-2zm-2.242.948c-.56.613-.858 1.422-.983 2.32l1.981.276c.09-.649.279-1.028.478-1.247l-1.476-1.349zm.008 3.458h4.318v-2h-4.318v2zm5.318-1v-.247h-2v.247h2zm0-.268c-.018-.854-.254-1.655-.838-2.262l-1.441 1.386c.133.138.269.396.28.918l1.999-.042zm-.831-2.255c-.594-.63-1.395-.883-2.253-.883v2c.46 0 .676.126.798.255l1.455-1.372zM100.843 25l-.89.456.279.544h.611v-1zm-.312-1.042l.988-.153-.323-2.085-1.409 1.57.744.668zm-5.768.269l-.663.749.004.003.659-.752zm.247-5.329l-.584-.812-.003.003.587.81zm3.964-.999v-1h-.005l.005 1zm1.428 0v1h1v-1h-1zm-.419-1.955l-.764.646.009.01.755-.656zm-2.535-.107l-.64-.768-.009.007.65.76zm-.44 1.031v1h1v-1h-1zm-3.105 0h-1v1h1v-1zm2.385-3.212l.39.92.008-.002-.398-.918zm5.962.591l-.653.757.006.006.647-.763zm1.268 8.067h-1v.007l1-.007zm.461 2.503h1v-.249l-.117-.22-.883.47zm0 .183v1h1v-1h-1zm-4.436-2.46l.46.888.007-.004.006-.003-.473-.881zm.859-.827l.88.476.12-.223v-.253h-1zm0-1.998h1v-1h-1v1zm-3.641 1.611l-.996-.093-.002.017v.017l.998.06zm-.011.183l-.998-.059-.002.03v.029h1zm.408.956l.678-.736-.678.736zm4.575 2.079c-.082-.159-.16-.396-.214-.74l-1.976.307c.076.488.205.945.41 1.345l1.78-.912zm-1.946-1.254c-.548.61-1.247.925-2.188.925v2c1.465 0 2.721-.524 3.676-1.59l-1.488-1.335zm-2.188.925c-.933 0-1.633-.264-2.177-.74l-1.318 1.504c.96.84 2.15 1.236 3.495 1.236v-2zm-2.174-.737c-.528-.468-.78-1.025-.78-1.744h-2c0 1.287.494 2.391 1.455 3.242l1.325-1.498zm-.78-1.744c0-.947.33-1.575.951-2.026l-1.173-1.62c-1.197.868-1.778 2.13-1.778 3.646h2zm.948-2.024c.68-.488 1.764-.804 3.385-.81l-.008-2c-1.831.007-3.39.357-4.544 1.186l1.167 1.625zm3.38-.81h1.429v-2h-1.428v2zm2.429-1v-.667h-2v.666h2zm0-.667c0-.713-.188-1.396-.663-1.944l-1.511 1.31c.084.097.174.273.174.634h2zm-.655-1.934c-.53-.628-1.3-.838-2.063-.838v2c.425 0 .522.112.535.129l1.528-1.29zm-2.063-.838c-.678 0-1.343.163-1.876.608l1.28 1.536c.069-.057.228-.144.596-.144v-2zm-1.885.615c-.547.467-.791 1.106-.791 1.792h2c0-.187.05-.236.09-.27l-1.299-1.522zm.209.792h-3.105v2h3.105v-2zm-2.105 1c0-.451.135-.87.433-1.282l-1.62-1.174a4.117 4.117 0 00-.813 2.456h2zm.433-1.282c.292-.403.723-.746 1.343-1.01l-.782-1.84c-.898.381-1.642.933-2.18 1.676l1.619 1.174zm1.35-1.012c.617-.268 1.331-.412 2.159-.412v-2c-1.063 0-2.054.186-2.955.577l.796 1.835zm2.159-.412c1.264 0 2.143.317 2.752.842l1.306-1.514c-1.067-.921-2.458-1.328-4.058-1.328v2zm2.758.848c.581.492.915 1.2.915 2.266h2c0-1.54-.512-2.851-1.621-3.792l-1.294 1.526zm.915 2.266v5.038h2v-5.038h-2zm0 5.045c.007 1.163.166 2.19.579 2.966l1.765-.939c-.188-.355-.338-.998-.344-2.04l-2 .013zm.461 2.496V25h2v-.183h-2zm1-.817h-3.136v2h3.136v-2zm-5.704-.16a3.71 3.71 0 001.728-.412l-.92-1.776c-.237.123-.5.189-.808.189v2zm1.741-.419a3.045 3.045 0 001.266-1.232l-1.759-.952c-.082.151-.217.295-.453.422l.946 1.762zm1.386-1.708v-1.998h-2v1.998h2zm-1-2.998h-1.16v2h1.16v-2zm-1.16 0c-.868 0-1.686.146-2.33.564-.697.452-1.071 1.145-1.147 1.954l1.991.186c.025-.265.114-.378.245-.463.183-.119.555-.241 1.241-.241v-2zm-3.48 2.552l-.01.183 1.996.117.011-.182-1.996-.118zm-.012.242c0 .652.243 1.242.73 1.691l1.356-1.47c-.057-.053-.086-.1-.086-.221h-2zm.73 1.691c.504.464 1.144.64 1.795.64v-2c-.293 0-.399-.073-.44-.11l-1.354 1.47zm15.954-6.912l-.135.991 1.118.152.016-1.129-.999-.014zm-3.427 1.107l-.909-.418-.091.199v.219h1zm0 7.605v1h1v-1h-1zm-3.105 0h-1v1h1v-1zm0-11.623v-1h-1v1h1zm2.933 0l.998-.062-.058-.938h-.94v1zm.086 1.386l-.998.062.203 3.282 1.658-2.84-.863-.504zm3.556-1.461l.999.014.011-.748-.715-.221-.295.955zm.091 1.995a9.417 9.417 0 00-1.252-.095v2c.266 0 .592.024.983.077l.269-1.982zm-1.252-.095c-1.406 0-2.632.5-3.218 1.775l1.818.835c.144-.315.458-.61 1.4-.61v-2zm-3.309 2.193V25h2v-7.605h-2zm1 6.605h-3.105v2h3.105v-2zm-2.105 1V13.377h-2V25h2zm-1-10.623h2.933v-2h-2.933v2zm1.935-.938l.086 1.386 1.996-.124-.086-1.386-1.996.124zm1.947 1.828c.47-.805 1.027-1.105 1.726-1.105v-2c-1.507 0-2.676.767-3.453 2.096l1.727 1.009zm1.726-1.105c.252 0 .474.034.671.095l.591-1.91a4.246 4.246 0 00-1.262-.185v2zm-.033-.875l-.043 2.987 1.999.028.043-2.986-1.999-.029zm11.742 10.37l.794.608.002-.003-.796-.605zm-6.349.108l.789-.614-1.507-1.938-.276 2.44.994.112zM116.73 25v1h.894l.1-.888-.994-.112zm-2.792 0h-1v1h1v-1zm0-16.5v-1h-1v1h1zm3.104 0h1v-1h-1v1zm0 5.919h-1v2.71l1.76-2.06-.76-.65zm6.155.311l-.793.61.005.005.788-.615zm-2.449 1.773l-.825.565.003.005.822-.57zm-3.706.397l-.908-.418-.092.2v.218h1zm0 4.587h-1v.221l.093.2.907-.42zm4.039-.257l.953.303-.953-.303zm2.33-1.934c0 1.732-.371 2.944-.988 3.756l1.592 1.21c.972-1.279 1.396-2.974 1.396-4.966h-2zm-.986 3.753c-.587.767-1.39 1.166-2.536 1.166v2c1.704 0 3.121-.64 4.124-1.95l-1.588-1.216zm-2.536 1.166c-.963 0-1.673-.35-2.23-1.064l-1.578 1.228c.948 1.218 2.249 1.836 3.808 1.836v-2zm-4.013-.563l-.139 1.236 1.987.224.14-1.235-1.988-.225zm.854.348h-2.792v2h2.792v-2zm-1.792 1V8.5h-2V25h2zm-1-15.5h3.104v-2h-3.104v2zm2.104-1v5.919h2V8.5h-2zm1.76 6.569c.514-.601 1.171-.907 2.065-.907v-2c-1.44 0-2.667.532-3.585 1.607l1.52 1.3zm2.065-.907c1.135 0 1.94.4 2.537 1.177l1.587-1.217c-1.008-1.313-2.422-1.96-4.124-1.96v2zm2.542 1.183c.623.8 1.002 2.017 1.002 3.779h2c0-2.019-.43-3.732-1.425-5.008l-1.577 1.23zm1.002 3.779v.172h2v-.172h-2zm-1.104-.054c0-1.236-.188-2.345-.737-3.137l-1.644 1.14c.196.282.381.885.381 1.997h2zm-.734-3.132c-.583-.852-1.468-1.252-2.49-1.252v2c.453 0 .678.145.84.382l1.65-1.13zm-2.49-1.252c-.63 0-1.234.13-1.763.444a2.984 2.984 0 00-1.186 1.352l1.816.836c.113-.244.248-.382.393-.469.151-.09.381-.163.74-.163v-2zm-3.041 2.214v4.587h2V16.9h-2zm.093 5.009c.264.567.658 1.037 1.197 1.357.532.315 1.139.446 1.772.446v-2c-.361 0-.596-.074-.751-.166-.149-.089-.288-.23-.404-.48l-1.814.843zm2.969 1.803c.67 0 1.309-.168 1.847-.57.534-.401.879-.968 1.083-1.609l-1.906-.607c-.111.348-.253.522-.377.615-.122.091-.313.17-.647.17v2zm2.93-2.18c.199-.624.273-1.47.273-2.462h-2c0 .942-.077 1.535-.179 1.856l1.906.607zm8.511-.926l-.958.287.96 3.216.956-3.218-.958-.285zm2.148-7.229v-1h-.746l-.212.715.958.285zm3.33 0l.945.329.462-1.329h-1.407v1zm-4.672 13.428l.921.388.013-.03.01-.03-.944-.328zm-.258.612l.909.416.006-.014.006-.014-.921-.388zm-4.813 2.073h-1v.75l.72.21.28-.96zm0-2.352l.023-1-1.023-.023v1.023h1zm.473.01l-.023 1h.023v-1zm1.31-.268l-.52-.854-.01.006.53.848zm.688-.892l.93.369.004-.012-.934-.357zm.365-.956l.934.357.131-.341-.121-.345-.944.33zm-4.071-11.655v-1h-1.409l.465 1.33.944-.33zm3.341 0l.958-.286-.213-.714h-.745v1zm3.117 7.514l2.149-7.23-1.917-.569-2.149 7.23 1.917.57zm1.19-6.514h3.33v-2h-3.33v2zm2.386-1.329l-4.673 13.428 1.889.657 4.673-13.427-1.889-.658zm-4.65 13.369l-.258.612 1.843.776.258-.612-1.843-.776zm-.246.584c-.286.626-.636 1.034-1.023 1.29-.384.255-.87.403-1.505.403v2c.963 0 1.848-.23 2.61-.735.759-.503 1.329-1.234 1.737-2.126l-1.819-.832zm-2.528 1.693c-.349 0-.713-.052-1.094-.164L126 30.45c.55.16 1.102.244 1.655.244v-2zm-.375.796v-2.352h-2v2.352h2zm-1.022-1.353l.472.011.046-2-.473-.01-.045 2zm.495.011c.653 0 1.317-.093 1.84-.42l-1.06-1.696c-.049.03-.259.116-.78.116v2zm1.831-.414c.528-.322.876-.82 1.097-1.377l-1.86-.737c-.108.274-.219.37-.278.406l1.041 1.708zm1.101-1.389l.365-.956-1.868-.714-.365.956 1.868.714zm.375-1.642l-4.071-11.656-1.888.66 4.071 11.655 1.888-.66zm-5.015-10.326h3.341v-2h-3.341v2zm2.383-.714l2.159 7.23 1.916-.573-2.159-7.23-1.916.573zm18.156-.286l.997-.072-.066-.928h-.931v1zm.097 1.343l-.998.071.184 2.547 1.595-1.994-.781-.624zm6.09-.473l.769-.64-.769.64zm.924 3.244h1v-.01l-1 .01zm0 7.509v1h1v-1h-1zm-3.104 0h-1v1h1v-1zm-.43-8.862l-.724.69.008.008.716-.698zm-3.394.666l-.863-.506-.137.234v.272h1zm0 8.196v1h1v-1h-1zm-3.105 0h-1v1h1v-1zm0-11.623v-1h-1v1h1zm1.925.072l.096 1.342 1.995-.143-.097-1.343-1.994.144zm1.875 1.895c.63-.787 1.449-1.182 2.559-1.182v-2c-1.682 0-3.09.644-4.121 1.933l1.562 1.25zm2.559-1.182c1.034 0 1.625.296 1.982.724l1.537-1.278c-.846-1.018-2.088-1.446-3.519-1.446v2zm1.982.724c.394.474.679 1.29.692 2.615l2-.02c-.015-1.553-.346-2.9-1.155-3.873l-1.537 1.278zm.692 2.605V25h2v-7.509h-2zm1 6.509h-3.104v2h3.104v-2zm-2.104 1v-7.434h-2V25h2zm0-7.434c0-.768-.162-1.56-.714-2.127l-1.432 1.397c.021.021.146.181.146.73h2zm-.706-2.118c-.562-.59-1.373-.761-2.153-.761v2c.553 0 .695.13.705.14l1.448-1.379zm-2.153-.761c-1.223 0-2.209.556-2.828 1.61l1.725 1.013c.255-.435.579-.623 1.103-.623v-2zm-2.965 2.117V25h2v-8.196h-2zm1 7.196h-3.105v2h3.105v-2zm-2.105 1V13.377h-2V25h2zm-1-10.623h2.922v-2h-2.922v2zm13.578 9.27l-.7.714.003.002.697-.716zm-.924-7.606l.898.442.001-.003-.899-.439zm1.913-2.127l.514.858.002-.002-.516-.856zm6.584.752l-.74.672.002.003.738-.675zm1.375 5.532v1h1v-1h-1zm-7.401 0v-1h-1.141l.15 1.131.991-.13zm.902 1.826l-.674.738.005.005.669-.743zm4.727-.612l.746-.666-.799-.895-.737.948.79.613zm1.525 1.708l.817.577.459-.65-.53-.593-.746.666zm-1.89 1.547l.417.909.007-.003-.424-.906zm-4.501-8.368l-.732-.682-.006.007.738.675zm-.731 1.783l-.99-.137-.158 1.137h1.148v-1zm4.319 0v1h1v-1h-1zm0-.247h1v-.01l-.001-.01-.999.02zm-.559-1.59l-.727.686.006.007.721-.693zm-1.171 7.97c-1.482 0-2.609-.447-3.47-1.285l-1.395 1.433c1.287 1.253 2.939 1.852 4.865 1.852v-2zm-3.468-1.283c-.843-.826-1.3-1.945-1.3-3.464h-2c0 1.96.61 3.628 1.9 4.893l1.4-1.429zm-1.3-3.464v-.301h-2v.3h2zm0-.301c0-1.036.199-1.924.574-2.684l-1.795-.884c-.528 1.073-.779 2.27-.779 3.568h2zm.575-2.687c.373-.763.882-1.32 1.528-1.708l-1.029-1.715c-1.001.6-1.766 1.46-2.296 2.545l1.797.878zm1.53-1.71c.661-.398 1.424-.608 2.319-.608v-2c-1.224 0-2.351.292-3.352.896l1.033 1.712zm2.319-.608c1.362 0 2.322.42 3.009 1.176l1.481-1.344c-1.132-1.248-2.671-1.832-4.49-1.832v2zm3.011 1.179c.696.761 1.113 1.91 1.113 3.59h2c0-2-.499-3.696-1.637-4.94l-1.476 1.35zm1.113 3.59v1.267h2v-1.267h-2zm1 .267h-7.401v2h7.401v-2zm-8.392 1.131c.127.961.522 1.796 1.219 2.433l1.349-1.476c-.305-.279-.512-.661-.585-1.219l-1.983.262zm1.224 2.438c.716.646 1.606.945 2.592.945v-2c-.56 0-.952-.16-1.253-.43l-1.339 1.485zm2.592.945c1.473 0 2.712-.552 3.594-1.686l-1.58-1.227c-.465.598-1.095.913-2.014.913v2zm2.058-1.634l1.526 1.708 1.491-1.332-1.525-1.708-1.492 1.332zm1.455.465c-.357.505-.846.913-1.498 1.218l.848 1.812c.938-.44 1.709-1.063 2.283-1.876l-1.633-1.154zm-1.492 1.215c-.65.3-1.387.457-2.225.457v2c1.096 0 2.121-.208 3.06-.64l-.835-1.817zm-2.579-9.082c-.867 0-1.643.304-2.236.941l1.464 1.363c.18-.193.407-.304.772-.304v-2zm-2.242.948c-.56.613-.858 1.422-.983 2.32l1.981.276c.09-.649.279-1.028.478-1.247l-1.476-1.349zm.007 3.458h4.319v-2h-4.319v2zm5.319-1v-.247h-2v.247h2zm-.001-.268c-.017-.854-.254-1.655-.837-2.262l-1.442 1.386c.133.138.269.396.28.918l1.999-.042zm-.831-2.255c-.593-.63-1.395-.883-2.252-.883v2c.46 0 .676.126.798.255l1.454-1.372zm14.763 5.22l-.961.274 1.941-.073-.98-.202zm1.526-7.402v-1h-.815l-.165.798.98.202zm2.997 0l.969.247.318-1.247h-1.287v1zM178.627 25v1h.777l.192-.753-.969-.247zm-2.6 0l-.957.288.214.712h.743v-1zm-2.202-7.315l.958-.289-.958-3.18-.957 3.18.957.289zM171.623 25v1h.743l.215-.712-.958-.288zm-2.589 0l-.969.247.192.753h.777v-1zm-2.965-11.623v-1h-1.287l.318 1.247.969-.247zm2.997 0l.98-.2-.164-.8h-.816v1zm1.515 7.39l-.98.201 1.941.076-.961-.276zm2.127-7.39v-1h-.753l-.208.723.961.277zm2.245 0l.962-.275-.208-.725h-.754v1zm3.096 7.603l1.525-7.401-1.959-.404-1.525 7.401 1.959.404zm.546-6.603h2.997v-2h-2.997v2zm2.028-1.247l-2.965 11.623 1.938.494 2.965-11.623-1.938-.494zM178.627 24h-2.6v2h2.6v-2zm-1.642.712l-2.202-7.316-1.915.577 2.202 7.315 1.915-.576zm-4.117-7.316l-2.203 7.316 1.916.576 2.202-7.315-1.915-.577zM171.623 24h-2.589v2h2.589v-2zm-1.62.753l-2.965-11.623-1.938.494 2.965 11.623 1.938-.494zm-3.934-10.376h2.997v-2h-2.997v2zm2.018-.8l1.514 7.391 1.96-.401-1.515-7.39-1.959.4zm3.455 7.467l2.127-7.39-1.922-.554-2.127 7.391 1.922.553zm1.166-6.667h2.245v-2h-2.245v2zm1.284-.725l2.116 7.401 1.923-.55-2.116-7.401-1.923.55zm14.872 7.245l-.512.858.01.006.01.006.492-.87zm-1.804-.591l-.206.978h.003l.203-.978zm-2.869-6.102l.628.778h.001l-.629-.778zm6.897 0l-.619.785.003.003.616-.788zm1.332 2.707v1h1v-1h-1zm-3.105 0h-1v1h1v-1zm-.429-1.096l-.716.699.009.009.707-.708zm-2.503 1.655l-.555.832.011.007.011.007.533-.846zm1.654.548l-.2.98.009.001.191-.981zm1.955.515l.345-.939h-.002l-.343.94zm1.096 5.704l.582.813.005-.003-.587-.81zm-6.123.462l-.423.906.01.005.413-.91zm-1.773-1.429l-.817.577.004.005.813-.582zm-.644-1.965v-1h-1v1h1zm2.943 0l.999-.052-.049-.948h-.95v1zm.613 1.267l.611-.79-.611.79zm2.868.108l.594.804.003-.002-.597-.802zm1.462-.892c0-.8-.44-1.401-1.077-1.762l-.985 1.74c.08.047.088.07.076.053a.132.132 0 01-.013-.03c-.003-.01-.001-.012-.001 0h2zm-1.058-1.75c-.521-.311-1.258-.535-2.114-.712l-.405 1.959c.805.166 1.271.337 1.495.47l1.024-1.717zm-2.111-.711c-1.302-.273-2.155-.664-2.668-1.1-.474-.402-.684-.862-.684-1.445h-2c0 1.186.481 2.198 1.389 2.97.87.739 2.089 1.225 3.552 1.532l.411-1.957zm-3.352-2.545c0-.708.273-1.288.906-1.8l-1.255-1.556c-1.071.864-1.651 2.002-1.651 3.356h2zm.907-1.8c.641-.518 1.522-.82 2.734-.82v-2c-1.552 0-2.913.393-3.991 1.264l1.257 1.556zm2.734-.82c1.321 0 2.259.31 2.915.827l1.238-1.57c-1.106-.872-2.524-1.257-4.153-1.257v2zm2.918.83c.65.508.948 1.122.948 1.92h2c0-1.424-.59-2.615-1.716-3.495l-1.232 1.575zm1.948.92h-3.105v2h3.105v-2zm-2.105 1c0-.682-.229-1.31-.722-1.804l-1.414 1.415c.08.08.136.181.136.388h2zm-.713-1.795c-.55-.563-1.311-.742-2.059-.742v2c.469 0 .603.114.627.139l1.432-1.397zm-2.059-.742c-.662 0-1.324.149-1.85.583l1.272 1.543c.047-.039.194-.126.578-.126v-2zm-1.85.583a2.116 2.116 0 00-.794 1.674h2c0-.049.009-.066.011-.07.002-.004.012-.025.055-.061l-1.272-1.543zm-.794 1.674c0 .725.37 1.297.929 1.67l1.11-1.664c-.03-.02-.045-.034-.052-.04-.006-.007-.004-.006 0 .001a.124.124 0 01.012.028c.002.01.001.012.001.005h-2zm.951 1.684c.49.309 1.192.52 1.988.681l.399-1.96c-.751-.152-1.153-.307-1.321-.413l-1.066 1.692zm1.996.683c.741.144 1.338.304 1.803.474l.686-1.88a14.088 14.088 0 00-2.107-.557l-.382 1.963zm1.802.473c.7.257 1.139.576 1.403.912.255.324.401.73.401 1.275h2c0-.937-.264-1.793-.829-2.511-.556-.707-1.346-1.209-2.286-1.554l-.689 1.878zm1.804 2.187c0 .718-.283 1.285-.951 1.768l1.174 1.62c1.151-.834 1.777-1.986 1.777-3.388h-2zm-.947 1.765c-.696.5-1.65.79-2.941.79v2c1.589 0 2.984-.36 4.106-1.164l-1.165-1.626zm-2.941.79c-.855 0-1.577-.15-2.187-.426l-.825 1.822c.909.412 1.92.605 3.012.605v-2zm-2.176-.421c-.616-.287-1.064-.659-1.382-1.104l-1.627 1.163c.541.758 1.274 1.339 2.163 1.753l.846-1.812zm-1.379-1.1c-.318-.45-.461-.906-.461-1.388h-2c0 .921.286 1.776.827 2.542l1.634-1.153zm-1.461-.388h2.943v-2h-2.943v2zm1.945-.948c.041.793.353 1.506.999 2.006l1.223-1.582c-.113-.087-.209-.219-.225-.528l-1.997.104zm.999 2.006c.604.468 1.351.65 2.137.65v-2c-.489 0-.759-.112-.914-.232l-1.223 1.582zm2.137.65c.691 0 1.389-.125 1.937-.529l-1.188-1.609c-.054.04-.252.138-.749.138v2zm1.94-.531c.546-.407.865-.994.865-1.694h-2c0 .02-.003.032-.003.035l-.001.002-.001.002a.288.288 0 01-.054.05l1.194 1.605zm12.465-9.579l-.508-.861-.003.002.511.86zm6.746.699l-.696.717.002.002.694-.72zm1.665 3.91l1-.027-.001-.021-.001-.022-.998.07zm.022.795h1v-.014l-.001-.013-.999.027zm-1.493 4.297l.733.68.002-.003-.735-.677zm-8.025 0l-.733.68.002.002.731-.683zm2.235-1.762l-.817.577.004.005.813-.582zm3.545.01l.804.594.004-.005-.808-.588zm0-5.285l-.816.58.816-.58zm-3.545 0l.816.578.003-.005-.819-.573zm-2.728 2.514c0-1.022.196-1.895.563-2.641l-1.794-.884c-.521 1.06-.769 2.241-.769 3.525h2zm.563-2.641a3.888 3.888 0 011.526-1.677l-1.022-1.72c-1.004.598-1.772 1.445-2.298 2.514l1.794.883zm1.523-1.675c.664-.392 1.455-.603 2.403-.603v-2c-1.257 0-2.407.283-3.419.88l1.016 1.723zm2.403-.603c1.348 0 2.363.404 3.139 1.157l1.393-1.435c-1.201-1.166-2.742-1.722-4.532-1.722v2zm3.141 1.16c.784.755 1.261 1.808 1.362 3.26l1.995-.14c-.128-1.843-.762-3.397-1.969-4.56l-1.388 1.44zm1.36 3.217l.021.795 1.999-.054-.021-.795-1.999.054zm.021.768c0 1.588-.438 2.76-1.229 3.62l1.471 1.354c1.2-1.304 1.758-2.997 1.758-4.974h-2zm-1.227 3.617c-.778.84-1.832 1.29-3.273 1.29v2c1.91 0 3.527-.622 4.74-1.93l-1.467-1.36zm-3.273 1.29c-1.442 0-2.501-.45-3.287-1.293l-1.462 1.365c1.219 1.306 2.839 1.929 4.749 1.929v-2zm-3.284-1.29c-.783-.845-1.227-2.04-1.227-3.703h-2c0 2.03.551 3.758 1.76 5.062l1.467-1.36zm-1.227-3.703v-.14h-2v.14h2zm1.105.086c0 1.206.223 2.288.806 3.112L204 21.264c-.248-.35-.439-.958-.439-1.957h-2zm.81 3.117c.62.867 1.532 1.288 2.596 1.288v-2c-.483 0-.76-.16-.97-.452l-1.626 1.164zm2.596 1.288c1.048 0 1.943-.421 2.566-1.266l-1.609-1.187c-.222.3-.502.453-.957.453v2zm2.57-1.27c.611-.84.825-2.025.825-3.36h-2c0 1.198-.208 1.86-.442 2.182l1.617 1.177zm.825-3.36c0-1.195-.23-2.267-.818-3.094l-1.631 1.159c.257.361.449.965.449 1.934h2zm-.818-3.094c-.621-.874-1.528-1.312-2.599-1.312v2c.462 0 .744.156.968.47l1.631-1.158zm-2.599-1.312c-1.067 0-1.969.442-2.581 1.319l1.639 1.145c.218-.312.492-.464.942-.464v-2zm-2.578 1.314c-.594.84-.806 2.004-.806 3.317h2c0-1.166.202-1.827.439-2.162l-1.633-1.155zm12.869-2.613l.998-.072-.067-.928h-.931v1zm.097 1.343l-.997.071.183 2.547 1.595-1.994-.781-.624zm6.091-.473l.769-.64-.769.64zm.924 3.244h1v-.01l-1 .01zm0 7.509v1h1v-1h-1zm-3.105 0h-1v1h1v-1zm-.43-8.862l-.724.69.009.008.715-.698zm-3.394.666l-.863-.506-.137.234v.272h1zm0 8.196v1h1v-1h-1zm-3.105 0h-1v1h1v-1zm0-11.623v-1h-1v1h1zm1.925.072l.097 1.342 1.994-.143-.096-1.343-1.995.144zm1.875 1.895c.63-.787 1.45-1.182 2.56-1.182v-2c-1.683 0-3.091.644-4.122 1.933l1.562 1.25zm2.56-1.182c1.033 0 1.624.296 1.981.724l1.538-1.278c-.847-1.018-2.089-1.446-3.519-1.446v2zm1.981.724c.394.474.68 1.29.693 2.615l2-.02c-.016-1.553-.346-2.9-1.155-3.873l-1.538 1.278zm.693 2.605V25h2v-7.509h-2zm1 6.509h-3.105v2h3.105v-2zm-2.105 1v-7.434h-2V25h2zm0-7.434c0-.768-.161-1.56-.714-2.127l-1.431 1.397c.02.021.145.181.145.73h2zm-.705-2.118c-.563-.59-1.374-.761-2.153-.761v2c.552 0 .694.13.704.14l1.449-1.379zm-2.153-.761c-1.224 0-2.21.556-2.829 1.61l1.726 1.013c.254-.435.579-.623 1.103-.623v-2zm-2.966 2.117V25h2v-8.196h-2zm1 7.196h-3.105v2h3.105v-2zm-2.105 1V13.377h-2V25h2zm-1-10.623h2.922v-2h-2.922v2zm21.592-3.857h1v-1h-1v1zm0 2.857h-1v1h1v-1zm1.988 0h1v-1h-1v1zm0 2.277v1h1v-1h-1zm-1.988 0v-1h-1v1h1zm.247 6.725l.749-.663-.749.663zm1.859.204h1v-1.207l-1.186.224.186.983zm0 2.353l.292.956.708-.217v-.74h-1zm-5.21-3.019h-1v.02l1-.02zm0-6.263h1v-1h-1v1zm-1.698 0h-1v1h1v-1zm0-2.277v-1h-1v1h1zm1.698 0v1h1v-1h-1zm0-2.857v-1h-1v1h1zm2.104 0v2.857h2V10.52h-2zm1 3.857h1.988v-2h-1.988v2zm.988-1v2.277h2v-2.277h-2zm1 1.277h-1.988v2h1.988v-2zm-2.988 1v5.801h2v-5.8h-2zm0 5.801c0 .511.089 1.124.498 1.587l1.498-1.326c.045.051.044.08.032.034a1.218 1.218 0 01-.028-.295h-2zm.498 1.587c.466.526 1.171.616 1.695.616v-2c-.174 0-.266-.018-.302-.029-.035-.01.029.001.105.087l-1.498 1.325zm1.695.616c.39 0 .758-.028 1.099-.092l-.372-1.966c-.19.036-.43.058-.727.058v2zm-.087-1.075v2.353h2v-2.353h-2zm.707 1.396a5.394 5.394 0 01-1.587.236v2c.742 0 1.468-.108 2.172-.323l-.585-1.913zm-1.587.236c-.93 0-1.458-.234-1.762-.535-.306-.303-.55-.837-.568-1.782l-2 .038c.024 1.253.357 2.369 1.161 3.165.806.798 1.922 1.114 3.169 1.114v-2zm-2.33-2.298v-6.263h-2v6.263h2zm-1-7.263h-1.698v2h1.698v-2zm-.698 1v-2.277h-2v2.277h2zm-1-1.277h1.698v-2h-1.698v2zm2.698-1V10.52h-2v2.857h2zm-1-1.857h3.104v-2h-3.104v2zm9.85 3.125h-1v2.762l1.769-2.122-.769-.64zm6.94 2.91h1v-.012l-1 .013zm0 7.445v1h1v-1h-1zm-3.105 0h-1v1h1v-1zm-.429-8.83l-.748.664.008.009.74-.673zm-3.406.57l-.864-.503-.136.233v.27h1zm0 8.26v1h1v-1h-1zm-3.104 0h-1v1h1v-1zm0-16.5v-1h-1v1h1zm3.104 0h1v-1h-1v1zm.769 6.785c.64-.77 1.397-1.123 2.336-1.123v-2c-1.554 0-2.866.635-3.873 1.842l1.537 1.28zm2.336-1.123c1.063 0 1.699.302 2.096.756.42.482.722 1.307.739 2.65l2-.025c-.02-1.586-.375-2.957-1.232-3.94-.882-1.01-2.145-1.44-3.603-1.44v2zm2.835 3.394V25h2v-7.444h-2zm1 6.444h-3.105v2h3.105v-2zm-2.105 1v-7.358h-2V25h2zm0-7.358c0-.78-.163-1.566-.689-2.145l-1.48 1.346c.046.05.169.247.169.799h2zm-.682-2.136c-.559-.63-1.379-.82-2.176-.82v2c.535 0 .668.133.681.148l1.495-1.328zm-2.176-.82c-1.214 0-2.229.499-2.841 1.55l1.729 1.006c.204-.352.507-.556 1.112-.556v-2zm-2.977 2.053V25h2v-8.26h-2zm1 7.261h-3.104v2h3.104v-2zm-2.104 1V8.5h-2V25h2zm-1-15.5h3.104v-2h-3.104v2zm2.104-1v6.145h2V8.5h-2zm11.463 15.146l-.7.715.003.002.697-.716zm-.924-7.605l.898.442.001-.003-.899-.439zm1.913-2.127l.514.858.002-.002-.516-.856zm6.584.752l-.74.672.002.003.738-.675zm1.375 5.532v1h1v-1h-1zm-7.401 0v-1h-1.141l.15 1.131.991-.13zm.902 1.826l-.674.738.005.005.669-.743zm4.727-.612l.746-.666-.799-.895-.737.948.79.613zm1.525 1.708l.817.577.459-.65-.53-.593-.746.666zm-1.89 1.547l.417.909.007-.003-.424-.906zm-4.501-8.368l-.732-.682-.006.007.738.675zm-.731 1.783l-.99-.137-.158 1.137h1.148v-1zm4.319 0v1h1v-1h-1zm0-.247h1v-.01l-.001-.01-.999.02zm-.559-1.59l-.727.686.006.007.721-.693zm-1.171 7.97c-1.482 0-2.609-.447-3.47-1.285l-1.395 1.433c1.287 1.253 2.939 1.852 4.865 1.852v-2zm-3.468-1.283c-.843-.826-1.3-1.945-1.3-3.464h-2c0 1.96.61 3.628 1.9 4.893l1.4-1.429zm-1.3-3.464v-.301h-2v.3h2zm0-.301c0-1.036.199-1.924.574-2.684l-1.795-.884c-.528 1.073-.779 2.27-.779 3.568h2zm.575-2.687c.373-.763.882-1.32 1.528-1.708l-1.029-1.715c-1.001.6-1.766 1.46-2.296 2.545l1.797.878zm1.53-1.71c.661-.398 1.424-.608 2.319-.608v-2c-1.224 0-2.351.292-3.352.896l1.033 1.712zm2.319-.608c1.362 0 2.322.42 3.009 1.176l1.481-1.344c-1.132-1.248-2.671-1.832-4.49-1.832v2zm3.011 1.179c.696.761 1.113 1.91 1.113 3.59h2c0-2-.499-3.696-1.636-4.94l-1.477 1.35zm1.113 3.59v1.267h2v-1.267h-2zm1 .267h-7.401v2h7.401v-2zm-8.392 1.131c.127.961.522 1.796 1.219 2.433l1.349-1.476c-.305-.279-.512-.661-.585-1.219l-1.983.262zm1.224 2.438c.716.646 1.606.945 2.592.945v-2c-.56 0-.952-.16-1.253-.43l-1.339 1.485zm2.592.945c1.473 0 2.712-.552 3.594-1.686l-1.58-1.227c-.465.598-1.095.913-2.014.913v2zm2.058-1.634l1.526 1.708 1.491-1.332-1.525-1.708-1.492 1.332zm1.455.465c-.357.505-.846.913-1.498 1.218l.848 1.812c.938-.44 1.709-1.063 2.283-1.876L259 22.543zm-1.492 1.215c-.65.3-1.387.457-2.225.457v2c1.096 0 2.121-.208 3.06-.64l-.835-1.817zm-2.579-9.082c-.867 0-1.643.304-2.236.941l1.464 1.363c.18-.193.407-.304.772-.304v-2zm-2.242.948c-.56.613-.858 1.422-.983 2.32l1.981.276c.09-.649.279-1.028.478-1.247l-1.476-1.349zm.007 3.458h4.319v-2h-4.319v2zm5.319-1v-.247h-2v.247h2zm-.001-.268c-.017-.854-.254-1.655-.837-2.262l-1.442 1.386c.133.138.269.396.28.918l1.999-.042zm-.831-2.255c-.593-.63-1.395-.883-2.252-.883v2c.46 0 .676.126.798.255l1.454-1.372zm10.95-.764l-.788-.617-.002.004.79.613zm6.413-.322l-.777.63 1.493 1.84.277-2.354-.993-.116zm.129-1.096v-1h-.889l-.104.883.993.117zm2.814 0h1v-1h-1v1zm-.698 13.89l-.85-.527-.004.006.854.52zm-1.944 1.718l-.426-.905.426.905zm-5.436.076l.391-.92-.007-.004-.384.924zm-1.837-1.311l-.808-.588-.442.606.459.594.791-.612zm1.375-1.89l.746-.666-.825-.925-.729 1.002.808.588zm4.738.633l-.69-.724-.006.006.696.718zm.687-2.492h1v-2.639l-1.749 1.976.749.663zm-6.22-.419l-.787.617.005.006.782-.623zm2.45-1.772l-.819.574.003.005.816-.58zm3.77-.172l.867.499.133-.232v-.267h-1zm0-4.888h1v-.271l-.137-.235-.863.506zm-3.77-.15l-.817-.577-.005.006.822.57zm-2.739 2.502c0-1.626.384-2.826 1.058-3.694l-1.58-1.226c-1.017 1.31-1.478 2.981-1.478 4.92h2zm1.055-3.69c.654-.836 1.504-1.25 2.65-1.25v-2c-1.732 0-3.174.674-4.225 2.016l1.575 1.233zm2.65-1.25c1.019 0 1.707.334 2.199.94l1.553-1.26c-.925-1.14-2.221-1.68-3.752-1.68v2zm3.969.427l.129-1.095-1.986-.234-.129 1.096 1.986.233zm-.864-.212h2.814v-2h-2.814v2zm1.814-1v11.236h2V13.377h-2zm0 11.236c0 .86-.195 1.556-.548 2.127l1.7 1.053c.578-.933.848-2.005.848-3.18h-2zm-.552 2.133c-.351.576-.846 1.02-1.516 1.334l.851 1.81c1.006-.472 1.807-1.175 2.373-2.103l-1.708-1.04zm-1.516 1.334c-.679.32-1.509.496-2.518.496v2c1.241 0 2.373-.217 3.369-.686l-.851-1.81zm-2.518.496a5.318 5.318 0 01-2.101-.436l-.782 1.841a7.32 7.32 0 002.883.595v-2zm-2.108-.439c-.694-.289-1.147-.634-1.43-.999l-1.582 1.224c.548.709 1.32 1.238 2.244 1.622l.768-1.847zm-1.412.201l1.375-1.89-1.617-1.177-1.375 1.89 1.617 1.177zm-.18-1.813c.952 1.067 2.156 1.634 3.561 1.634v-2c-.801 0-1.474-.299-2.069-.965l-1.492 1.331zm3.561 1.634c1.005 0 1.924-.275 2.618-.948l-1.391-1.436c-.222.215-.585.384-1.227.384v2zm2.613-.942c.707-.675.997-1.59.997-2.593h-2c0 .616-.169.946-.377 1.145l1.38 1.448zm.997-2.593v-.623h-2v.623h2zm-1.749-1.286c-.51.576-1.169.877-2.076.877v2c1.428 0 2.651-.509 3.574-1.551l-1.498-1.326zm-2.076.877c-1.093 0-1.936-.407-2.612-1.256l-1.565 1.246c1.057 1.328 2.477 2.01 4.177 2.01v-2zm-2.608-1.25c-.685-.873-1.076-2.086-1.076-3.734h-2c0 1.962.469 3.65 1.502 4.968l1.574-1.234zm-1.076-3.734v-.129h-2v.13h2zm1.105.097c0 1.173.233 2.228.815 3.056l1.637-1.15c-.263-.374-.452-.974-.452-1.906h-2zm.818 3.06c.613.863 1.499 1.313 2.556 1.313v-2c-.419 0-.693-.144-.925-.47l-1.631 1.158zm2.556 1.313c1.236 0 2.279-.492 2.897-1.564l-1.734-.998c-.198.345-.509.562-1.163.562v2zm3.03-2.063V16.75h-2v4.888h2zm-.137-5.394c-.62-1.058-1.646-1.557-2.872-1.557v2c.622 0 .936.209 1.146.569l1.726-1.012zm-2.872-1.557c-1.07 0-1.961.462-2.578 1.336l1.634 1.153c.242-.343.525-.49.944-.49v-2zm-2.583 1.342c-.591.852-.812 2.003-.812 3.3h2c0-1.125.201-1.794.455-2.16l-1.643-1.14zm12.198-2.126l-.508-.861-.004.002.512.86zm6.746.699l-.697.717.003.002.694-.72zm1.665 3.91l.999-.027v-.021l-.002-.022-.997.07zm.021.795h1v-.027l-1 .027zm-1.493 4.297l.733.68.003-.003-.736-.677zm-8.024 0l-.734.68.003.002.731-.683zm2.234-1.762l-.816.577.003.005.813-.582zm3.545.01l.805.594.003-.005-.808-.588zm0-5.285l-.815.58.815-.58zm-3.545 0l.816.578.004-.005-.82-.573zm-2.728 2.514c0-1.022.197-1.895.564-2.641l-1.795-.884c-.521 1.06-.769 2.241-.769 3.525h2zm.564-2.641c.362-.736.868-1.286 1.526-1.677l-1.023-1.72c-1.004.598-1.772 1.445-2.298 2.514l1.795.883zm1.523-1.675c.664-.392 1.454-.603 2.403-.603v-2c-1.257 0-2.408.283-3.419.88l1.016 1.723zm2.403-.603c1.347 0 2.363.404 3.138 1.157l1.393-1.435c-1.201-1.166-2.742-1.722-4.531-1.722v2zm3.141 1.16c.783.755 1.26 1.808 1.361 3.26l1.995-.14c-.128-1.843-.761-3.397-1.968-4.56l-1.388 1.44zm1.359 3.217l.022.795 1.999-.054-.022-.795-1.999.054zm.021.768c0 1.588-.438 2.76-1.229 3.62l1.472 1.354c1.2-1.304 1.757-2.997 1.757-4.974h-2zm-1.226 3.617c-.779.84-1.832 1.29-3.274 1.29v2c1.91 0 3.528-.622 4.74-1.93l-1.466-1.36zm-3.274 1.29c-1.441 0-2.5-.45-3.286-1.293l-1.462 1.365c1.219 1.306 2.838 1.929 4.748 1.929v-2zm-3.284-1.29c-.782-.845-1.227-2.04-1.227-3.703h-2c0 2.03.552 3.758 1.76 5.062l1.467-1.36zm-1.227-3.703v-.14h-2v.14h2zm1.105.086c0 1.206.223 2.288.807 3.112l1.632-1.155c-.247-.35-.439-.958-.439-1.957h-2zm.81 3.117c.621.867 1.532 1.288 2.596 1.288v-2c-.482 0-.76-.16-.97-.452l-1.626 1.164zm2.596 1.288c1.049 0 1.944-.421 2.567-1.266l-1.61-1.187c-.222.3-.502.453-.957.453v2zm2.57-1.27c.611-.84.826-2.025.826-3.36h-2c0 1.198-.208 1.86-.442 2.182l1.616 1.177zm.826-3.36c0-1.195-.231-2.267-.819-3.094l-1.63 1.159c.257.361.449.965.449 1.934h2zm-.819-3.094c-.621-.874-1.528-1.312-2.598-1.312v2c.462 0 .744.156.968.47l1.63-1.158zm-2.598-1.312c-1.068 0-1.969.442-2.582 1.319l1.64 1.145c.218-.312.491-.464.942-.464v-2zm-2.578 1.314c-.594.84-.807 2.004-.807 3.317h2c0-1.166.202-1.827.439-2.162l-1.632-1.155z" fill="#E5E5E5"/></svg>