<svg width="311" height="49" viewBox="0 0 311 49" fill="none" xmlns="http://www.w3.org/2000/svg"><path d="M70.047 17.77l3.867-12.832h3.914L71.887 22h-3.668L62.3 4.937h3.902l3.844 12.832zm14.496 4.464c-1.86 0-3.375-.57-4.547-1.71-1.164-1.141-1.746-2.66-1.746-4.56v-.327c0-1.274.246-2.41.738-3.41.493-1.008 1.188-1.782 2.086-2.32.907-.548 1.938-.821 3.094-.821 1.734 0 3.098.547 4.09 1.64 1 1.094 1.5 2.645 1.5 4.653v1.383h-8.074c.109.828.437 1.492.984 1.992.555.5 1.254.75 2.098.75 1.304 0 2.324-.473 3.058-1.418l1.664 1.863c-.507.719-1.195 1.281-2.062 1.688-.867.398-1.828.597-2.883.597zm-.387-10.406c-.672 0-1.219.227-1.64.68-.414.453-.68 1.101-.797 1.945h4.71v-.27c-.015-.75-.218-1.328-.609-1.734-.39-.414-.945-.62-1.664-.62zm14.66.668a9.201 9.201 0 00-1.218-.094c-1.282 0-2.121.434-2.52 1.301V22h-3.387V9.32h3.2l.093 1.512c.68-1.164 1.622-1.746 2.825-1.746.375 0 .726.05 1.054.152l-.047 3.258zM104.031 22h-3.398V9.32h3.398V22zm-3.597-15.96c0-.509.168-.927.504-1.255.343-.328.808-.492 1.394-.492.578 0 1.039.164 1.383.492.344.328.515.746.515 1.254 0 .516-.175.938-.527 1.266-.344.328-.801.492-1.371.492s-1.031-.164-1.383-.492c-.344-.328-.515-.75-.515-1.266zM107.652 22V11.805h-1.886V9.32h1.886v-.586c.016-1.593.504-2.82 1.465-3.68.969-.867 2.332-1.3 4.09-1.3 1.055 0 2.336.23 3.844.691l-.492 2.801c-.766-.226-1.36-.371-1.782-.434a8.275 8.275 0 00-1.359-.105c-1.578 0-2.367.7-2.367 2.098v.515h2.496v2.485h-2.496V22h-3.399zm10.981 0h-3.399V9.32h3.399V22zm8.074-2.496c.625 0 1.133-.172 1.523-.516.391-.343.594-.8.61-1.37h3.176a4.376 4.376 0 01-.704 2.366c-.46.711-1.093 1.266-1.898 1.664-.797.391-1.68.586-2.648.586-1.813 0-3.243-.574-4.289-1.722-1.047-1.157-1.571-2.75-1.571-4.782v-.222c0-1.953.52-3.512 1.559-4.676 1.039-1.164 2.465-1.746 4.277-1.746 1.586 0 2.856.453 3.809 1.36.961.898 1.449 2.097 1.465 3.597h-3.176c-.016-.656-.219-1.188-.61-1.594-.39-.414-.906-.62-1.546-.62-.789 0-1.387.288-1.793.866-.399.57-.598 1.5-.598 2.79v.35c0 1.306.199 2.243.598 2.813.398.57 1.004.856 1.816.856zM141.297 22c-.156-.305-.27-.684-.34-1.137-.82.914-1.887 1.371-3.199 1.371-1.242 0-2.274-.359-3.094-1.078-.812-.718-1.219-1.625-1.219-2.718 0-1.344.496-2.375 1.489-3.094 1-.719 2.441-1.082 4.324-1.09h1.558v-.727c0-.586-.152-1.054-.457-1.406-.297-.351-.769-.527-1.418-.527-.57 0-1.019.136-1.347.41-.321.273-.481.648-.481 1.125h-3.386c0-.734.226-1.414.679-2.04.453-.624 1.094-1.112 1.922-1.464.828-.36 1.758-.54 2.789-.54 1.563 0 2.801.395 3.715 1.184.922.782 1.383 1.883 1.383 3.305v5.496c.008 1.203.176 2.114.504 2.73v.2h-3.422zm-2.801-2.355c.5 0 .961-.11 1.383-.329.422-.226.734-.527.937-.902v-2.18h-1.265c-1.696 0-2.598.586-2.707 1.758l-.012.2c0 .421.148.769.445 1.042.297.274.703.41 1.219.41zm12.375-13.442V9.32h2.168v2.485h-2.168v6.328c0 .469.09.805.27 1.008.179.203.523.304 1.031.304.375 0 .707-.027.996-.082v2.567a6.975 6.975 0 01-2.051.304c-2.375 0-3.586-1.199-3.633-3.597v-6.832h-1.851V9.32h1.851V6.203h3.387zM158.5 22h-3.398V9.32h3.398V22zm-3.598-15.96c0-.509.168-.927.504-1.255.344-.328.809-.492 1.395-.492.578 0 1.039.164 1.383.492.343.328.515.746.515 1.254 0 .516-.176.938-.527 1.266-.344.328-.801.492-1.371.492-.571 0-1.031-.164-1.383-.492-.344-.328-.516-.75-.516-1.266zm5.871 9.503c0-1.258.243-2.379.727-3.363.484-.985 1.18-1.746 2.086-2.285.914-.54 1.973-.81 3.176-.81 1.711 0 3.105.524 4.183 1.571 1.086 1.047 1.692 2.469 1.817 4.266l.023.867c0 1.945-.543 3.508-1.629 4.688-1.086 1.171-2.543 1.757-4.371 1.757-1.828 0-3.289-.586-4.383-1.757-1.086-1.172-1.629-2.766-1.629-4.782v-.152zm3.387.246c0 1.203.227 2.125.68 2.766.453.633 1.101.949 1.945.949.82 0 1.461-.313 1.922-.938.461-.632.691-1.64.691-3.023 0-1.18-.23-2.094-.691-2.742-.461-.649-1.109-.973-1.945-.973-.828 0-1.469.324-1.922.973-.453.64-.68 1.636-.68 2.988zm13.828-6.469l.106 1.465c.906-1.133 2.121-1.7 3.644-1.7 1.344 0 2.344.395 3 1.184.657.79.992 1.97 1.008 3.54V22h-3.387v-8.11c0-.718-.156-1.238-.468-1.558-.313-.328-.832-.492-1.559-.492-.953 0-1.668.406-2.144 1.219V22h-3.387V9.32h3.187zm29.93 6.996c-.133 1.836-.813 3.282-2.039 4.336-1.219 1.055-2.828 1.582-4.828 1.582-2.188 0-3.91-.734-5.168-2.203-1.25-1.476-1.875-3.5-1.875-6.07v-1.043c0-1.64.289-3.086.867-4.336.578-1.25 1.402-2.207 2.473-2.871 1.078-.672 2.328-1.008 3.75-1.008 1.968 0 3.554.527 4.757 1.582 1.204 1.055 1.899 2.535 2.086 4.442h-3.515c-.086-1.102-.395-1.899-.926-2.391-.523-.5-1.324-.75-2.402-.75-1.172 0-2.051.422-2.637 1.266-.578.835-.875 2.136-.891 3.902v1.289c0 1.844.278 3.191.832 4.043.563.852 1.446 1.277 2.649 1.277 1.086 0 1.894-.246 2.426-.738.539-.5.847-1.27.925-2.309h3.516zm1.559-.773c0-1.258.242-2.379.726-3.363.485-.985 1.18-1.746 2.086-2.285.914-.54 1.973-.81 3.176-.81 1.711 0 3.105.524 4.183 1.571 1.086 1.047 1.692 2.469 1.817 4.266l.023.867c0 1.945-.543 3.508-1.629 4.688-1.086 1.171-2.543 1.757-4.371 1.757-1.828 0-3.289-.586-4.383-1.757-1.085-1.172-1.628-2.766-1.628-4.782v-.152zm3.386.246c0 1.203.227 2.125.68 2.766.453.633 1.102.949 1.945.949.821 0 1.461-.313 1.922-.938.461-.632.692-1.64.692-3.023 0-1.18-.231-2.094-.692-2.742-.461-.649-1.109-.973-1.945-.973-.828 0-1.469.324-1.922.973-.453.64-.68 1.636-.68 2.988zm10.184-.223c0-1.976.441-3.55 1.324-4.722.891-1.172 2.106-1.758 3.645-1.758 1.234 0 2.254.46 3.058 1.383V4h3.399v18h-3.059l-.164-1.348c-.844 1.055-1.93 1.582-3.258 1.582-1.492 0-2.691-.586-3.597-1.757-.899-1.18-1.348-2.817-1.348-4.91zm3.387.246c0 1.188.207 2.098.621 2.731.414.633 1.015.95 1.804.95 1.047 0 1.786-.442 2.215-1.325v-5.004c-.422-.883-1.152-1.324-2.191-1.324-1.633 0-2.449 1.324-2.449 3.973zm16.5 6.422c-1.86 0-3.375-.57-4.547-1.71-1.164-1.141-1.746-2.66-1.746-4.56v-.327c0-1.274.246-2.41.738-3.41.492-1.008 1.187-1.782 2.086-2.32.906-.548 1.937-.821 3.094-.821 1.734 0 3.097.547 4.089 1.64 1 1.094 1.5 2.645 1.5 4.653v1.383h-8.074c.11.828.438 1.492.985 1.992.554.5 1.253.75 2.097.75 1.305 0 2.324-.473 3.059-1.418l1.664 1.863c-.508.719-1.195 1.281-2.063 1.688-.867.398-1.828.597-2.882.597zm-.387-10.406c-.672 0-1.219.227-1.641.68-.414.453-.679 1.101-.797 1.945h4.711v-.27c-.015-.75-.218-1.328-.609-1.734-.391-.414-.945-.62-1.664-.62z" fill="#fff"/></svg>