<svg width="360" height="57" viewBox="0 0 360 57" fill="none" xmlns="http://www.w3.org/2000/svg"><path fill="#fff" d="M0 0h360v57H0z"/><path d="M112.237 37V22.781h4.375c1.25 0 2.367.284 3.35.85.989.56 1.761 1.36 2.314 2.402.554 1.035.83 2.214.83 3.535v.655c0 1.321-.273 2.496-.82 3.525a5.803 5.803 0 01-2.295 2.393c-.99.566-2.106.852-3.35.859h-4.404zm2.93-11.846v9.493h1.416c1.146 0 2.021-.375 2.627-1.124.605-.748.914-1.82.928-3.213v-.751c0-1.446-.3-2.54-.899-3.282-.599-.748-1.475-1.123-2.627-1.123h-1.445zm18.04 8.916h-5.136l-.977 2.93h-3.115l5.293-14.219h2.715L137.309 37h-3.115l-.987-2.93zm-4.345-2.373h3.554l-1.787-5.322-1.767 5.322zM141.902 37h-2.929V22.781h2.929V37zm5.805-2.353h6.22V37h-9.15V22.781h2.93v11.866zm10.228-5.46l2.959-6.406h3.203l-4.668 9.063V37h-2.979v-5.156l-4.668-9.063h3.213l2.94 6.407zM182.239 37h-2.93l-5.703-9.355V37h-2.93V22.781h2.93l5.713 9.375v-9.375h2.92V37zm11.263-6.162h-5.625v3.809h6.602V37h-9.532V22.781h9.512v2.373h-6.582v3.389h5.625v2.295zm13.919 2.06l1.915-10.117h2.919L209.101 37h-2.949l-2.315-9.512L201.523 37h-2.949l-3.154-14.219h2.919l1.924 10.098 2.344-10.098h2.48l2.334 10.117zm13.949.371c0-.553-.195-.976-.586-1.269-.39-.3-1.093-.612-2.109-.938-1.016-.332-1.82-.657-2.412-.976-1.615-.872-2.422-2.048-2.422-3.525 0-.769.215-1.452.645-2.051.436-.606 1.057-1.078 1.865-1.416.814-.339 1.725-.508 2.734-.508 1.016 0 1.921.186 2.715.557.794.364 1.41.882 1.846 1.552.442.67.664 1.433.664 2.285h-2.93c0-.65-.205-1.155-.615-1.513-.41-.365-.986-.547-1.729-.547-.716 0-1.272.153-1.67.459a1.42 1.42 0 00-.595 1.191c0 .463.231.85.693 1.162.469.313 1.156.606 2.061.88 1.666.5 2.88 1.122 3.642 1.865.762.742 1.143 1.666 1.143 2.773 0 1.23-.466 2.197-1.397 2.9-.931.697-2.184 1.045-3.759 1.045-1.094 0-2.09-.198-2.989-.595-.898-.404-1.585-.954-2.06-1.65-.469-.697-.703-1.505-.703-2.423h2.939c0 1.57.938 2.354 2.813 2.354.696 0 1.24-.14 1.63-.42.391-.286.586-.684.586-1.191z" fill="#C80E0E"/><path fill-rule="evenodd" clip-rule="evenodd" d="M290 32.08c-.76 0-1.44.3-1.96.77l-7.13-4.15c.05-.23.09-.46.09-.7 0-.24-.04-.47-.09-.7l7.05-4.11c.54.5 1.25.81 2.04.81 1.66 0 3-1.34 3-3s-1.34-3-3-3-3 1.34-3 3c0 .24.04.47.09.7l-7.05 4.11c-.54-.5-1.25-.81-2.04-.81-1.66 0-3 1.34-3 3s1.34 3 3 3c.79 0 1.5-.31 2.04-.81l7.12 4.16c-.05.21-.08.43-.08.65 0 1.61 1.31 2.92 2.92 2.92 1.61 0 2.92-1.31 2.92-2.92 0-1.61-1.31-2.92-2.92-2.92zM335.5 30h-.79l-.28-.27A6.471 6.471 0 00336 25.5a6.5 6.5 0 10-6.5 6.5c1.61 0 3.09-.59 4.23-1.57l.27.28v.79l5 4.99 1.49-1.49-4.99-5zm-6 0c-2.49 0-4.5-2.01-4.5-4.5s2.01-4.5 4.5-4.5 4.5 2.01 4.5 4.5-2.01 4.5-4.5 4.5zM19 34h18v-2H19v2zm0-5h18v-2H19v2zm0-7v2h18v-2H19z" fill="#020202"/><path fill="#020202" d="M0 56h360v1H0z"/></svg>