<svg width="229" height="83" viewBox="0 0 229 83" fill="none" xmlns="http://www.w3.org/2000/svg"><path d="M1.143 27V14.203H5.08c1.125 0 2.13.255 3.015.765a5.257 5.257 0 012.083 2.162c.498.931.747 1.992.747 3.181v.59c0 1.189-.246 2.247-.739 3.172a5.227 5.227 0 01-2.065 2.154c-.89.51-1.895.767-3.015.773H1.143zm2.636-10.661v8.543h1.275c1.031 0 1.819-.337 2.364-1.01.545-.675.823-1.639.835-2.892v-.677c0-1.301-.27-2.285-.809-2.953-.539-.674-1.327-1.011-2.364-1.011h-1.3zm20.302 4.553c0 1.26-.222 2.364-.668 3.313-.445.95-1.084 1.682-1.916 2.197-.826.516-1.775.774-2.847.774-1.06 0-2.007-.255-2.84-.765-.831-.51-1.476-1.236-1.933-2.18-.457-.949-.688-2.039-.694-3.27v-.632c0-1.26.226-2.367.677-3.322.457-.961 1.098-1.697 1.925-2.206.831-.516 1.78-.774 2.847-.774 1.066 0 2.013.258 2.839.774.832.51 1.474 1.245 1.925 2.206.457.955.685 2.06.685 3.313v.572zm-2.671-.58c0-1.342-.24-2.362-.721-3.06-.48-.696-1.166-1.045-2.057-1.045-.885 0-1.567.346-2.048 1.037-.48.686-.723 1.694-.73 3.024v.624c0 1.306.241 2.32.722 3.04.48.721 1.171 1.082 2.074 1.082.885 0 1.564-.346 2.039-1.037.474-.698.715-1.711.72-3.041v-.625zm13.007 1.142h-5.063v3.428h5.941V27h-8.578V14.203h8.56v2.136h-5.923v3.05h5.063v2.065zm9.781 2.189c0-.498-.176-.88-.527-1.143-.352-.27-.985-.55-1.899-.844-.914-.299-1.637-.591-2.17-.879-1.454-.785-2.18-1.842-2.18-3.172 0-.692.193-1.307.58-1.846.392-.545.952-.97 1.678-1.275.733-.304 1.553-.457 2.461-.457.915 0 1.729.167 2.444.501.715.328 1.268.794 1.66 1.398.4.603.599 1.289.599 2.056h-2.637c0-.585-.185-1.04-.554-1.362-.369-.328-.887-.492-1.556-.492-.644 0-1.145.138-1.502.413-.358.27-.537.627-.537 1.072 0 .416.208.765.624 1.046.422.281 1.04.545 1.855.791 1.5.451 2.593 1.01 3.278 1.679.686.668 1.029 1.5 1.029 2.496 0 1.107-.42 1.977-1.257 2.61-.838.627-1.966.94-3.384.94-.984 0-1.88-.178-2.69-.535-.808-.364-1.426-.859-1.854-1.486-.422-.627-.633-1.353-.633-2.18h2.646c0 1.413.844 2.119 2.531 2.119.627 0 1.116-.126 1.468-.378.351-.258.527-.615.527-1.072zM59.763 27h-2.637l-5.133-8.42V27h-2.636V14.203h2.636l5.142 8.438v-8.438h2.628V27zm3.585-8.868l-1.195-.695c.504-.79.764-1.608.782-2.452V13.5h2.021v1.362c0 .528-.146 1.099-.439 1.714a4.71 4.71 0 01-1.169 1.556zm13.921-1.793h-3.92V27h-2.636V16.339h-3.868v-2.136H77.27v2.136zm14.606 5.431h-5.062V27h-2.637V14.203h8.332v2.136h-5.695v3.305h5.062v2.127zm10.582-.316h-5.063v3.428h5.941V27h-8.578V14.203h8.561v2.136h-5.924v3.05h5.063v2.065zm10.845 0h-5.063v3.428h5.941V27h-8.578V14.203h8.561v2.136h-5.924v3.05h5.063v2.065zm5.782 3.428h5.599V27h-8.236V14.203h2.637v10.679zm15.678 0h5.599V27h-8.235V14.203h2.636v10.679zM145.405 27h-2.637V14.203h2.637V27zm7.18-5.133l-1.371 1.477V27h-2.637V14.203h2.637v5.8l1.16-1.59 3.261-4.21h3.243l-4.544 5.687L159.01 27h-3.138l-3.287-5.133zm15.837-.413h-5.062v3.428h5.941V27h-8.578V14.203h8.561v2.136h-5.924v3.05h5.062v2.065zm15.573 2.91h-4.623L178.493 27h-2.804l4.764-12.797h2.444L187.687 27h-2.804l-.888-2.637zm-3.911-2.137h3.199l-1.608-4.79-1.591 4.79zM189.602 27V14.203h4.482c1.553 0 2.731.299 3.534.897.802.591 1.204 1.461 1.204 2.61 0 .627-.162 1.18-.484 1.661-.322.475-.77.823-1.345 1.046.657.164 1.172.495 1.547.993.381.498.572 1.108.572 1.828 0 1.23-.393 2.162-1.178 2.795-.785.633-1.904.955-3.358.967h-4.974zm2.637-5.572v3.454h2.258c.621 0 1.105-.147 1.451-.44.351-.298.527-.709.527-1.23 0-1.172-.607-1.767-1.819-1.784h-2.417zm0-1.864h1.951c1.33-.023 1.995-.553 1.995-1.59 0-.58-.17-.997-.51-1.248-.334-.258-.864-.387-1.591-.387h-1.845v3.226zM207.02 27V14.203h3.938c1.125 0 2.13.255 3.015.765.89.504 1.584 1.224 2.083 2.162.498.931.747 1.992.747 3.181v.59c0 1.189-.246 2.247-.739 3.172a5.222 5.222 0 01-2.065 2.154c-.891.51-1.896.767-3.015.773h-3.964zm2.637-10.661v8.543h1.275c1.031 0 1.819-.337 2.364-1.01.545-.675.823-1.639.835-2.892v-.677c0-1.301-.27-2.285-.809-2.953-.539-.674-1.327-1.011-2.364-1.011h-1.301zm17.49 5.115h-5.063v3.428h5.942V27h-8.579V14.203h8.561v2.136h-5.924v3.05h5.063v2.065zM5.871 44.827l2.9-9.624h2.936L7.251 48H4.5L.062 35.203h2.926l2.883 9.624zM16.444 48h-2.637V35.203h2.637V48zm5.809-2.118h5.598V48h-8.235V35.203h2.637v10.679zm10.475 0h5.599V48h-8.235V35.203h2.636v10.679zM43.371 48h-2.637V35.203h2.637V48zm10.872-5.546H49.18v3.428h5.941V48h-8.578V35.203h8.56v2.136H49.18v3.05h5.063v2.065zm7.883.861h-2.1V48h-2.638V35.203h4.755c1.512 0 2.678.337 3.498 1.01.82.675 1.23 1.627 1.23 2.857 0 .873-.19 1.603-.57 2.189-.376.58-.947 1.043-1.714 1.389l2.768 5.229V48h-2.83l-2.4-4.685zm-2.1-2.135h2.126c.662 0 1.175-.167 1.538-.501.363-.34.545-.806.545-1.398 0-.603-.173-1.078-.518-1.424-.34-.345-.865-.518-1.574-.518h-2.118v3.84zm16.214 3.463c0-.498-.176-.88-.527-1.143-.352-.27-.984-.55-1.899-.844-.914-.299-1.637-.591-2.17-.879-1.454-.785-2.18-1.842-2.18-3.172 0-.692.193-1.307.58-1.846.392-.545.952-.97 1.679-1.275.732-.304 1.552-.457 2.46-.457.915 0 1.73.167 2.444.501.715.328 1.269.794 1.661 1.398.398.603.598 1.289.598 2.056h-2.637c0-.585-.185-1.04-.554-1.362-.369-.328-.887-.492-1.555-.492-.645 0-1.146.138-1.503.413-.358.27-.537.627-.537 1.072 0 .416.209.765.625 1.046.421.281 1.04.545 1.854.791 1.5.451 2.593 1.01 3.278 1.679.686.668 1.029 1.5 1.029 2.496 0 1.107-.42 1.977-1.257 2.61-.838.627-1.966.94-3.384.94-.984 0-1.88-.178-2.69-.535-.808-.364-1.426-.859-1.854-1.486-.422-.627-.633-1.353-.633-2.18h2.646c0 1.413.844 2.119 2.531 2.119.627 0 1.116-.126 1.468-.378.351-.258.527-.615.527-1.072zM97.016 48H94.38v-5.484h-5.141V48H86.6V35.203h2.637v5.186h5.141v-5.186h2.637V48zm10.414-2.637h-4.623L101.929 48h-2.804l4.763-12.797h2.444L111.122 48h-2.804l-.888-2.637zm-3.911-2.136h3.2l-1.609-4.79-1.591 4.79zm16.154 1.416c0-.498-.176-.88-.527-1.143-.352-.27-.985-.55-1.899-.844-.914-.299-1.638-.591-2.171-.879-1.453-.785-2.179-1.842-2.179-3.172 0-.692.193-1.307.58-1.846.392-.545.952-.97 1.678-1.275.733-.304 1.553-.457 2.461-.457.914 0 1.729.167 2.444.501.714.328 1.268.794 1.661 1.398.398.603.597 1.289.597 2.056h-2.636c0-.585-.185-1.04-.554-1.362-.369-.328-.888-.492-1.556-.492-.644 0-1.145.138-1.503.413-.357.27-.536.627-.536 1.072 0 .416.208.765.624 1.046.422.281 1.04.545 1.855.791 1.5.451 2.593 1.01 3.278 1.679.686.668 1.028 1.5 1.028 2.496 0 1.107-.419 1.977-1.256 2.61-.838.627-1.966.94-3.384.94-.985 0-1.881-.178-2.69-.535-.808-.364-1.426-.859-1.854-1.486-.422-.627-.633-1.353-.633-2.18h2.646c0 1.413.843 2.119 2.531 2.119.627 0 1.116-.126 1.468-.378.351-.258.527-.615.527-1.072zm15.098-1.328h-2.1V48h-2.637V35.203h4.755c1.511 0 2.677.337 3.498 1.01.82.675 1.23 1.627 1.23 2.857 0 .873-.19 1.603-.571 2.189-.375.58-.946 1.043-1.714 1.389l2.769 5.229V48h-2.83l-2.4-4.685zm-2.1-2.135h2.127c.662 0 1.174-.167 1.538-.501.363-.34.545-.806.545-1.398 0-.603-.173-1.078-.519-1.424-.34-.345-.864-.518-1.573-.518h-2.118v3.84zm17.278 1.274h-5.062v3.428h5.941V48h-8.578V35.203h8.56v2.136h-5.923v3.05h5.062v2.065zm12.955-5.115h-3.92V48h-2.637V37.339h-3.867v-2.136h10.424v2.136zM167.939 48h-2.637V35.203h2.637V48zm7.909-4.685h-2.1V48h-2.637V35.203h4.755c1.512 0 2.678.337 3.498 1.01.82.675 1.23 1.627 1.23 2.857 0 .873-.19 1.603-.571 2.189-.375.58-.946 1.043-1.714 1.389l2.769 5.229V48h-2.83l-2.4-4.685zm-2.1-2.135h2.127c.662 0 1.175-.167 1.538-.501.363-.34.545-.806.545-1.398 0-.603-.173-1.078-.519-1.424-.34-.345-.864-.518-1.573-.518h-2.118v3.84zm17.278 1.274h-5.062v3.428h5.941V48h-8.578V35.203h8.561v2.136h-5.924v3.05h5.062v2.065zM194.172 48V35.203h3.938c1.125 0 2.13.255 3.014.765a5.255 5.255 0 012.083 2.162c.498.931.747 1.992.747 3.181v.59c0 1.189-.246 2.246-.738 3.172a5.228 5.228 0 01-2.065 2.154c-.891.51-1.896.767-3.015.773h-3.964zm2.637-10.661v8.543h1.274c1.032 0 1.82-.337 2.365-1.01.545-.675.823-1.639.835-2.892v-.677c0-1.301-.27-2.285-.809-2.953-.539-.674-1.327-1.011-2.364-1.011h-1.301zm9.746 9.413c0-.404.135-.733.405-.984.275-.252.618-.378 1.028-.378.416 0 .759.126 1.028.378.276.252.413.58.413.984 0 .398-.134.724-.404.975-.27.247-.615.37-1.037.37-.416 0-.759-.123-1.028-.37-.27-.251-.405-.577-.405-.975zm0-7.198c0-.405.135-.733.405-.985.275-.252.618-.378 1.028-.378.416 0 .759.126 1.028.378.276.252.413.58.413.985 0 .398-.134.723-.404.975-.27.246-.615.37-1.037.37-.416 0-.759-.124-1.028-.37-.27-.252-.405-.577-.405-.975zM5.871 65.827l2.9-9.624h2.936L7.251 69H4.5L.062 56.203h2.926l2.883 9.624zM16.444 69h-2.637V56.203h2.637V69zm7.91-4.685h-2.101V69h-2.637V56.203h4.755c1.511 0 2.677.337 3.498 1.01.82.675 1.23 1.627 1.23 2.857 0 .873-.19 1.603-.571 2.189-.375.58-.946 1.043-1.714 1.389l2.769 5.229V69h-2.83l-2.4-4.685zm-2.101-2.135h2.127c.662 0 1.174-.167 1.538-.501.363-.34.544-.806.544-1.398 0-.603-.172-1.078-.518-1.424-.34-.345-.864-.518-1.573-.518h-2.118v3.84zm16.803 4.183h-4.623L33.554 69h-2.803l4.763-12.797h2.444L42.748 69h-2.804l-.888-2.637zm-3.91-2.135h3.199l-1.609-4.79-1.59 4.79zm18.095-5.89h-3.92V69h-2.636V58.339h-3.867v-2.136H53.24v2.136zm10.915 5.53l-1.371 1.476V69h-2.637V56.203h2.637v5.8l1.16-1.59 3.26-4.21h3.244l-4.544 5.687L70.581 69h-3.138l-3.287-5.133zM82.709 69h-2.637v-5.484h-5.141V69h-2.637V56.203h2.637v5.186h5.141v-5.186h2.637V69zm13.543-6.108c0 1.26-.222 2.364-.668 3.313-.445.95-1.084 1.682-1.916 2.197-.826.516-1.775.774-2.848.774-1.06 0-2.006-.255-2.838-.765-.832-.51-1.477-1.236-1.934-2.18-.457-.949-.688-2.039-.694-3.27v-.632c0-1.26.225-2.367.677-3.322.456-.961 1.098-1.697 1.924-2.206.832-.516 1.782-.774 2.848-.774 1.066 0 2.013.258 2.839.774.832.51 1.474 1.245 1.925 2.206.457.955.685 2.06.685 3.313v.572zm-2.672-.58c0-1.342-.24-2.362-.72-3.06-.48-.696-1.166-1.045-2.057-1.045-.885 0-1.567.346-2.048 1.037-.48.686-.724 1.694-.73 3.024v.624c0 1.306.24 2.32.721 3.04.48.721 1.172 1.082 2.075 1.082.884 0 1.564-.346 2.039-1.037.474-.698.715-1.711.72-3.042v-.623zm7.945 4.57h5.599V69h-8.236V56.203h2.637v10.679zM112.168 69h-2.637V56.203h2.637V69z" fill="#000"/></svg>