<svg width="229" height="100" viewBox="0 0 229 100" fill="none" xmlns="http://www.w3.org/2000/svg"><path d="M3.946 25H1.31V12.203h2.636V25zm13.579 0h-2.637l-5.133-8.42V25H7.118V12.203h2.637l5.142 8.438v-8.438h2.628V25zm3.022 0V12.203h3.938c1.125 0 2.13.255 3.015.765a5.258 5.258 0 012.083 2.162c.498.931.747 1.992.747 3.181v.59c0 1.189-.246 2.247-.739 3.172a5.228 5.228 0 01-2.065 2.154c-.89.51-1.896.767-3.015.773h-3.964zm2.637-10.661v8.543h1.275c1.03 0 1.819-.337 2.364-1.01.545-.675.823-1.639.835-2.892v-.677c0-1.301-.27-2.285-.809-2.953-.539-.674-1.327-1.011-2.364-1.011h-1.3zM35.778 25h-2.637V12.203h2.637V25zm10.555-2.637H41.71L40.831 25h-2.803l4.763-12.797h2.444L50.024 25H47.22l-.888-2.637zm-3.911-2.136h3.2l-1.61-4.79-1.59 4.79zm18.166-8.024l3.287 9.281 3.27-9.28h3.462V25h-2.645v-3.498l.263-6.038L64.771 25h-1.81l-3.446-9.527.264 6.029V25h-2.637V12.203h3.446zm20.425 10.16H76.39L75.51 25h-2.803l4.764-12.797h2.443L84.704 25H81.9l-.887-2.637zM77.1 20.227h3.2l-1.609-4.79-1.59 4.79zm12.612-2.258l2.663-5.766h2.883l-4.201 8.156V25h-2.68v-4.64l-4.202-8.157h2.892l2.645 5.766zm16.083-5.766l3.287 9.281 3.269-9.28h3.463V25h-2.645v-3.498l.263-6.038L109.979 25h-1.81l-3.446-9.527.264 6.029V25h-2.637V12.203h3.446zM121.642 25h-2.637V12.203h2.637V25zm9.808-3.357c0-.498-.176-.88-.528-1.143-.351-.27-.984-.55-1.898-.844-.914-.299-1.638-.591-2.171-.879-1.453-.785-2.18-1.842-2.18-3.173 0-.69.194-1.306.58-1.845.393-.545.952-.97 1.679-1.275.732-.304 1.553-.457 2.461-.457.914 0 1.728.167 2.443.501.715.328 1.269.794 1.661 1.398.399.603.598 1.289.598 2.056h-2.637c0-.585-.184-1.04-.553-1.362-.369-.328-.888-.492-1.556-.492-.645 0-1.146.138-1.503.413-.357.27-.536.627-.536 1.072 0 .416.208.765.624 1.046.422.281 1.04.545 1.854.791 1.5.451 2.593 1.01 3.279 1.679.685.668 1.028 1.5 1.028 2.496 0 1.107-.419 1.977-1.257 2.61-.838.627-1.966.94-3.384.94-.984 0-1.88-.178-2.689-.535-.809-.364-1.427-.859-1.854-1.486-.422-.627-.633-1.353-.633-2.18h2.645c0 1.413.844 2.119 2.531 2.119.627 0 1.117-.126 1.468-.378.352-.258.528-.615.528-1.072zm11.794 0c0-.498-.176-.88-.528-1.143-.351-.27-.984-.55-1.898-.844-.914-.299-1.638-.591-2.171-.879-1.453-.785-2.18-1.842-2.18-3.173 0-.69.194-1.306.581-1.845.392-.545.952-.97 1.678-1.275.733-.304 1.553-.457 2.461-.457.914 0 1.729.167 2.444.501.714.328 1.268.794 1.661 1.398.398.603.597 1.289.597 2.056h-2.636c0-.585-.185-1.04-.554-1.362-.369-.328-.888-.492-1.556-.492-.644 0-1.145.138-1.503.413-.357.27-.536.627-.536 1.072 0 .416.208.765.624 1.046.422.281 1.04.545 1.855.791 1.5.451 2.592 1.01 3.278 1.679.686.668 1.028 1.5 1.028 2.496 0 1.107-.419 1.977-1.257 2.61-.837.627-1.965.94-3.383.94-.985 0-1.881-.178-2.69-.535-.808-.364-1.427-.859-1.854-1.486-.422-.627-.633-1.353-.633-2.18h2.645c0 1.413.844 2.119 2.532 2.119.627 0 1.116-.126 1.467-.378.352-.258.528-.615.528-1.072zM11.654 39.892c0 1.26-.222 2.364-.668 3.313-.445.95-1.084 1.682-1.916 2.197-.826.516-1.775.774-2.847.774-1.06 0-2.007-.255-2.84-.765-.831-.51-1.476-1.236-1.933-2.18-.457-.949-.688-2.039-.694-3.27v-.632c0-1.26.225-2.367.677-3.322.457-.961 1.098-1.697 1.924-2.206.832-.516 1.782-.774 2.848-.774 1.066 0 2.013.258 2.839.774.832.51 1.474 1.245 1.925 2.206.457.955.685 2.06.685 3.313v.572zm-2.672-.58c0-1.342-.24-2.362-.72-3.06-.48-.696-1.166-1.045-2.057-1.045-.885 0-1.567.346-2.048 1.037-.48.686-.723 1.694-.73 3.024v.624c0 1.306.241 2.32.721 3.04.48.721 1.172 1.082 2.075 1.082.884 0 1.564-.346 2.039-1.037.474-.698.715-1.711.72-3.041v-.624zm7.945 4.57h5.599V46H14.29V33.203h2.637v10.679zm9.79-4.913l2.663-5.766h2.883l-4.2 8.156V46H25.38v-4.64l-4.2-8.157h2.89l2.646 5.766zm10.88-5.766l3.288 9.281 3.27-9.28h3.462V46h-2.645v-3.498l.263-6.038L41.781 46h-1.81l-3.446-9.527.264 6.029V46h-2.637V33.203h3.445zm15.68 8.288V46H50.64V33.203h4.992c.96 0 1.805.176 2.531.527.733.352 1.295.853 1.688 1.503.392.645.589 1.38.589 2.207 0 1.253-.431 2.244-1.292 2.97-.856.72-2.042 1.081-3.56 1.081h-2.312zm0-2.136h2.355c.697 0 1.227-.164 1.59-.492.37-.328.554-.797.554-1.406 0-.627-.184-1.134-.553-1.52-.37-.387-.88-.586-1.53-.598h-2.416v4.017zM65.782 46h-2.637V33.203h2.637V46zM79 41.737c-.1 1.377-.61 2.461-1.53 3.252-.914.791-2.12 1.187-3.62 1.187-1.641 0-2.933-.551-3.877-1.653-.937-1.107-1.406-2.625-1.406-4.552v-.782c0-1.231.217-2.315.65-3.252.434-.938 1.052-1.656 1.855-2.154.809-.504 1.746-.756 2.812-.756 1.477 0 2.666.396 3.569 1.187.902.79 1.424 1.901 1.564 3.33h-2.636c-.065-.825-.296-1.423-.695-1.792-.392-.375-.993-.563-1.802-.563-.879 0-1.538.317-1.977.95-.434.627-.656 1.602-.668 2.926v.967c0 1.383.208 2.394.624 3.033.422.638 1.084.958 1.986.958.815 0 1.421-.185 1.82-.554.404-.375.635-.952.694-1.732H79zm18.148-1.845c0 1.195-.194 2.235-.58 3.12-.387.879-.923 1.585-1.609 2.118l2.127 1.67-1.679 1.485-2.724-2.188a5.77 5.77 0 01-.967.079c-1.06 0-2.007-.255-2.839-.765-.832-.51-1.476-1.236-1.933-2.18-.457-.949-.689-2.039-.695-3.27v-.632c0-1.26.226-2.367.677-3.322.457-.961 1.099-1.697 1.925-2.206.832-.516 1.781-.774 2.847-.774 1.067 0 2.013.258 2.84.774.831.51 1.473 1.245 1.924 2.206.457.955.686 2.06.686 3.313v.572zm-2.672-.58c0-1.342-.24-2.362-.72-3.06-.481-.696-1.167-1.045-2.058-1.045-.884 0-1.567.346-2.047 1.037-.48.686-.724 1.694-.73 3.024v.624c0 1.306.24 2.32.72 3.04.481.721 1.173 1.082 2.075 1.082.885 0 1.564-.346 2.04-1.037.474-.698.714-1.711.72-3.041v-.624zm15.011-6.109v8.429c0 1.4-.44 2.508-1.319 3.322-.873.815-2.068 1.222-3.585 1.222-1.495 0-2.681-.396-3.56-1.187-.879-.79-1.327-1.878-1.345-3.26v-8.526h2.637v8.446c0 .838.199 1.45.598 1.837.404.381.961.572 1.67.572 1.482 0 2.235-.78 2.258-2.338v-8.517h2.646zm9.913 10.16h-4.623L113.899 46h-2.803l4.763-12.797h2.444L123.093 46h-2.804l-.888-2.637zm-3.911-2.136h3.199l-1.608-4.79-1.591 4.79zm12.155 2.655h5.598V46h-8.235V33.203h2.637v10.679zM138.287 46h-2.636V33.203h2.636V46zm10.872-5.23h-5.063V46h-2.636V33.203h8.332v2.136h-5.696v3.305h5.063v2.127zm5.686 5.23h-2.637V33.203h2.637V46zm10.871-5.546h-5.062v3.428h5.941V46h-8.578V33.203h8.56v2.136h-5.923v3.05h5.062v2.065zm7.883.861h-2.1V46h-2.637V33.203h4.755c1.511 0 2.677.337 3.498 1.01.82.675 1.23 1.627 1.23 2.857 0 .873-.19 1.603-.571 2.189-.375.58-.946 1.043-1.714 1.389l2.769 5.229V46h-2.83l-2.4-4.685zm-2.1-2.135h2.126c.663 0 1.175-.167 1.539-.501.363-.34.544-.806.544-1.398 0-.603-.172-1.078-.518-1.424-.34-.345-.864-.518-1.573-.518h-2.118v3.84zM11.109 63.309l1.723-9.106h2.628L12.621 67H9.967l-2.083-8.56L5.8 67H3.146L.308 54.203h2.628l1.731 9.088 2.11-9.088h2.232l2.1 9.106zm17.015-2.417c0 1.26-.222 2.364-.668 3.313-.445.95-1.084 1.682-1.916 2.197-.826.516-1.775.774-2.847.774-1.06 0-2.007-.255-2.84-.765-.831-.51-1.476-1.236-1.933-2.18-.457-.949-.688-2.039-.694-3.27v-.632c0-1.26.225-2.367.677-3.322.457-.961 1.098-1.697 1.924-2.206.832-.516 1.782-.774 2.848-.774 1.066 0 2.013.258 2.839.774.832.51 1.474 1.245 1.925 2.206.457.955.685 2.06.685 3.313v.572zm-2.672-.58c0-1.342-.24-2.362-.72-3.06-.48-.696-1.166-1.045-2.057-1.045-.885 0-1.567.346-2.048 1.037-.48.686-.723 1.694-.73 3.024v.624c0 1.306.241 2.32.721 3.04.48.721 1.172 1.082 2.075 1.082.884 0 1.564-.346 2.039-1.037.474-.698.715-1.711.72-3.041v-.624zm10.046 2.003h-2.101V67H30.76V54.203h4.755c1.512 0 2.678.337 3.498 1.01.82.675 1.23 1.627 1.23 2.857 0 .873-.19 1.603-.57 2.189-.376.58-.947 1.043-1.714 1.389l2.768 5.229V67h-2.83l-2.4-4.685zm-2.101-2.135h2.127c.662 0 1.175-.167 1.538-.501.363-.34.545-.806.545-1.398 0-.603-.173-1.078-.519-1.424-.34-.345-.864-.518-1.573-.518h-2.118v3.84zm12.216 4.702h5.599V67h-8.236V54.203h2.637v10.679zM53.453 67V54.203h3.937c1.125 0 2.13.255 3.014.765a5.257 5.257 0 012.083 2.162c.498.931.747 1.992.747 3.181v.59c0 1.189-.246 2.246-.738 3.172a5.228 5.228 0 01-2.065 2.154c-.89.51-1.896.767-3.015.773h-3.964zm2.636-10.661v8.543h1.274c1.032 0 1.82-.337 2.365-1.01.545-.675.823-1.639.835-2.892v-.677c0-1.301-.27-2.285-.809-2.953-.539-.674-1.327-1.011-2.364-1.011h-1.301zm19.73 5.976h-2.1V67h-2.637V54.203h4.755c1.511 0 2.677.337 3.498 1.01.82.675 1.23 1.627 1.23 2.857 0 .873-.19 1.603-.571 2.189-.375.58-.947 1.043-1.714 1.389l2.769 5.229V67h-2.83l-2.4-4.685zm-2.1-2.135h2.126c.662 0 1.175-.167 1.538-.501.364-.34.545-.806.545-1.398 0-.603-.172-1.078-.518-1.424-.34-.345-.864-.518-1.573-.518h-2.119v3.84zm17.278 1.274h-5.063v3.428h5.942V67h-8.578V54.203h8.56v2.136h-5.924v3.05h5.063v2.065zm5.782 3.428h5.599V67h-8.235V54.203h2.636v10.679zm15.24-.519h-4.623L106.517 67h-2.804l4.764-12.797h2.443L115.71 67h-2.803l-.888-2.637zm-3.911-2.136h3.199l-1.608-4.79-1.591 4.79zm12.612-2.258l2.663-5.766h2.882l-4.201 8.156V67h-2.68v-4.64l-4.202-8.157h2.892l2.646 5.766zm13.929 3.674c0-.498-.175-.88-.527-1.143-.351-.27-.984-.55-1.898-.844-.914-.299-1.638-.591-2.171-.879-1.453-.785-2.18-1.842-2.18-3.172 0-.692.193-1.307.58-1.846.393-.545.952-.97 1.679-1.275.732-.304 1.553-.457 2.461-.457.914 0 1.728.167 2.443.501.715.328 1.269.794 1.661 1.398.399.603.598 1.289.598 2.056h-2.637c0-.585-.184-1.04-.553-1.362-.37-.328-.888-.492-1.556-.492-.645 0-1.146.138-1.503.413-.357.27-.536.627-.536 1.072 0 .416.208.765.624 1.046.422.281 1.04.545 1.854.791 1.5.451 2.593 1.01 3.279 1.679.685.668 1.028 1.5 1.028 2.496 0 1.107-.419 1.978-1.257 2.61-.838.627-1.966.94-3.384.94-.984 0-1.88-.178-2.689-.535-.809-.364-1.427-.859-1.855-1.486-.421-.627-.632-1.353-.632-2.18h2.645c0 1.413.844 2.119 2.531 2.119.627 0 1.117-.126 1.468-.378.352-.258.527-.615.527-1.072zM147.814 67h-2.637V54.203h2.637V67zm13.579 0h-2.637l-5.133-8.42V67h-2.637V54.203h2.637l5.142 8.438v-8.438h2.628V67zM3.779 83.491V88H1.143V75.203h4.992c.96 0 1.804.176 2.531.528.732.351 1.295.852 1.688 1.502.392.645.588 1.38.588 2.206 0 1.254-.43 2.245-1.292 2.971-.855.72-2.042 1.081-3.56 1.081H3.78zm0-2.135h2.356c.697 0 1.227-.165 1.59-.493.37-.328.554-.797.554-1.406 0-.627-.184-1.134-.553-1.52-.37-.387-.88-.586-1.53-.598H3.78v4.017zm20.214.536c0 1.26-.222 2.364-.667 3.313-.446.95-1.085 1.682-1.916 2.197-.827.516-1.776.774-2.848.774-1.06 0-2.007-.255-2.84-.765-.831-.51-1.476-1.236-1.933-2.18-.457-.949-.688-2.039-.694-3.27v-.632c0-1.26.226-2.367.677-3.322.457-.961 1.098-1.697 1.925-2.206.832-.516 1.78-.774 2.847-.774s2.013.258 2.84.774c.831.51 1.473 1.245 1.924 2.206.457.955.685 2.06.685 3.313v.572zm-2.671-.58c0-1.342-.24-2.362-.721-3.06-.48-.696-1.166-1.045-2.057-1.045-.884 0-1.567.346-2.048 1.037-.48.686-.723 1.694-.73 3.024v.624c0 1.306.241 2.32.722 3.04.48.721 1.172 1.082 2.074 1.082.885 0 1.564-.346 2.039-1.037.475-.698.715-1.711.72-3.041v-.625zm7.944 4.57h5.599V88h-8.236V75.203h2.637v10.679zm15.24-.519h-4.623L39.003 88H36.2l4.764-12.797h2.443L48.197 88h-2.804l-.887-2.637zm-3.911-2.135h3.199l-1.609-4.79-1.59 4.79zM60.519 88h-2.637l-5.133-8.42V88h-2.637V75.203h2.637l5.142 8.438v-8.438h2.628V88zm3.022 0V75.203h3.938c1.125 0 2.13.255 3.015.765a5.258 5.258 0 012.083 2.162c.498.931.747 1.992.747 3.181v.59c0 1.189-.246 2.246-.739 3.172a5.228 5.228 0 01-2.065 2.154c-.89.51-1.896.767-3.015.773h-3.964zm2.637-10.661v8.543h1.275c1.03 0 1.819-.337 2.364-1.01.545-.675.823-1.639.835-2.892v-.677c0-1.301-.27-2.285-.809-2.953-.539-.674-1.327-1.011-2.364-1.011h-1.3z" fill="#000"/></svg>