<svg width="145" height="52" viewBox="0 0 145 52" fill="none" xmlns="http://www.w3.org/2000/svg"><rect x="1" y="1" width="143" height="50" rx="5" fill="#C80E0E" stroke="#C80E0E" stroke-width="2"/><path d="M46.75 28.827l2.9-9.624h2.936L48.13 32h-2.751L40.94 19.203h2.927l2.883 9.624zm15.468-2.373h-5.063v3.428h5.942V32h-8.578V19.203h8.56v2.136h-5.924v3.05h5.063v2.065zm7.883.861H68V32h-2.637V19.203h4.754c1.512 0 2.678.337 3.499 1.01.82.675 1.23 1.627 1.23 2.857 0 .873-.19 1.603-.571 2.189-.375.58-.947 1.043-1.714 1.389l2.768 5.229V32H72.5l-2.4-4.685zM68 25.18h2.126c.662 0 1.175-.167 1.538-.501.364-.34.545-.806.545-1.398 0-.603-.172-1.078-.518-1.424-.34-.345-.864-.518-1.573-.518H68v3.84zM80.382 32h-2.636V19.203h2.636V32zm10.872-5.23h-5.063V32h-2.636V19.203h8.332v2.136h-5.696v3.305h5.063v2.127zm7.294-1.801l2.663-5.766h2.883l-4.201 8.156V32h-2.68v-4.64l-4.202-8.157h2.891l2.646 5.766zM40.879 33.758h63.242v.879H40.879v-.88z" fill="#fff"/><a><path fill="none" d="M11.365-.047h63.243v21.094H11.365z"/></a></svg>