<svg width="241" height="62" viewBox="0 0 241 62" fill="none" xmlns="http://www.w3.org/2000/svg"><path d="M14.08 27V16.336h3.28c.938 0 1.775.212 2.513.637.742.42 1.32 1.02 1.735 1.802.415.776.623 1.66.623 2.651v.491c0 .991-.205 1.873-.615 2.644a4.356 4.356 0 01-1.721 1.794c-.743.425-1.58.64-2.513.645H14.08zm2.196-8.884v7.119h1.062c.86 0 1.517-.28 1.97-.842.455-.562.687-1.365.696-2.41v-.564c0-1.084-.224-1.904-.673-2.461-.45-.561-1.106-.842-1.97-.842h-1.085zM25.93 27h-2.124v-7.925h2.124V27zm-2.249-9.976c0-.317.105-.578.315-.783.215-.205.506-.308.872-.308.361 0 .65.103.864.308.215.205.322.466.322.783 0 .323-.11.586-.33.791-.214.205-.5.308-.856.308-.357 0-.645-.103-.865-.308a1.045 1.045 0 01-.322-.79zm3.67 5.955c0-1.235.276-2.22.827-2.952.557-.732 1.316-1.098 2.278-1.098.771 0 1.409.288 1.912.864V15.75h2.124V27H32.58l-.102-.842c-.528.659-1.207.988-2.037.988-.932 0-1.682-.366-2.248-1.098-.562-.737-.842-1.76-.842-3.069zm2.116.154c0 .742.13 1.31.389 1.706.258.396.634.594 1.127.594.655 0 1.116-.276 1.385-.828v-3.128c-.264-.551-.72-.827-1.37-.827-1.02 0-1.53.828-1.53 2.483zm8.614-4.058l.066.916c.566-.708 1.325-1.062 2.277-1.062.84 0 1.465.246 1.875.74.41.493.62 1.23.63 2.211V27h-2.117v-5.068c0-.45-.097-.774-.292-.974-.196-.206-.52-.308-.975-.308-.595 0-1.042.254-1.34.762V27h-2.117v-7.925h1.993zm6.188.535l-.996-.579c.42-.659.638-1.34.652-2.043V15.75h1.685v1.135c0 .44-.122.916-.366 1.428a3.927 3.927 0 01-.974 1.297zm5.37-2.483v1.948h1.354v1.553h-1.355v3.955c0 .293.056.503.169.63.112.127.327.19.644.19.234 0 .442-.017.623-.05v1.603a4.36 4.36 0 01-1.282.19c-1.484 0-2.241-.749-2.27-2.248v-4.27h-1.158v-1.553h1.158v-1.948h2.116zM60.36 21.06a5.743 5.743 0 00-.762-.058c-.8 0-1.326.27-1.575.813V27h-2.116v-7.925h2l.058.945c.425-.727 1.013-1.091 1.765-1.091.234 0 .454.031.66.095l-.03 2.036zm4.526 6.087c-1.162 0-2.11-.357-2.842-1.07-.727-.713-1.09-1.662-1.09-2.849v-.205c0-.796.153-1.506.46-2.131.308-.63.743-1.114 1.304-1.45.567-.342 1.211-.513 1.934-.513 1.084 0 1.936.341 2.556 1.025.625.684.938 1.653.938 2.908v.864H63.1c.069.518.273.933.615 1.245.347.313.784.469 1.311.469.816 0 1.453-.296 1.912-.886l1.04 1.164c-.317.45-.747.801-1.289 1.055a4.264 4.264 0 01-1.802.373zm-.242-6.504c-.42 0-.761.141-1.025.424-.259.284-.425.689-.498 1.216h2.944v-.168c-.01-.469-.136-.83-.38-1.084-.245-.259-.591-.388-1.04-.388zm8.006 4.797c.39 0 .708-.108.952-.322.244-.215.371-.5.38-.857h1.986a2.733 2.733 0 01-.44 1.48 2.93 2.93 0 01-1.186 1.04 3.71 3.71 0 01-1.656.366c-1.132 0-2.026-.36-2.68-1.077-.654-.723-.982-1.719-.982-2.989v-.139c0-1.22.325-2.194.974-2.922.65-.727 1.541-1.091 2.674-1.091.991 0 1.784.283 2.38.85.6.56.906 1.31.916 2.248h-1.985c-.01-.41-.137-.742-.381-.996-.244-.259-.566-.388-.967-.388-.493 0-.867.18-1.12.542-.25.356-.374.937-.374 1.743v.22c0 .815.125 1.4.374 1.757s.627.535 1.135.535zm8.174 1.706c-1.162 0-2.11-.356-2.842-1.069-.728-.713-1.091-1.662-1.091-2.849v-.205c0-.796.153-1.506.461-2.131.308-.63.742-1.114 1.304-1.45.566-.342 1.21-.513 1.933-.513 1.084 0 1.936.341 2.556 1.025.626.684.938 1.653.938 2.908v.864h-5.046c.068.518.273.933.615 1.245.346.313.783.469 1.31.469.816 0 1.454-.296 1.913-.886l1.04 1.164c-.318.45-.748.801-1.29 1.055a4.264 4.264 0 01-1.801.373zm-.242-6.503c-.42 0-.762.141-1.025.424-.26.284-.425.689-.498 1.216h2.944v-.168c-.01-.469-.137-.83-.381-1.084-.244-.259-.59-.388-1.04-.388zM87.526 27h-2.124v-7.925h2.124V27zm-2.248-9.976c0-.317.105-.578.315-.783.215-.205.505-.308.871-.308.362 0 .65.103.865.308.215.205.322.466.322.783 0 .323-.11.586-.33.791-.215.205-.5.308-.857.308-.356 0-.644-.103-.864-.308a1.045 1.045 0 01-.322-.79zm6.965 7.39l1.472-5.339h2.212L93.254 27h-2.022l-2.673-7.925h2.212l1.472 5.34zm8.167 2.732c-1.162 0-2.11-.356-2.842-1.069-.728-.713-1.091-1.662-1.091-2.849v-.205c0-.796.153-1.506.461-2.131.308-.63.742-1.114 1.304-1.45.566-.342 1.21-.513 1.933-.513 1.084 0 1.936.341 2.556 1.025.625.684.938 1.653.938 2.908v.864h-5.046c.068.518.273.933.615 1.245.347.313.783.469 1.311.469.815 0 1.452-.296 1.911-.886l1.04 1.164c-.317.45-.747.801-1.289 1.055a4.26 4.26 0 01-1.801.373zm-.242-6.503c-.42 0-.762.141-1.025.424-.26.284-.425.689-.499 1.216h2.945v-.168c-.01-.469-.137-.83-.381-1.084-.244-.259-.591-.388-1.04-.388zm11.411 3.772l1.472-5.34h2.212L112.59 27h-2.022l-2.673-7.925h2.212l1.472 5.34zm8.167 2.732c-1.163 0-2.11-.357-2.842-1.07-.728-.713-1.092-1.662-1.092-2.849v-.205c0-.796.154-1.506.462-2.131.308-.63.742-1.114 1.304-1.45.566-.342 1.211-.513 1.933-.513 1.084 0 1.936.341 2.556 1.025.625.684.938 1.653.938 2.908v.864h-5.047c.069.518.274.933.616 1.245.346.313.783.469 1.311.469.815 0 1.452-.296 1.911-.886l1.04 1.164c-.317.45-.747.801-1.289 1.055a4.26 4.26 0 01-1.801.373zm-.242-6.504c-.42 0-.762.141-1.025.424-.259.284-.425.689-.499 1.216h2.945v-.168c-.01-.469-.137-.83-.381-1.084-.244-.259-.591-.388-1.04-.388zm9.163.417a5.756 5.756 0 00-.762-.058c-.801 0-1.326.27-1.575.813V27h-2.117v-7.925h2l.058.945c.425-.727 1.014-1.091 1.766-1.091.234 0 .454.031.659.095l-.029 2.036zm3.259 5.94h-2.124v-7.925h2.124V27zm-2.249-9.976c0-.317.105-.578.315-.783.215-.205.506-.308.872-.308.361 0 .649.103.864.308.215.205.322.466.322.783 0 .323-.11.586-.329.791-.215.205-.501.308-.857.308-.357 0-.645-.103-.864-.308a1.045 1.045 0 01-.323-.79zM134.189 27v-6.372h-1.179v-1.553h1.179v-.366c.01-.996.315-1.763.915-2.3.606-.542 1.458-.813 2.557-.813.659 0 1.46.144 2.402.432l-.308 1.75a8.736 8.736 0 00-1.113-.27 5.183 5.183 0 00-.85-.066c-.986 0-1.479.437-1.479 1.31v.323h1.56v1.553h-1.56V27h-2.124zm6.863 0h-2.124v-7.925h2.124V27zm5.046-1.56c.391 0 .708-.108.952-.322.244-.215.371-.5.381-.857h1.985a2.734 2.734 0 01-.439 1.48 2.937 2.937 0 01-1.187 1.04 3.71 3.71 0 01-1.655.366c-1.133 0-2.027-.36-2.681-1.077-.654-.723-.981-1.719-.981-2.989v-.139c0-1.22.324-2.194.974-2.922.649-.727 1.54-1.091 2.673-1.091.991 0 1.785.283 2.38.85.601.56.906 1.31.916 2.248h-1.985c-.01-.41-.137-.742-.381-.996-.244-.259-.566-.388-.967-.388-.493 0-.866.18-1.12.542-.249.356-.374.937-.374 1.743v.22c0 .815.125 1.4.374 1.757s.627.535 1.135.535zm9.119 1.56a2.341 2.341 0 01-.213-.71c-.512.57-1.179.857-1.999.857-.776 0-1.421-.225-1.934-.674a2.17 2.17 0 01-.761-1.7c0-.84.31-1.484.93-1.933.625-.45 1.526-.676 2.702-.681h.975v-.454c0-.367-.096-.66-.286-.88-.186-.219-.481-.329-.886-.329-.357 0-.638.085-.843.256-.2.171-.3.406-.3.704h-2.117c0-.46.142-.884.425-1.275.283-.39.684-.696 1.201-.915.518-.225 1.099-.337 1.743-.337.977 0 1.751.246 2.322.74.576.488.865 1.176.865 2.065v3.435c.004.752.109 1.32.314 1.706V27h-2.138zm-1.751-1.472c.313 0 .601-.069.865-.205.263-.142.459-.33.586-.564v-1.363h-.792c-1.059 0-1.623.367-1.691 1.1l-.008.124c0 .263.093.48.279.651.185.171.439.257.761.257zm7.735-8.401v1.948h1.355v1.553h-1.355v3.955c0 .293.056.503.168.63.112.127.327.19.645.19.234 0 .442-.017.622-.05v1.603c-.415.127-.842.19-1.282.19-1.484 0-2.241-.749-2.27-2.248v-4.27h-1.157v-1.553h1.157v-1.948h2.117zM165.969 27h-2.124v-7.925h2.124V27zm-2.249-9.976c0-.317.105-.578.315-.783.215-.205.506-.308.872-.308.361 0 .649.103.864.308.215.205.322.466.322.783 0 .323-.11.586-.329.791-.215.205-.501.308-.857.308-.357 0-.645-.103-.865-.308a1.048 1.048 0 01-.322-.79zm3.67 5.94c0-.786.151-1.486.454-2.102a3.328 3.328 0 011.303-1.428c.572-.337 1.233-.505 1.985-.505 1.07 0 1.941.327 2.615.981.679.654 1.057 1.543 1.135 2.666l.015.542c0 1.216-.339 2.193-1.018 2.93-.679.732-1.589 1.099-2.732 1.099-1.143 0-2.056-.367-2.739-1.1-.679-.732-1.018-1.728-1.018-2.987v-.096zm2.116.154c0 .752.142 1.328.425 1.729.283.395.689.593 1.216.593.513 0 .913-.195 1.201-.586.288-.395.432-1.025.432-1.89 0-.737-.144-1.308-.432-1.713-.288-.406-.693-.608-1.216-.608-.517 0-.918.202-1.201.607-.283.4-.425 1.023-.425 1.868zm8.643-4.043l.066.916c.566-.708 1.326-1.062 2.278-1.062.84 0 1.465.246 1.875.74.41.493.62 1.23.63 2.211V27h-2.117v-5.068c0-.45-.098-.774-.293-.974-.195-.206-.52-.308-.974-.308-.596 0-1.043.254-1.341.762V27h-2.116v-7.925h1.992zm13.491 6.365c.391 0 .708-.108.952-.322.244-.215.371-.5.381-.857h1.985a2.734 2.734 0 01-.439 1.48 2.937 2.937 0 01-1.187 1.04 3.71 3.71 0 01-1.655.366c-1.133 0-2.027-.36-2.681-1.077-.654-.723-.981-1.719-.981-2.989v-.139c0-1.22.324-2.194.974-2.922.649-.727 1.54-1.091 2.673-1.091.991 0 1.785.283 2.38.85.601.56.906 1.31.916 2.248h-1.985c-.01-.41-.137-.742-.381-.996-.244-.259-.566-.388-.967-.388-.493 0-.866.18-1.12.542-.249.356-.374.937-.374 1.743v.22c0 .815.125 1.4.374 1.757s.627.535 1.135.535zm4.197-2.476c0-.786.151-1.486.454-2.102a3.33 3.33 0 011.304-1.428c.571-.337 1.233-.505 1.985-.505 1.069 0 1.941.327 2.614.981.679.654 1.057 1.543 1.136 2.666l.014.542c0 1.216-.339 2.193-1.018 2.93-.679.732-1.589 1.099-2.732 1.099-1.142 0-2.055-.367-2.739-1.1-.679-.732-1.018-1.728-1.018-2.987v-.096zm2.117.154c0 .752.141 1.328.424 1.729.284.395.689.593 1.216.593.513 0 .913-.195 1.201-.586.288-.395.433-1.025.433-1.89 0-.737-.145-1.308-.433-1.713-.288-.406-.693-.608-1.215-.608-.518 0-.918.202-1.202.607-.283.4-.424 1.023-.424 1.868zm6.364-.139c0-1.235.276-2.22.828-2.952.557-.732 1.316-1.098 2.278-1.098.771 0 1.409.288 1.911.864V15.75h2.124V27h-1.911l-.103-.842c-.527.659-1.206.988-2.036.988-.932 0-1.682-.366-2.248-1.098-.562-.737-.843-1.76-.843-3.069zm2.117.154c0 .742.129 1.31.388 1.706.259.396.635.594 1.128.594.654 0 1.116-.276 1.384-.828v-3.128c-.263-.551-.72-.827-1.369-.827-1.021 0-1.531.828-1.531 2.483zm10.313 4.014c-1.163 0-2.11-.357-2.842-1.07-.728-.713-1.092-1.662-1.092-2.849v-.205c0-.796.154-1.506.462-2.131a3.36 3.36 0 011.304-1.45c.566-.342 1.211-.513 1.933-.513 1.084 0 1.936.341 2.556 1.025.625.684.938 1.653.938 2.908v.864h-5.047c.069.518.274.933.616 1.245.346.313.783.469 1.311.469.815 0 1.452-.296 1.911-.886l1.04 1.164c-.317.45-.747.801-1.289 1.055a4.26 4.26 0 01-1.801.373zm-.242-6.504c-.42 0-.762.141-1.026.424-.258.284-.424.689-.498 1.216h2.945v-.168c-.01-.469-.137-.83-.381-1.084-.244-.259-.591-.388-1.04-.388zm6.438 3.083c0-.683.083-1.228.249-1.633.166-.405.469-.803.908-1.194.444-.396.74-.715.886-.96.147-.249.22-.51.22-.783 0-.825-.381-1.238-1.143-1.238-.361 0-.651.112-.871.337-.215.22-.327.525-.337.915h-2.124c.01-.932.31-1.662.901-2.19.596-.527 1.406-.79 2.431-.79 1.036 0 1.839.25 2.41.754.571.498.857 1.204.857 2.117 0 .415-.093.808-.278 1.179-.186.366-.511.774-.974 1.223l-.594.564a2.01 2.01 0 00-.637 1.252l-.029.447h-1.875zm-.213 2.249c0-.328.11-.596.33-.806.225-.215.51-.322.857-.322s.63.107.85.322c.224.21.336.479.336.806 0 .322-.109.588-.329.798-.215.21-.501.315-.857.315s-.645-.105-.864-.315a1.069 1.069 0 01-.323-.798z" fill="#fff"/><path d="M88.473 43.315h-2.1V48h-2.638V35.203h4.755c1.512 0 2.678.337 3.498 1.01.82.675 1.23 1.627 1.23 2.857 0 .873-.19 1.603-.57 2.189-.376.58-.947 1.043-1.714 1.389l2.768 5.229V48h-2.83l-2.4-4.685zm-2.1-2.135h2.126c.662 0 1.175-.167 1.538-.501.363-.34.545-.806.545-1.398 0-.603-.173-1.078-.518-1.424-.34-.345-.865-.518-1.574-.518h-2.118v3.84zm13.068 6.996c-1.394 0-2.53-.428-3.41-1.283-.873-.856-1.31-1.995-1.31-3.42v-.245c0-.956.185-1.808.554-2.558.37-.756.891-1.336 1.565-1.74.68-.41 1.453-.615 2.32-.615 1.301 0 2.323.41 3.068 1.23.75.82 1.125 1.983 1.125 3.49v1.036h-6.056c.082.621.328 1.12.738 1.494.416.375.94.563 1.573.563.979 0 1.744-.355 2.294-1.063l1.248 1.397c-.38.539-.896.96-1.546 1.265-.651.3-1.372.449-2.163.449zm-.29-7.805c-.504 0-.914.17-1.23.51-.31.34-.51.826-.598 1.459h3.533v-.202c-.011-.563-.164-.996-.457-1.301-.293-.31-.709-.466-1.248-.466zm10.802 5.001c0-.31-.155-.554-.466-.73-.304-.181-.797-.342-1.476-.483-2.262-.474-3.393-1.435-3.393-2.883 0-.843.349-1.547 1.046-2.109.703-.568 1.62-.852 2.751-.852 1.207 0 2.171.284 2.892.852.726.568 1.089 1.307 1.089 2.215h-2.54c0-.363-.117-.662-.351-.897-.234-.24-.601-.36-1.099-.36-.427 0-.759.097-.993.29a.916.916 0 00-.351.738c0 .282.131.51.395.686.27.17.721.32 1.354.448.632.123 1.166.264 1.599.422 1.342.492 2.013 1.345 2.013 2.558 0 .867-.372 1.57-1.116 2.109-.745.533-1.705.8-2.883.8-.797 0-1.506-.14-2.127-.422-.615-.287-1.099-.677-1.45-1.169a2.733 2.733 0 01-.528-1.608h2.409c.023.45.19.796.501 1.037.31.24.726.36 1.248.36.486 0 .852-.09 1.098-.272a.87.87 0 00.378-.73zm8.49 2.804c-1.394 0-2.531-.428-3.41-1.283-.873-.856-1.309-1.995-1.309-3.42v-.245c0-.956.184-1.808.553-2.558.369-.756.891-1.336 1.565-1.74.679-.41 1.453-.615 2.32-.615 1.301 0 2.323.41 3.067 1.23.75.82 1.125 1.983 1.125 3.49v1.036h-6.055c.082.621.328 1.12.738 1.494.416.375.941.563 1.573.563.979 0 1.744-.355 2.294-1.063l1.248 1.397c-.381.539-.896.96-1.547 1.265-.65.3-1.371.449-2.162.449zm-.29-7.805c-.504 0-.914.17-1.23.51-.311.34-.51.826-.598 1.459h3.533v-.202c-.011-.563-.164-.996-.457-1.301-.293-.31-.709-.466-1.248-.466zm7.99-1.88l.079 1.098c.679-.85 1.59-1.274 2.733-1.274 1.008 0 1.758.295 2.25.887.492.592.744 1.477.756 2.654V48h-2.54v-6.082c0-.54-.117-.929-.352-1.169-.234-.246-.624-.37-1.169-.37-.714 0-1.251.306-1.608.915V48h-2.54v-9.51h2.391zm7.356 4.684c0-1.483.331-2.663.993-3.542.668-.88 1.579-1.319 2.734-1.319.925 0 1.69.346 2.294 1.038V34.5h2.548V48h-2.294l-.123-1.01c-.632.79-1.447 1.186-2.443 1.186-1.119 0-2.019-.44-2.698-1.319-.674-.884-1.011-2.112-1.011-3.682zm2.54.184c0 .891.155 1.574.466 2.048.31.475.762.712 1.353.712.786 0 1.339-.33 1.662-.993v-3.753c-.317-.662-.865-.993-1.644-.993-1.225 0-1.837.993-1.837 2.98zM151.2 48h-2.549v-9.51h2.549V48zm-2.698-11.97c0-.382.126-.695.378-.941.258-.246.606-.37 1.046-.37.433 0 .779.124 1.037.37.258.246.387.56.387.94 0 .387-.132.703-.396.95-.258.246-.6.369-1.028.369-.428 0-.774-.123-1.037-.37-.258-.246-.387-.562-.387-.949zm7.84.122v2.338h1.626v1.863h-1.626V45.1c0 .351.067.603.202.755.135.153.393.229.773.229.282 0 .531-.02.747-.062v1.925a5.226 5.226 0 01-1.538.229c-1.781 0-2.689-.9-2.724-2.699v-5.123h-1.389V38.49h1.389v-2.338h2.54z" fill="#C80E0E"/></svg>