<svg width="88" height="52" viewBox="0 0 88 52" fill="none" xmlns="http://www.w3.org/2000/svg"><path d="M0 4a4 4 0 014-4h80a4 4 0 014 4v44a4 4 0 01-4 4H4a4 4 0 01-4-4V4z" fill="#031841"/><path d="M12.84 21v-7.11h2.555c.914 0 1.61.168 2.085.504.478.335.717.822.717 1.46 0 .367-.084.681-.254.942a1.48 1.48 0 01-.747.576c.371.098.656.28.855.547.198.267.298.592.298.976 0 .697-.222 1.221-.664 1.573-.44.348-1.093.526-1.958.532H12.84zm1.715-3.023v1.705h1.123c.309 0 .547-.07.713-.21.166-.144.249-.344.249-.6 0-.593-.295-.891-.884-.895h-1.201zm0-1.122h.893c.375-.004.642-.072.801-.206.16-.133.24-.33.24-.59 0-.3-.087-.515-.26-.645-.172-.133-.45-.2-.834-.2h-.84v1.64zm8.633 1.635h-.928V21h-1.714v-7.11h2.798c.843 0 1.502.188 1.977.562.476.374.713.903.713 1.587 0 .495-.1.905-.303 1.23-.198.326-.51.59-.937.792l1.484 2.866V21h-1.836l-1.255-2.51zm-.928-1.323h1.084c.325 0 .57-.085.732-.254.166-.172.25-.412.25-.718s-.084-.545-.25-.718c-.166-.175-.41-.263-.732-.263H22.26v1.953zm10.468.82h-2.695v1.695h3.184V21h-4.898v-7.11h4.908v1.324h-3.194v1.499h2.695v1.274zm6.475 1.685h-2.349L36.445 21h-1.83l2.607-7.11h1.611L41.459 21h-1.84l-.416-1.328zm-1.938-1.323h1.528l-.767-2.466-.761 2.466zm8.383.005l-.703.771V21h-1.714v-7.11h1.714v3.135l.596-.903 1.533-2.231h2.12l-2.403 3.144L49.193 21h-2.03l-1.515-2.646zM52.704 21h-1.709v-7.11h1.71V21zm8.379 0h-1.704l-2.52-4.424V21h-1.714v-7.11h1.714l2.515 4.424v-4.423h1.709V21zm8.154-.879c-.263.293-.65.53-1.157.708a4.992 4.992 0 01-1.67.269c-.93 0-1.675-.285-2.231-.855-.557-.57-.855-1.362-.894-2.378l-.005-.615c0-.7.124-1.31.371-1.831.248-.524.601-.926 1.06-1.206.462-.283.996-.425 1.602-.425.885 0 1.572.204 2.06.61.492.404.778 1.008.86 1.812h-1.651c-.059-.397-.185-.68-.38-.85-.196-.169-.473-.254-.83-.254-.43 0-.763.183-.997.547-.234.365-.353.886-.356 1.563v.43c0 .71.12 1.243.36 1.601.245.355.627.532 1.148.532.446 0 .778-.099.996-.298v-1.103h-1.191V17.2h2.905v2.92zM33.686 37H31.98l-2.52-4.424V37h-1.713v-7.11h1.714l2.515 4.425V29.89h1.708V37zm6.743-3.013h-2.696v1.695h3.184V37h-4.898v-7.11h4.908v1.324h-3.194v1.499h2.696v1.274zm7.944.362l.816-4.458h1.699L49.378 37h-1.776l-.953-4.053L45.717 37h-1.773l-1.513-7.11h1.704l.815 4.459.977-4.458h1.455l.991 4.458zm8.1.761c0-.25-.089-.446-.268-.586-.176-.14-.487-.284-.932-.434a8.976 8.976 0 01-1.094-.435c-.922-.452-1.382-1.074-1.382-1.865 0-.394.114-.74.342-1.04.23-.303.556-.537.976-.703.42-.17.892-.254 1.416-.254.511 0 .969.091 1.372.273.407.183.723.443.948.782.224.335.337.72.337 1.152h-1.71c0-.29-.089-.514-.268-.674-.176-.16-.415-.24-.718-.24-.306 0-.548.07-.727.206a.617.617 0 00-.264.513c0 .182.098.348.293.498.195.146.539.3 1.03.459a6.22 6.22 0 011.211.508c.768.442 1.153 1.053 1.153 1.83 0 .622-.235 1.11-.704 1.465-.468.355-1.111.533-1.928.533a3.87 3.87 0 01-1.568-.308c-.465-.208-.817-.492-1.054-.85a2.237 2.237 0 01-.352-1.245h1.719c0 .381.097.663.293.845.198.18.519.269.962.269.283 0 .506-.06.669-.181a.609.609 0 00.249-.518zM12.304 21.977h57.392v.488H12.304v-.488zm11.167 16h35.058v.488H23.471v-.488z" fill="#fff"/><a><path fill="none" d="M.304 2.141h57.393V13.86H.304z"/></a><a><path fill="none" d="M11.471 18.141H46.53V29.86H11.471z"/></a></svg>