<svg width="88" height="52" viewBox="0 0 88 52" fill="none" xmlns="http://www.w3.org/2000/svg"><path d="M0 4a4 4 0 014-4h80a4 4 0 014 4v44a4 4 0 01-4 4H4a4 4 0 01-4-4V4z" fill="#031841"/><path d="M27.855 19.11c0-.25-.089-.446-.268-.586-.176-.14-.487-.284-.933-.434a8.983 8.983 0 01-1.093-.435c-.922-.452-1.382-1.074-1.382-1.865 0-.394.114-.74.341-1.04.232-.303.557-.537.977-.703.42-.17.892-.254 1.416-.254a3.3 3.3 0 011.372.273c.407.183.723.443.947.782.225.335.337.72.337 1.152H27.86c0-.29-.09-.514-.268-.674-.176-.16-.415-.24-.718-.24-.306 0-.548.07-.727.206a.617.617 0 00-.264.513c0 .182.098.348.293.498.195.146.539.3 1.03.459.492.156.895.325 1.211.508.768.442 1.152 1.053 1.152 1.83 0 .622-.234 1.11-.703 1.465-.468.355-1.111.533-1.928.533a3.87 3.87 0 01-1.568-.308c-.465-.208-.817-.491-1.055-.85a2.237 2.237 0 01-.351-1.245h1.719c0 .381.097.663.293.845.198.18.519.269.962.269.283 0 .506-.06.668-.181a.608.608 0 00.25-.518zm5.557-.522V21h-1.714v-7.11h2.837c.544 0 1.024.101 1.44.303.42.199.744.484.972.855.231.368.347.786.347 1.255 0 .693-.25 1.248-.747 1.665-.495.413-1.175.62-2.041.62h-1.094zm0-1.323h1.123c.332 0 .585-.083.757-.25.176-.165.264-.4.264-.703 0-.332-.09-.597-.269-.795-.179-.199-.423-.3-.732-.303h-1.143v2.05zm12.07.327c0 .693-.128 1.307-.385 1.84a2.861 2.861 0 01-1.099 1.236c-.472.286-1.01.43-1.616.43-.606 0-1.143-.139-1.611-.415a2.878 2.878 0 01-1.1-1.197c-.26-.517-.396-1.111-.41-1.782v-.4c0-.697.128-1.31.382-1.841a2.862 2.862 0 011.098-1.236 3.086 3.086 0 011.631-.434c.602 0 1.14.143 1.611.43.472.286.839.695 1.099 1.225.264.528.397 1.133.4 1.817v.327zm-1.743-.298c0-.706-.119-1.242-.356-1.607a1.129 1.129 0 00-1.01-.551c-.86 0-1.314.644-1.363 1.933l-.005.523c0 .696.115 1.232.347 1.606.23.375.574.562 1.03.562a1.12 1.12 0 001-.552c.235-.368.354-.897.357-1.587v-.327zm6.519 1.196h-.928V21h-1.714v-7.11h2.798c.843 0 1.502.188 1.978.562.475.374.712.903.712 1.587 0 .495-.1.905-.302 1.23-.199.326-.511.59-.938.792l1.485 2.866V21h-1.836l-1.255-2.51zm-.928-1.323h1.084c.326 0 .57-.085.733-.254.166-.172.248-.412.248-.718s-.083-.545-.248-.718c-.166-.175-.41-.263-.733-.263H49.33v1.953zm11.397-1.953h-2.134V21h-1.714v-5.786h-2.095V13.89h5.943v1.323zm5.566 3.896c0-.25-.09-.446-.269-.586-.175-.14-.486-.284-.932-.434a8.976 8.976 0 01-1.094-.435c-.921-.452-1.382-1.074-1.382-1.865 0-.394.114-.74.342-1.04.231-.303.557-.537.977-.703.42-.17.891-.254 1.416-.254a3.3 3.3 0 011.372.273c.407.183.722.443.947.782.224.335.337.72.337 1.152h-1.71c0-.29-.089-.514-.268-.674-.175-.16-.415-.24-.718-.24-.306 0-.548.07-.727.206a.617.617 0 00-.264.513c0 .182.098.348.293.498.196.146.539.3 1.03.459.492.156.896.325 1.212.508.768.442 1.152 1.053 1.152 1.83 0 .622-.235 1.11-.703 1.465-.469.355-1.112.533-1.929.533a3.87 3.87 0 01-1.567-.308c-.466-.208-.817-.491-1.055-.85a2.237 2.237 0 01-.352-1.245h1.72c0 .381.097.663.292.845.199.18.52.269.962.269.283 0 .506-.06.669-.181a.608.608 0 00.249-.518zM38.685 37h-1.704l-2.52-4.424V37h-1.713v-7.11h1.714l2.515 4.425V29.89h1.709V37zm6.744-3.013h-2.696v1.695h3.184V37h-4.898v-7.11h4.908v1.324h-3.194v1.499h2.696v1.274zm7.944.362l.816-4.458h1.699L54.378 37h-1.776l-.953-4.053L50.717 37h-1.773l-1.513-7.11h1.704l.815 4.459.977-4.458h1.455l.991 4.458zm8.1.761c0-.25-.089-.446-.268-.586-.176-.14-.487-.284-.932-.434a8.976 8.976 0 01-1.094-.435c-.922-.452-1.382-1.074-1.382-1.865 0-.394.114-.74.342-1.04.23-.303.556-.537.976-.703.42-.17.892-.254 1.416-.254.511 0 .969.091 1.372.273.407.183.723.443.948.782.224.335.337.72.337 1.152h-1.71c0-.29-.089-.514-.268-.674-.176-.16-.415-.24-.718-.24-.306 0-.548.07-.727.206a.617.617 0 00-.264.513c0 .182.098.348.293.498.195.146.539.3 1.03.459a6.22 6.22 0 011.211.508c.768.442 1.153 1.053 1.153 1.83 0 .622-.235 1.11-.704 1.465-.468.355-1.111.533-1.928.533a3.87 3.87 0 01-1.568-.308c-.465-.208-.817-.492-1.054-.85a2.237 2.237 0 01-.352-1.245h1.719c0 .381.097.663.293.845.198.18.519.269.962.269.283 0 .506-.06.669-.181a.609.609 0 00.249-.518zM12.43 21.977h67.14v.488H12.43v-.488zm16.04 16h35.06v.488H28.47v-.488z" fill="#fff"/><a><path fill="none" d="M.431 2.141H67.57V13.86H.431z"/></a><a><path fill="none" d="M16.471 18.141H51.53V29.86H16.471z"/></a></svg>