<svg width="169" height="52" viewBox="0 0 169 52" fill="none" xmlns="http://www.w3.org/2000/svg"><rect x="1" y="1" width="167" height="50" rx="5" fill="#C80E0E" stroke="#C80E0E" stroke-width="2"/><path d="M60.912 29.882h5.598V32h-8.235V19.203h2.637v10.679zm17.788-3.99c0 1.26-.223 2.364-.668 3.313-.445.95-1.084 1.682-1.916 2.197-.826.516-1.775.774-2.848.774-1.06 0-2.007-.255-2.839-.765-.832-.51-1.476-1.236-1.933-2.18-.457-.949-.689-2.039-.694-3.27v-.632c0-1.26.225-2.367.676-3.322.457-.961 1.099-1.697 1.925-2.206.832-.516 1.781-.774 2.848-.774 1.066 0 2.012.258 2.839.774.832.51 1.473 1.245 1.924 2.206.457.955.686 2.06.686 3.313v.572zm-2.672-.58c0-1.342-.24-2.362-.72-3.06-.481-.696-1.167-1.045-2.057-1.045-.885 0-1.568.346-2.048 1.037-.48.686-.724 1.694-.73 3.024v.624c0 1.306.24 2.32.721 3.04.48.721 1.172 1.082 2.074 1.082.885 0 1.565-.346 2.04-1.037.474-.698.714-1.711.72-3.041v-.625zm15.433 5.07c-.475.57-1.145 1.012-2.013 1.328-.867.31-1.828.466-2.882.466-1.108 0-2.08-.24-2.919-.72-.832-.487-1.476-1.19-1.933-2.11-.451-.92-.683-2.001-.694-3.244v-.87c0-1.277.213-2.381.641-3.313.434-.938 1.055-1.652 1.863-2.145.815-.498 1.767-.747 2.857-.747 1.517 0 2.704.364 3.56 1.09.855.72 1.362 1.773 1.52 3.155h-2.566c-.118-.732-.378-1.268-.783-1.608-.398-.34-.949-.51-1.652-.51-.896 0-1.58.337-2.048 1.011-.469.674-.706 1.676-.712 3.006v.817c0 1.342.255 2.356.765 3.041.51.686 1.257 1.029 2.241 1.029.99 0 1.696-.211 2.118-.633v-2.206h-2.4v-1.943h5.037v5.107zM97.129 32h-2.636V19.203h2.636V32zm13.579 0h-2.637l-5.133-8.42V32h-2.637V19.203h2.637l5.142 8.438v-8.438h2.628V32zM57.132 33.758h54.736v.879H57.132v-.88z" fill="#fff"/><a><path fill="none" d="M22.734-.047H77.47v21.094H22.734z"/></a></svg>