<svg width="276" height="52" viewBox="0 0 276 52" fill="none" xmlns="http://www.w3.org/2000/svg"><path fill="#031841" stroke="#fff" stroke-width="2" d="M1 1h274v50H1z"/><path d="M87.376 27.382V31h-2.57V20.336h4.255c.815 0 1.536.151 2.16.454.63.298 1.116.725 1.458 1.282.347.552.52 1.179.52 1.882 0 1.04-.373 1.873-1.12 2.498-.743.62-1.763.93-3.062.93h-1.64zm0-1.985h1.685c.498 0 .876-.124 1.135-.374.264-.249.396-.6.396-1.054 0-.498-.135-.896-.403-1.194-.269-.298-.635-.45-1.099-.454h-1.714v3.076zM98.84 31c-.088-.161-.166-.398-.234-.71-.455.57-1.09.857-1.905.857-.747 0-1.382-.225-1.904-.674-.523-.454-.784-1.023-.784-1.707 0-.86.318-1.509.952-1.948.635-.44 1.558-.66 2.769-.66h.762v-.417c0-.727-.315-1.091-.945-1.091-.586 0-.88.288-.88.864h-2.467c0-.766.324-1.389.974-1.867.654-.479 1.487-.718 2.497-.718 1.011 0 1.81.246 2.395.74.586.493.887 1.169.901 2.028v3.509c.01.727.122 1.284.337 1.67V31h-2.468zm-1.546-1.611c.308 0 .562-.066.762-.198.205-.132.352-.28.44-.447v-1.267h-.718c-.86 0-1.29.386-1.29 1.157 0 .225.077.408.228.55a.83.83 0 00.578.205zm9.2-.616c0-.21-.11-.378-.33-.505-.22-.127-.637-.259-1.252-.395-.616-.137-1.123-.315-1.524-.535-.4-.225-.705-.496-.915-.813a1.932 1.932 0 01-.315-1.091c0-.728.3-1.326.901-1.795.6-.473 1.386-.71 2.358-.71 1.045 0 1.885.237 2.52.71.634.474.952 1.096.952 1.868h-2.476c0-.635-.334-.952-1.003-.952a.984.984 0 00-.652.22.659.659 0 00-.264.534c0 .22.108.398.322.535.215.136.557.249 1.026.337.473.088.888.192 1.245.315 1.191.41 1.787 1.145 1.787 2.204 0 .723-.322 1.311-.967 1.765-.639.454-1.469.681-2.49.681-.679 0-1.284-.122-1.816-.366-.533-.244-.948-.576-1.246-.996-.297-.42-.446-.862-.446-1.325h2.307c.01.366.132.634.366.805.234.166.535.25.901.25.337 0 .588-.07.754-.206a.653.653 0 00.257-.535zm7.69 0c0-.21-.11-.378-.329-.505-.22-.127-.638-.259-1.253-.395-.615-.137-1.123-.315-1.523-.535-.401-.225-.706-.496-.916-.813a1.932 1.932 0 01-.315-1.091c0-.728.3-1.326.901-1.795.601-.473 1.387-.71 2.358-.71 1.045 0 1.885.237 2.52.71.635.474.952 1.096.952 1.868h-2.475c0-.635-.335-.952-1.004-.952a.984.984 0 00-.652.22.658.658 0 00-.263.534c0 .22.107.398.322.535.215.136.556.249 1.025.337.474.088.889.192 1.245.315 1.192.41 1.787 1.145 1.787 2.204 0 .723-.322 1.311-.966 1.765-.64.454-1.47.681-2.491.681-.678 0-1.284-.122-1.816-.366s-.947-.576-1.245-.996c-.298-.42-.447-.862-.447-1.325h2.307c.01.366.132.634.366.805.235.166.535.25.901.25.337 0 .589-.07.755-.206a.652.652 0 00.256-.535zm10.386-1.025l.798-4.673h2.366L125.865 31h-2.087l-1.311-4.702L121.148 31h-2.087l-1.868-7.925h2.366l.784 4.783 1.26-4.783h1.721l1.245 4.673zm3.743-.784c0-.79.153-1.494.461-2.109a3.293 3.293 0 011.326-1.428c.576-.332 1.252-.498 2.028-.498 1.187 0 2.122.368 2.806 1.106.683.732 1.025 1.73 1.025 2.995v.088c0 1.236-.344 2.217-1.033 2.945-.683.722-1.611 1.084-2.783 1.084-1.128 0-2.034-.337-2.717-1.011-.684-.679-1.052-1.597-1.106-2.754l-.007-.418zm2.468.154c0 .733.115 1.27.344 1.612.23.341.569.512 1.018.512.879 0 1.328-.676 1.348-2.029v-.249c0-1.42-.454-2.131-1.363-2.131-.825 0-1.272.613-1.34 1.838l-.007.447zm11.059-1.809l-.813-.059c-.776 0-1.274.245-1.494.733V31h-2.468v-7.925h2.314l.081 1.018c.415-.776.994-1.164 1.736-1.164.263 0 .493.029.688.088l-.044 2.292zm.432 1.67c0-1.255.271-2.244.813-2.966.542-.723 1.299-1.084 2.271-1.084.708 0 1.304.278 1.787.835V19.75h2.476V31h-2.22l-.124-.85c-.508.665-1.152.997-1.934.997-.942 0-1.689-.362-2.241-1.084-.552-.723-.828-1.751-.828-3.084zm2.469.154c0 1.406.41 2.11 1.23 2.11.547 0 .938-.23 1.172-.69v-3.017c-.225-.469-.61-.703-1.157-.703-.762 0-1.174.615-1.238 1.846l-.007.454zm9.704-.169c0-.79.154-1.494.462-2.109a3.291 3.291 0 011.325-1.428c.577-.332 1.253-.498 2.029-.498 1.187 0 2.122.368 2.805 1.106.684.732 1.026 1.73 1.026 2.995v.088c0 1.236-.344 2.217-1.033 2.945-.683.722-1.611 1.084-2.783 1.084-1.128 0-2.034-.337-2.717-1.011-.684-.679-1.053-1.597-1.106-2.754l-.008-.418zm2.469.154c0 .733.114 1.27.344 1.612.229.341.569.512 1.018.512.879 0 1.328-.676 1.348-2.029v-.249c0-1.42-.455-2.131-1.363-2.131-.825 0-1.272.613-1.34 1.838l-.007.447zm11.059-1.809l-.813-.059c-.776 0-1.274.245-1.494.733V31h-2.468v-7.925h2.314l.081 1.018c.415-.776.993-1.164 1.736-1.164.263 0 .493.029.688.088l-.044 2.292zm13.77.579c0 1.04-.193 1.96-.579 2.76-.386.802-.935 1.42-1.648 1.854-.708.43-1.516.645-2.424.645-.908 0-1.714-.208-2.417-.623-.703-.42-1.253-1.018-1.648-1.794-.391-.777-.596-1.668-.615-2.674v-.6c0-1.045.19-1.966.571-2.762.386-.8.935-1.418 1.648-1.853.718-.434 1.533-.652 2.446-.652.903 0 1.709.215 2.417.645.708.43 1.257 1.043 1.648 1.838.396.791.596 1.7.601 2.725v.49zm-2.615-.447c0-1.06-.178-1.863-.535-2.41-.351-.551-.857-.827-1.516-.827-1.289 0-1.97.966-2.043 2.9l-.008.784c0 1.045.174 1.848.52 2.41.347.56.862.842 1.546.842.649 0 1.15-.276 1.501-.828.352-.552.53-1.345.535-2.38v-.491zm11.682-3.12h-3.201V31h-2.57v-8.68h-3.142v-1.984h8.913v1.985zm3.662 5.06V31H191.9V20.336h4.256c.815 0 1.535.151 2.16.454.63.298 1.116.725 1.458 1.282.347.552.52 1.179.52 1.882 0 1.04-.374 1.873-1.121 2.498-.742.62-1.762.93-3.061.93h-1.641zm0-1.984h1.685c.498 0 .876-.124 1.135-.374.264-.249.396-.6.396-1.054 0-.498-.135-.896-.403-1.194-.269-.298-.635-.45-1.099-.454h-1.714v3.076z" fill="#C4C4C4"/></svg>