<svg width="50" height="49" viewBox="0 0 50 49" fill="none" xmlns="http://www.w3.org/2000/svg"><path d="M2.658 37V11.406h8.244c2.262 0 4.295.516 6.1 1.547 1.805 1.02 3.21 2.467 4.219 4.342 1.02 1.863 1.535 3.955 1.547 6.275v1.178c0 2.344-.498 4.447-1.495 6.31a10.854 10.854 0 01-4.183 4.36c-1.793 1.043-3.797 1.57-6.012 1.582h-8.42zm6.17-20.83v16.084h2.145c1.77 0 3.129-.627 4.078-1.881.949-1.266 1.424-3.14 1.424-5.625v-1.107c0-2.473-.475-4.336-1.424-5.59-.95-1.254-2.332-1.881-4.149-1.881H8.828zM47.307 37h-6.135l-9.07-15.926V37h-6.17V11.406h6.17l9.052 15.926V11.406h6.153V37z" fill="#fff"/></svg>