<svg width="290" height="30" viewBox="0 0 290 30" fill="none" xmlns="http://www.w3.org/2000/svg"><path d="M.889 20v-9.953H3.95c.875 0 1.657.198 2.345.595a4.09 4.09 0 011.62 1.681c.387.725.581 1.55.581 2.475v.458c0 .925-.191 1.748-.574 2.468a4.065 4.065 0 01-1.607 1.674c-.692.397-1.474.597-2.344.602H.889zm2.05-8.292v6.644h.992c.802 0 1.415-.262 1.839-.786.423-.524.64-1.273.649-2.249v-.526c0-1.012-.21-1.777-.629-2.297-.42-.524-1.032-.786-1.839-.786H2.94zm15.23 3.541c0 .98-.172 1.839-.519 2.577-.346.738-.843 1.308-1.49 1.71-.642.4-1.38.6-2.215.6-.825 0-1.56-.197-2.208-.594-.647-.397-1.148-.962-1.504-1.695-.355-.739-.535-1.586-.54-2.543v-.492c0-.98.176-1.842.527-2.585.355-.747.854-1.319 1.497-1.715.647-.401 1.385-.602 2.215-.602.83 0 1.565.2 2.208.602.647.396 1.146.968 1.497 1.715.355.743.533 1.602.533 2.578v.444zm-2.077-.451c0-1.044-.187-1.837-.56-2.38-.374-.541-.908-.813-1.6-.813-.689 0-1.22.27-1.593.807-.374.533-.563 1.317-.568 2.352v.485c0 1.016.187 1.805.561 2.365.374.56.911.841 1.613.841.688 0 1.217-.269 1.586-.807.37-.542.556-1.33.56-2.365v-.485zM27.754 20h-2.05l-3.993-6.549V20h-2.05v-9.953h2.05l3.999 6.562v-6.562h2.044V20zm2.228-6.898l-.93-.54c.393-.615.596-1.25.61-1.907V9.5h1.571v1.06c0 .41-.114.854-.341 1.333-.228.478-.531.881-.91 1.21zm10.268-1.394h-3.049V20h-2.05v-8.292h-3.008v-1.661h8.107v1.661zM52.602 20h-2.05v-4.266h-4V20h-2.05v-9.953h2.05v4.033h4v-4.033h2.05V20zm7.54-2.05h-3.595L55.863 20h-2.18l3.705-9.953h1.9L63.014 20h-2.181l-.69-2.05zm-3.041-1.662h2.488l-1.251-3.726-1.237 3.726zm9.987 1.244l2.256-7.485h2.283L68.161 20h-2.14l-3.452-9.953h2.277l2.242 7.485zm11.47-1.845h-3.937v2.665h4.621V20H72.57v-9.953h6.659v1.661H74.62v2.372h3.938v1.607zm10.993 2.262h-3.596L85.272 20H83.09l3.705-9.953h1.9L92.422 20h-2.18l-.691-2.05zm-3.042-1.66h2.488l-1.25-3.727-1.238 3.726zM101.445 20h-2.05l-3.993-6.549V20h-2.05v-9.953h2.05l4 6.562v-6.562h2.043V20zm10.897-2.05h-3.596l-.684 2.05h-2.18l3.705-9.953h1.9L115.213 20h-2.181l-.69-2.05zm-3.042-1.662h2.488l-1.251-3.726-1.237 3.726zm14.506.397c-.078 1.07-.474 1.914-1.19 2.529-.711.615-1.65.923-2.816.923-1.276 0-2.281-.429-3.015-1.285-.729-.862-1.094-2.042-1.094-3.542v-.608c0-.957.169-1.8.506-2.53.338-.728.818-1.287 1.443-1.674.629-.392 1.358-.588 2.187-.588 1.149 0 2.074.308 2.776.923.701.615 1.107 1.479 1.216 2.59h-2.05c-.051-.642-.231-1.107-.54-1.394-.306-.291-.773-.437-1.402-.437-.683 0-1.196.246-1.538.738-.337.488-.51 1.246-.519 2.276v.752c0 1.076.161 1.862.485 2.359.328.497.843.745 1.545.745.633 0 1.105-.144 1.415-.43.314-.292.494-.741.54-1.347h2.051zm9.16 0c-.078 1.07-.474 1.914-1.19 2.529-.711.615-1.649.923-2.816.923-1.276 0-2.281-.429-3.015-1.285-.729-.862-1.093-2.042-1.093-3.542v-.608c0-.957.168-1.8.505-2.53.338-.728.818-1.287 1.443-1.674.629-.392 1.358-.588 2.187-.588 1.149 0 2.074.308 2.776.923s1.107 1.479 1.216 2.59h-2.05c-.05-.642-.23-1.107-.54-1.394-.306-.291-.773-.437-1.402-.437-.683 0-1.196.246-1.538.738-.337.488-.51 1.246-.519 2.276v.752c0 1.076.161 1.862.485 2.359.328.497.843.745 1.545.745.633 0 1.105-.144 1.415-.43.314-.292.494-.741.54-1.347h2.051zm9.522-1.436c0 .98-.173 1.839-.519 2.577-.347.738-.843 1.308-1.49 1.71-.643.4-1.381.6-2.215.6-.825 0-1.561-.197-2.208-.594-.647-.397-1.149-.962-1.504-1.695-.356-.739-.536-1.586-.54-2.543v-.492c0-.98.175-1.842.526-2.585.356-.747.855-1.319 1.497-1.715.647-.401 1.386-.602 2.215-.602s1.565.2 2.208.602c.647.396 1.146.968 1.497 1.715.356.743.533 1.602.533 2.578v.444zm-2.078-.451c0-1.044-.187-1.837-.56-2.38-.374-.541-.907-.813-1.6-.813-.688 0-1.219.27-1.593.807-.373.533-.563 1.317-.567 2.352v.485c0 1.016.187 1.805.56 2.365.374.56.912.841 1.614.841.688 0 1.216-.269 1.586-.807.369-.542.556-1.33.56-2.365v-.485zm11.102-4.751v6.555c0 1.09-.342 1.951-1.026 2.584-.679.634-1.608.95-2.789.95-1.162 0-2.085-.307-2.768-.922-.684-.615-1.033-1.46-1.046-2.536v-6.631h2.051v6.57c0 .65.155 1.127.464 1.428.315.296.748.444 1.299.444 1.153 0 1.739-.606 1.757-1.818v-6.624h2.058zM161.287 20h-2.051l-3.992-6.549V20h-2.051v-9.953h2.051l3.999 6.562v-6.562h2.044V20zm9.078-8.292h-3.049V20h-2.05v-8.292h-3.008v-1.661h8.107v1.661zm5.736 5.236c0-.638.077-1.146.232-1.524.155-.378.438-.75.848-1.114.414-.37.69-.668.827-.896a1.42 1.42 0 00.205-.731c0-.77-.356-1.156-1.067-1.156-.337 0-.608.105-.813.315-.201.205-.305.49-.314.854h-1.983c.009-.87.29-1.551.841-2.044.556-.492 1.312-.738 2.269-.738.967 0 1.716.235 2.25.704.533.465.799 1.124.799 1.976 0 .387-.086.754-.259 1.1-.174.342-.477.723-.91 1.142l-.553.526a1.871 1.871 0 00-.595 1.17l-.027.416h-1.75zm-.199 2.099c0-.305.103-.556.308-.752.21-.2.476-.3.8-.3.323 0 .588.1.793.3a.986.986 0 01.314.752c0 .3-.102.55-.307.745-.201.196-.468.294-.8.294-.333 0-.602-.098-.807-.294a1 1 0 01-.301-.745z" fill="#031841"/><path d="M193.724 17.389c0-.388-.137-.684-.411-.889-.273-.21-.765-.428-1.476-.656-.711-.233-1.274-.46-1.689-.684-1.13-.61-1.695-1.433-1.695-2.468 0-.537.151-1.016.451-1.435.306-.424.741-.754 1.306-.991.57-.237 1.208-.356 1.914-.356.711 0 1.344.13 1.9.39.556.255.987.617 1.292 1.087.31.47.465 1.002.465 1.6h-2.051c0-.456-.143-.81-.43-1.06-.287-.255-.691-.383-1.21-.383-.501 0-.891.107-1.169.321a.994.994 0 00-.417.834c0 .324.162.595.485.814.328.218.809.424 1.443.615 1.166.35 2.016.786 2.549 1.306.534.52.8 1.166.8 1.941 0 .861-.326 1.538-.977 2.03-.652.488-1.529.732-2.632.732-.766 0-1.463-.14-2.092-.417-.629-.283-1.11-.668-1.442-1.155-.328-.488-.492-1.053-.492-1.696h2.057c0 1.098.656 1.648 1.969 1.648.488 0 .868-.098 1.141-.294.274-.2.411-.479.411-.834zM199.356 20h-2.05v-9.953h2.05V20zm9.783-1.258c-.369.442-.891.786-1.566 1.032-.674.242-1.422.363-2.242.363-.861 0-1.618-.187-2.269-.56-.648-.38-1.149-.926-1.504-1.642-.351-.715-.531-1.556-.54-2.522v-.677c0-.993.166-1.852.499-2.577.337-.729.82-1.285 1.449-1.668.633-.387 1.374-.58 2.222-.58 1.18 0 2.103.282 2.768.847.665.56 1.06 1.378 1.183 2.454h-1.996c-.092-.57-.294-.987-.609-1.251-.31-.264-.738-.396-1.285-.396-.697 0-1.228.261-1.593.786-.364.524-.549 1.303-.553 2.337v.636c0 1.044.198 1.832.594 2.365.397.534.978.8 1.743.8.771 0 1.32-.164 1.648-.492v-1.716h-1.866v-1.51h3.917v3.971zM218.9 20h-2.05l-3.993-6.549V20h-2.05v-9.953h2.05l3.999 6.562v-6.562h2.044V20zm9.325-9.953v6.555c0 1.09-.342 1.951-1.026 2.584-.679.634-1.609.95-2.789.95-1.162 0-2.085-.307-2.768-.922-.684-.615-1.033-1.46-1.046-2.536v-6.631h2.05v6.57c0 .65.155 1.127.465 1.428.315.296.748.444 1.299.444 1.153 0 1.739-.606 1.757-1.818v-6.624h2.058zm3.732 6.446V20h-2.051v-9.953h3.883c.747 0 1.404.137 1.969.41a3.013 3.013 0 011.312 1.169c.306.501.458 1.073.458 1.716 0 .975-.335 1.745-1.005 2.31-.665.56-1.588.841-2.768.841h-1.798zm0-1.661h1.832c.542 0 .955-.128 1.237-.383.287-.255.431-.62.431-1.094 0-.487-.144-.881-.431-1.182-.287-.3-.683-.456-1.189-.465h-1.88v3.124zM250.53 20h-2.051v-4.266h-3.999V20h-2.05v-9.953h2.05v4.033h3.999v-4.033h2.051V20zm7.786-4.313h-3.937v2.665H259V20h-6.672v-9.953h6.658v1.661h-4.607v2.372h3.937v1.607zm5.572.67h-1.634V20h-2.051v-9.953h3.698c1.176 0 2.083.262 2.721.786.638.524.957 1.265.957 2.222 0 .679-.148 1.246-.444 1.702-.292.451-.736.811-1.333 1.08l2.153 4.067V20h-2.201l-1.866-3.644zm-1.634-1.662h1.654c.515 0 .914-.13 1.196-.39.283-.264.424-.626.424-1.086 0-.47-.134-.839-.403-1.108-.264-.269-.672-.403-1.224-.403h-1.647v2.987zm12.879.992h-3.938v2.665h4.621V20h-6.671v-9.953h6.658v1.661h-4.608v2.372h3.938v1.607z" fill="#C80E0E"/><path d="M0 21.367h187.674v.684H0v-.684z" fill="#031841"/><path d="M187.674 21.367h88.457v.684h-88.457v-.684z" fill="#C80E0E"/><a><path fill="none" d="M0 6.797h276.131v16.406H0z"/></a></svg>