<svg width="88" height="52" viewBox="0 0 88 52" fill="none" xmlns="http://www.w3.org/2000/svg"><path d="M0 4a4 4 0 014-4h80a4 4 0 014 4v44a4 4 0 01-4 4H4a4 4 0 01-4-4V4z" fill="#C80E0E"/><path d="M33.413 18.349l.816-4.458h1.699L34.418 21h-1.776l-.953-4.053L30.758 21h-1.773l-1.513-7.11h1.704l.815 4.459.977-4.458h1.455l.991 4.458zm10.454-.757c0 .693-.128 1.307-.386 1.84a2.86 2.86 0 01-1.098 1.236c-.472.286-1.01.43-1.616.43-.606 0-1.143-.139-1.612-.415a2.878 2.878 0 01-1.098-1.197c-.26-.517-.398-1.111-.41-1.782v-.4c0-.697.126-1.31.38-1.841a2.862 2.862 0 011.099-1.236 3.086 3.086 0 011.63-.434c.603 0 1.14.143 1.612.43.472.286.838.695 1.099 1.225.264.528.397 1.133.4 1.817v.327zm-1.743-.298c0-.706-.119-1.242-.356-1.607a1.129 1.129 0 00-1.011-.551c-.86 0-1.314.644-1.362 1.933l-.005.523c0 .696.115 1.232.346 1.606.231.375.575.562 1.03.562a1.12 1.12 0 001.002-.552c.234-.368.353-.897.356-1.587v-.327zm6.519 1.196h-.928V21H46v-7.11h2.798c.843 0 1.502.188 1.977.562.476.374.713.903.713 1.587 0 .495-.1.905-.302 1.23-.199.326-.511.59-.938.792l1.484 2.866V21h-1.835l-1.255-2.51zm-.928-1.323h1.084c.325 0 .57-.085.732-.254.166-.172.25-.412.25-.718s-.084-.545-.25-.718c-.166-.175-.41-.263-.732-.263h-1.084v1.953zm7.773 2.515h2.984V21h-4.698v-7.11h1.714v5.792zM60.444 21v-7.11h2.29c.629 0 1.193.144 1.695.43.501.284.892.685 1.172 1.206a3.61 3.61 0 01.43 1.744v.327c0 .65-.14 1.235-.416 1.753-.273.514-.66.918-1.162 1.21a3.295 3.295 0 01-1.67.44h-2.339zm1.714-5.786v4.468h.596c.491 0 .869-.174 1.133-.523.263-.351.395-.872.395-1.562v-.308c0-.687-.132-1.204-.395-1.553-.264-.348-.648-.522-1.153-.522h-.576zM37.685 37h-1.704l-2.52-4.424V37h-1.713v-7.11h1.714l2.515 4.425V29.89h1.709V37zm6.744-3.013h-2.696v1.695h3.184V37h-4.898v-7.11h4.908v1.324h-3.194v1.499h2.696v1.274zm7.944.362l.816-4.458h1.699L53.378 37h-1.776l-.953-4.053L49.717 37h-1.773l-1.513-7.11h1.704l.815 4.459.977-4.458h1.455l.991 4.458zm8.1.761c0-.25-.089-.446-.268-.586-.176-.14-.487-.284-.932-.434a8.976 8.976 0 01-1.094-.435c-.922-.452-1.382-1.074-1.382-1.865 0-.394.114-.74.342-1.04.23-.303.556-.537.976-.703.42-.17.892-.254 1.416-.254.511 0 .969.091 1.372.273.407.183.723.443.948.782.224.335.337.72.337 1.152h-1.71c0-.29-.089-.514-.268-.674-.176-.16-.415-.24-.718-.24-.306 0-.548.07-.727.206a.617.617 0 00-.264.513c0 .182.098.348.293.498.195.146.539.3 1.03.459a6.22 6.22 0 011.211.508c.768.442 1.153 1.053 1.153 1.83 0 .622-.235 1.11-.704 1.465-.468.355-1.111.533-1.928.533a3.87 3.87 0 01-1.568-.308c-.465-.208-.817-.492-1.054-.85a2.237 2.237 0 01-.352-1.245h1.719c0 .381.097.663.293.845.198.18.519.269.962.269.283 0 .506-.06.669-.181a.609.609 0 00.249-.518z" fill="#fff"/></svg>