<svg width="226" height="63" viewBox="0 0 226 63" fill="none" xmlns="http://www.w3.org/2000/svg"><path d="M11.188 12.737c-.1 1.377-.609 2.461-1.529 3.252-.914.791-2.12 1.187-3.62 1.187-1.642 0-2.934-.551-3.877-1.653-.937-1.107-1.406-2.625-1.406-4.552v-.783c0-1.23.217-2.314.65-3.251.434-.938 1.052-1.656 1.855-2.154.808-.504 1.746-.756 2.812-.756 1.477 0 2.666.396 3.569 1.187.902.79 1.423 1.901 1.564 3.33H8.57c-.064-.825-.296-1.423-.694-1.792-.393-.375-.993-.563-1.802-.563-.879 0-1.538.317-1.977.95-.434.627-.657 1.602-.668 2.926v.967c0 1.383.208 2.394.624 3.033.422.638 1.084.958 1.986.958.815 0 1.421-.185 1.82-.554.404-.375.635-.952.694-1.732h2.636zm5.089 2.145h5.598V17H13.64V4.203h2.637v10.679zm15.24-.519h-4.624L26.014 17h-2.803l4.763-12.797h2.444L35.208 17h-2.804l-.888-2.637zm-3.912-2.136h3.2l-1.61-4.79-1.59 4.79zm14.255.088h-2.1V17h-2.637V4.203h4.755c1.511 0 2.678.337 3.498 1.01.82.675 1.23 1.627 1.23 2.857 0 .873-.19 1.603-.571 2.189-.375.58-.946 1.043-1.714 1.389l2.769 5.229V17h-2.83l-2.4-4.685zm-2.1-2.135h2.127c.662 0 1.174-.167 1.538-.501.363-.34.545-.806.545-1.398 0-.603-.173-1.078-.519-1.424-.34-.345-.864-.518-1.573-.518H39.76v3.84zM52.143 17h-2.637V4.203h2.637V17zM64.684 6.339h-3.92V17h-2.637V6.339H54.26V4.203h10.424V6.34zm6.784 3.63l2.663-5.766h2.883l-4.2 8.156V17h-2.681v-4.64L65.93 4.202h2.892l2.645 5.766zm23.15.923c0 1.26-.223 2.364-.668 3.313-.446.95-1.085 1.682-1.917 2.197-.826.516-1.775.774-2.847.774-1.06 0-2.007-.255-2.84-.765-.831-.51-1.476-1.236-1.933-2.18-.457-.949-.688-2.039-.694-3.27v-.632c0-1.26.226-2.367.677-3.322.457-.961 1.098-1.696 1.924-2.206.833-.516 1.782-.774 2.848-.774 1.067 0 2.013.258 2.84.774.831.51 1.473 1.245 1.924 2.206.457.955.685 2.06.685 3.313v.572zm-2.672-.58c0-1.342-.24-2.362-.721-3.06-.48-.696-1.166-1.045-2.057-1.045-.885 0-1.567.346-2.048 1.037-.48.686-.723 1.694-.73 3.024v.624c0 1.306.241 2.32.722 3.04.48.721 1.171 1.082 2.074 1.082.884 0 1.564-.346 2.039-1.037.475-.698.715-1.711.72-3.042v-.623zm13.007 1.459H99.89V17h-2.637V4.203h8.332V6.34H99.89v3.305h5.063v2.127zm11.529-7.568l3.288 9.281 3.269-9.28h3.463V17h-2.645v-3.498l.263-6.038L120.666 17h-1.81l-3.446-9.527.264 6.029V17h-2.637V4.203h3.445zM132.328 17h-2.636V4.203h2.636V17zm13.579 0h-2.637l-5.133-8.42V17h-2.636V4.203h2.636l5.142 8.438V4.203h2.628V17zm3.023 0V4.203h3.937c1.125 0 2.13.255 3.015.765a5.261 5.261 0 012.083 2.162c.498.932.747 1.992.747 3.182v.588c0 1.19-.246 2.248-.738 3.173a5.23 5.23 0 01-2.066 2.154c-.89.51-1.895.767-3.015.773h-3.963zm2.636-10.661v8.543h1.275c1.031 0 1.819-.337 2.364-1.01.545-.675.823-1.639.835-2.893v-.676c0-1.301-.27-2.285-.809-2.953-.539-.674-1.327-1.011-2.364-1.011h-1.301zm15.485 13.869l-1.327-.694.317-.572c.392-.715.594-1.426.606-2.135v-1.97h2.144l-.008 1.759c-.006.65-.17 1.306-.492 1.968a5.058 5.058 0 01-1.24 1.644zM3.779 33.491V38H1.143V25.203h4.992c.96 0 1.804.176 2.531.527.732.352 1.295.853 1.688 1.503.392.645.588 1.38.588 2.206 0 1.254-.43 2.245-1.292 2.971-.855.72-2.042 1.081-3.56 1.081H3.78zm0-2.136h2.356c.697 0 1.227-.164 1.59-.492.37-.328.554-.797.554-1.406 0-.627-.184-1.134-.553-1.52-.37-.387-.88-.586-1.53-.598H3.78v4.017zm12.34 4.527h5.598V38h-8.235V25.203h2.636v10.679zm15.239-.519h-4.623L25.856 38h-2.804l4.764-12.797h2.443L35.05 38h-2.803l-.888-2.637zm-3.911-2.136h3.2l-1.61-4.79-1.59 4.79zM47.37 38h-2.637l-5.133-8.42V38h-2.636V25.203H39.6l5.142 8.438v-8.438h2.628V38zm9.658-3.357c0-.498-.175-.88-.527-1.143-.352-.27-.984-.55-1.898-.844-.914-.299-1.638-.591-2.171-.879-1.453-.785-2.18-1.842-2.18-3.172 0-.692.193-1.307.58-1.846.393-.545.952-.97 1.679-1.275.732-.304 1.553-.457 2.46-.457.915 0 1.73.167 2.444.501.715.328 1.269.794 1.661 1.398.399.603.598 1.289.598 2.056h-2.637c0-.585-.184-1.04-.553-1.362-.37-.328-.888-.492-1.556-.492-.645 0-1.146.138-1.503.413-.358.27-.536.627-.536 1.072 0 .416.208.765.624 1.046.422.281 1.04.545 1.854.791 1.5.451 2.593 1.01 3.279 1.679.685.668 1.028 1.5 1.028 2.496 0 1.107-.419 1.977-1.257 2.61-.838.627-1.966.94-3.384.94-.984 0-1.88-.178-2.69-.535-.808-.364-1.426-.859-1.854-1.486-.422-.627-.633-1.353-.633-2.18h2.646c0 1.413.844 2.119 2.531 2.119.627 0 1.117-.126 1.468-.378.352-.258.527-.615.527-1.072zM77.805 38H75.17v-5.484h-5.142V38H67.39V25.203h2.637v5.186h5.142v-5.186h2.636V38zm10.415-2.637h-4.623L82.717 38h-2.803l4.764-12.797h2.443L91.911 38h-2.804l-.887-2.637zm-3.911-2.136h3.199l-1.609-4.79-1.59 4.79zm16.153 1.416c0-.498-.176-.88-.527-1.143-.352-.27-.985-.55-1.899-.844-.914-.299-1.637-.591-2.17-.879-1.454-.785-2.18-1.842-2.18-3.172 0-.692.193-1.307.58-1.846.392-.545.952-.97 1.679-1.275.732-.304 1.552-.457 2.46-.457.915 0 1.729.167 2.444.501.715.328 1.268.794 1.661 1.398.398.603.598 1.289.598 2.056h-2.637c0-.585-.185-1.04-.554-1.362-.369-.328-.888-.492-1.555-.492-.645 0-1.146.138-1.503.413-.358.27-.536.627-.536 1.072 0 .416.208.765.624 1.046.421.281 1.04.545 1.854.791 1.5.451 2.593 1.01 3.278 1.679.686.668 1.029 1.5 1.029 2.496 0 1.107-.419 1.977-1.257 2.61-.838.627-1.966.94-3.384.94-.984 0-1.88-.178-2.69-.535-.808-.364-1.426-.859-1.854-1.486-.422-.627-.633-1.353-.633-2.18h2.646c0 1.413.843 2.119 2.531 2.119.627 0 1.116-.126 1.468-.378.351-.258.527-.615.527-1.072zM121.238 38h-2.637v-5.484h-5.141V38h-2.637V25.203h2.637v5.186h5.141v-5.186h2.637V38zm10.731-5.546h-5.063v3.428h5.942V38h-8.578V25.203h8.56v2.136h-5.924v3.05h5.063v2.065zm5.782 3.428h5.599V38h-8.235V25.203h2.636v10.679zm10.476-2.39V38h-2.637V25.203h4.993c.961 0 1.804.176 2.531.527.732.352 1.295.853 1.687 1.503.393.645.589 1.38.589 2.206 0 1.254-.43 2.245-1.292 2.971-.855.72-2.042 1.081-3.559 1.081h-2.312zm0-2.136h2.356c.697 0 1.227-.165 1.59-.493.37-.328.554-.797.554-1.406 0-.627-.184-1.134-.554-1.52-.369-.387-.878-.586-1.529-.598h-2.417v4.017zm17.402 1.098h-5.063v3.428h5.942V38h-8.578V25.203h8.56v2.136h-5.924v3.05h5.063v2.065zM168.775 38V25.203h3.937c1.125 0 2.13.255 3.015.765a5.261 5.261 0 012.083 2.162c.498.931.747 1.992.747 3.181v.59c0 1.189-.246 2.247-.738 3.172a5.23 5.23 0 01-2.066 2.154c-.89.51-1.895.767-3.015.773h-3.963zm2.636-10.661v8.543h1.275c1.031 0 1.819-.337 2.364-1.01.545-.675.823-1.639.835-2.892v-.677c0-1.301-.27-2.285-.809-2.953-.539-.674-1.327-1.011-2.364-1.011h-1.301zm18.438-2.136l3.287 9.281 3.27-9.28h3.463V38h-2.646v-3.498l.264-6.038L194.033 38h-1.811l-3.445-9.527.264 6.029V38h-2.637V25.203h3.445zm20.742 7.251h-5.063v3.428h5.942V38h-8.578V25.203h8.56v2.136h-5.924v3.05h5.063v2.065zm3.638 8.754l-1.327-.694.316-.572c.393-.715.595-1.426.607-2.135v-1.97h2.144l-.009 1.759c-.006.65-.17 1.306-.492 1.969a5.041 5.041 0 01-1.239 1.643zM7.779 55.643c0-.498-.176-.88-.528-1.143-.352-.27-.984-.55-1.898-.844-.915-.299-1.638-.591-2.171-.879-1.453-.785-2.18-1.842-2.18-3.172 0-.692.193-1.307.58-1.846.393-.545.952-.97 1.679-1.275.732-.304 1.552-.457 2.46-.457.915 0 1.73.167 2.444.501.715.328 1.269.794 1.661 1.398.399.603.598 1.289.598 2.056H7.787c0-.585-.184-1.04-.554-1.362-.369-.328-.887-.492-1.555-.492-.645 0-1.146.138-1.503.413-.358.27-.536.627-.536 1.072 0 .416.208.765.624 1.046.422.281 1.04.545 1.854.791 1.5.451 2.593 1.01 3.279 1.679.685.668 1.028 1.5 1.028 2.496 0 1.107-.42 1.977-1.257 2.61-.838.627-1.966.94-3.384.94-.984 0-1.88-.178-2.69-.535-.808-.364-1.426-.859-1.854-1.486-.422-.627-.633-1.353-.633-2.18h2.646c0 1.413.844 2.119 2.531 2.119.627 0 1.116-.126 1.468-.378.352-.258.527-.615.527-1.072zm12.382.72h-4.623L14.66 59h-2.803l4.763-12.797h2.444L23.853 59h-2.804l-.888-2.637zm-3.91-2.136h3.198l-1.608-4.79-1.59 4.79zm12.61-2.258l2.664-5.766h2.883l-4.201 8.156V59h-2.681v-4.64l-4.201-8.157h2.891l2.646 5.766zm13.93 3.674c0-.498-.175-.88-.526-1.143-.352-.27-.985-.55-1.899-.844-.914-.299-1.638-.591-2.17-.879-1.454-.785-2.18-1.842-2.18-3.172 0-.692.193-1.307.58-1.846.392-.545.952-.97 1.678-1.275.733-.304 1.553-.457 2.461-.457.914 0 1.729.167 2.444.501.714.328 1.268.794 1.66 1.398.4.603.598 1.289.598 2.056h-2.636c0-.585-.185-1.04-.554-1.362-.37-.328-.888-.492-1.556-.492-.644 0-1.145.138-1.503.413-.357.27-.536.627-.536 1.072 0 .416.208.765.624 1.046.422.281 1.04.545 1.855.791 1.5.451 2.593 1.01 3.278 1.679.686.668 1.028 1.5 1.028 2.496 0 1.107-.419 1.977-1.256 2.61-.838.627-1.966.94-3.384.94-.985 0-1.881-.178-2.69-.535-.808-.364-1.426-.859-1.854-1.486-.422-.627-.633-1.353-.633-2.18h2.646c0 1.413.843 2.119 2.53 2.119.628 0 1.117-.126 1.468-.378.352-.258.528-.615.528-1.072zm15.52-9.44h2.638v8.86c0 .814-.182 1.535-.545 2.162a3.647 3.647 0 01-1.52 1.441c-.657.34-1.398.51-2.224.51-1.354 0-2.409-.343-3.164-1.029-.756-.69-1.134-1.666-1.134-2.926h2.654c0 .627.132 1.09.395 1.388.264.3.68.449 1.249.449.504 0 .905-.173 1.204-.519.299-.346.448-.838.448-1.477v-8.859zm12.648 10.16h-4.623L65.456 59h-2.803l4.764-12.797h2.443L74.65 59h-2.804l-.887-2.637zm-3.912-2.136h3.2l-1.609-4.79-1.59 4.79zM79.66 51.97l2.663-5.766h2.883l-4.201 8.156V59h-2.68v-4.64l-4.202-8.157h2.892l2.645 5.766zM87.094 59V46.203h3.938c1.124 0 2.13.255 3.014.765a5.257 5.257 0 012.083 2.162c.498.931.747 1.992.747 3.181v.59c0 1.189-.246 2.246-.738 3.172a5.228 5.228 0 01-2.066 2.154c-.89.51-1.895.767-3.014.773h-3.964zm2.637-10.661v8.543h1.274c1.031 0 1.82-.337 2.364-1.01.545-.675.824-1.639.835-2.892v-.677c0-1.301-.27-2.285-.808-2.953-.54-.674-1.327-1.011-2.365-1.011h-1.3zm17.489 5.115h-5.062v3.428h5.941V59h-8.578V46.203h8.561v2.136h-5.924v3.05h5.062v2.065zm7.875 2.373l2.9-9.624h2.935L116.474 59h-2.751l-4.438-12.797h2.927l2.883 9.624zm22.656-9.624v8.429c0 1.4-.439 2.508-1.318 3.322-.873.815-2.068 1.222-3.586 1.222-1.494 0-2.681-.396-3.56-1.187-.878-.79-1.327-1.878-1.344-3.26v-8.526h2.636v8.446c0 .838.2 1.45.598 1.837.404.381.961.572 1.67.572 1.482 0 2.235-.78 2.259-2.338v-8.517h2.645zM151.04 59h-2.637l-5.133-8.42V59h-2.637V46.203h2.637l5.142 8.438v-8.438h2.628V59zm10.405-2.637h-4.623L155.943 59h-2.803l4.763-12.797h2.444L165.137 59h-2.804l-.888-2.637zm-3.911-2.136h3.199l-1.608-4.79-1.591 4.79zM167.052 59V46.203h3.937c1.125 0 2.13.255 3.015.765a5.255 5.255 0 012.083 2.162c.498.931.747 1.992.747 3.181v.59c0 1.189-.246 2.246-.738 3.172a5.225 5.225 0 01-2.066 2.154c-.89.51-1.895.767-3.014.773h-3.964zm2.637-10.661v8.543h1.274c1.031 0 1.819-.337 2.364-1.01.545-.675.824-1.639.835-2.892v-.677c0-1.301-.269-2.285-.808-2.953-.539-.674-1.327-1.011-2.365-1.011h-1.3zm13.798 5.528l-1.371 1.477V59h-2.637V46.203h2.637v5.8l1.16-1.59 3.261-4.21h3.243l-4.544 5.687 4.676 7.11h-3.138l-3.287-5.133zm15.362 2.496h-4.623L193.347 59h-2.803l4.763-12.797h2.444L202.541 59h-2.804l-.888-2.637zm-3.911-2.136h3.199l-1.608-4.79-1.591 4.79zm18.096-5.888h-3.92V59h-2.636V48.339h-3.868v-2.136h10.424v2.136z" fill="#000"/></svg>