<svg width="226" height="84" viewBox="0 0 226 84" fill="none" xmlns="http://www.w3.org/2000/svg"><path d="M11.654 10.892c0 1.26-.222 2.364-.668 3.313-.445.95-1.084 1.682-1.916 2.197-.826.516-1.775.774-2.847.774-1.06 0-2.007-.255-2.84-.765-.831-.51-1.476-1.236-1.933-2.18-.457-.949-.688-2.039-.694-3.27v-.632c0-1.26.225-2.367.677-3.322C1.89 6.046 2.53 5.31 3.357 4.8c.832-.516 1.782-.774 2.848-.774 1.066 0 2.013.258 2.839.774.832.51 1.474 1.245 1.925 2.206.457.955.685 2.06.685 3.313v.572zm-2.672-.58c0-1.342-.24-2.362-.72-3.06-.48-.696-1.166-1.045-2.057-1.045-.885 0-1.567.346-2.048 1.037-.48.686-.723 1.694-.73 3.024v.624c0 1.306.241 2.32.721 3.04.48.721 1.172 1.082 2.075 1.082.884 0 1.564-.346 2.039-1.037.474-.698.715-1.711.72-3.042v-.623zm7.945 4.57h5.599V17H14.29V4.203h2.637v10.679zm9.79-4.913l2.663-5.766h2.883l-4.2 8.156V17H25.38v-4.64l-4.2-8.157h2.89l2.646 5.766zm10.88-5.766l3.288 9.281 3.27-9.28h3.462V17h-2.645v-3.498l.263-6.038L41.781 17h-1.81l-3.446-9.527.264 6.029V17h-2.637V4.203h3.445zm15.68 8.288V17H50.64V4.203h4.992c.96 0 1.805.176 2.531.527.733.352 1.295.853 1.688 1.503.392.645.589 1.38.589 2.206 0 1.254-.431 2.245-1.292 2.971-.856.72-2.042 1.081-3.56 1.081h-2.312zm0-2.136h2.355c.697 0 1.227-.164 1.59-.492.37-.328.554-.797.554-1.406 0-.627-.184-1.134-.553-1.52-.37-.387-.88-.586-1.53-.598h-2.416v4.016zM65.782 17h-2.637V4.203h2.637V17zM79 12.737c-.1 1.377-.61 2.461-1.53 3.252-.914.791-2.12 1.187-3.62 1.187-1.641 0-2.933-.551-3.877-1.653-.937-1.107-1.406-2.625-1.406-4.552v-.783c0-1.23.217-2.314.65-3.251.434-.938 1.052-1.656 1.855-2.154.809-.504 1.746-.756 2.812-.756 1.477 0 2.666.396 3.569 1.187.902.79 1.424 1.901 1.564 3.33h-2.636c-.065-.825-.296-1.423-.695-1.792-.392-.375-.993-.563-1.802-.563-.879 0-1.538.317-1.977.95-.434.627-.656 1.602-.668 2.926v.967c0 1.383.208 2.394.624 3.033.422.638 1.084.958 1.986.958.815 0 1.421-.185 1.82-.554.404-.375.635-.952.694-1.732H79zm10.29-.246V17h-2.636V4.203h4.992c.96 0 1.804.176 2.531.527.732.352 1.295.853 1.688 1.503.392.645.588 1.38.588 2.206 0 1.254-.43 2.245-1.292 2.971-.855.72-2.042 1.081-3.56 1.081h-2.31zm0-2.136h2.356c.697 0 1.227-.164 1.59-.492.37-.328.554-.797.554-1.406 0-.627-.184-1.134-.553-1.52-.37-.387-.88-.586-1.53-.598h-2.417v4.016zm14.44 1.96h-2.101V17h-2.636V4.203h4.755c1.511 0 2.677.337 3.498 1.01.82.675 1.23 1.627 1.23 2.857 0 .873-.19 1.603-.571 2.189-.375.58-.947 1.043-1.714 1.389l2.768 5.229V17h-2.83l-2.399-4.685zm-2.101-2.135h2.127c.662 0 1.175-.167 1.538-.501.364-.34.545-.806.545-1.398 0-.603-.172-1.078-.518-1.424-.34-.345-.864-.518-1.573-.518h-2.119v3.84zm17.279 1.274h-5.063v3.428h5.942V17h-8.578V4.203h8.56V6.34h-5.924v3.05h5.063v2.065zm5.782 1.037V17h-2.636V4.203h4.992c.961 0 1.805.176 2.531.527.733.352 1.295.853 1.688 1.503.392.645.589 1.38.589 2.206 0 1.254-.431 2.245-1.292 2.971-.856.72-2.042 1.081-3.56 1.081h-2.312zm0-2.136h2.356c.697 0 1.227-.164 1.591-.492.369-.328.553-.797.553-1.406 0-.627-.184-1.134-.553-1.52-.369-.387-.879-.586-1.53-.598h-2.417v4.016zm16.339 3.288c0-.498-.176-.88-.528-1.143-.351-.27-.984-.55-1.898-.844-.914-.299-1.638-.591-2.171-.879-1.453-.785-2.18-1.842-2.18-3.173 0-.69.194-1.306.58-1.845.393-.545.953-.97 1.679-1.275.732-.304 1.553-.457 2.461-.457.914 0 1.729.167 2.443.501.715.328 1.269.794 1.661 1.398.399.603.598 1.289.598 2.056h-2.637c0-.586-.184-1.04-.553-1.362-.369-.328-.888-.492-1.556-.492-.644 0-1.145.138-1.503.413-.357.27-.536.627-.536 1.072 0 .416.208.765.624 1.046.422.281 1.04.545 1.855.791 1.5.451 2.592 1.01 3.278 1.679.685.668 1.028 1.5 1.028 2.496 0 1.107-.419 1.977-1.257 2.61-.838.627-1.966.94-3.383.94-.985 0-1.881-.178-2.69-.535-.809-.364-1.427-.859-1.854-1.486-.422-.627-.633-1.353-.633-2.18h2.645c0 1.413.844 2.119 2.532 2.119.626 0 1.116-.126 1.467-.378.352-.258.528-.615.528-1.072zM161.806 17h-2.637v-5.484h-5.142V17h-2.636V4.203h2.636V9.39h5.142V4.203h2.637V17zm5.835 0h-2.637V4.203h2.637V17zm12.541-10.661h-3.92V17h-2.637V6.339h-3.867V4.203h10.424V6.34zM187.089 17V4.203h4.482c1.553 0 2.731.299 3.534.897.802.591 1.204 1.462 1.204 2.61 0 .627-.161 1.18-.484 1.661a2.8 2.8 0 01-1.344 1.046c.656.164 1.171.495 1.546.993.381.498.572 1.108.572 1.828 0 1.23-.393 2.162-1.178 2.795-.785.633-1.904.955-3.357.967h-4.975zm2.637-5.572v3.454h2.258c.622 0 1.105-.147 1.451-.44.351-.298.527-.709.527-1.23 0-1.172-.606-1.767-1.819-1.784h-2.417zm0-1.864h1.951c1.33-.023 1.995-.553 1.995-1.59 0-.58-.17-.996-.51-1.248-.334-.258-.864-.387-1.591-.387h-1.845v3.225zm13.499.405l2.663-5.766h2.883l-4.201 8.156V17h-2.681v-4.64l-4.201-8.157h2.891l2.646 5.766zM11.189 33.737c-.1 1.377-.61 2.461-1.53 3.252-.914.791-2.12 1.187-3.62 1.187-1.642 0-2.934-.551-3.877-1.653-.937-1.107-1.406-2.625-1.406-4.552v-.782c0-1.231.217-2.315.65-3.253.434-.937 1.052-1.655 1.855-2.153.808-.504 1.746-.756 2.812-.756 1.477 0 2.666.396 3.569 1.187.902.79 1.423 1.901 1.564 3.33H8.57c-.064-.825-.296-1.423-.694-1.792-.393-.375-.993-.563-1.802-.563-.879 0-1.538.317-1.977.95-.434.627-.657 1.602-.668 2.926v.967c0 1.383.208 2.394.624 3.033.422.638 1.084.958 1.986.958.815 0 1.421-.185 1.82-.554.404-.375.635-.952.694-1.732h2.636zm12.963-1.845c0 1.26-.223 2.364-.668 3.313-.446.95-1.084 1.682-1.916 2.197-.827.516-1.776.774-2.848.774-1.06 0-2.007-.255-2.839-.765-.832-.51-1.476-1.236-1.934-2.18-.456-.949-.688-2.039-.694-3.27v-.632c0-1.26.226-2.367.677-3.322.457-.961 1.099-1.697 1.925-2.206.832-.516 1.781-.774 2.847-.774 1.067 0 2.013.258 2.84.774.831.51 1.473 1.245 1.924 2.206.457.955.686 2.06.686 3.313v.572zm-2.672-.58c0-1.342-.24-2.362-.72-3.06-.481-.696-1.167-1.045-2.058-1.045-.884 0-1.567.346-2.047 1.037-.48.686-.724 1.694-.73 3.024v.624c0 1.306.24 2.32.72 3.04.481.721 1.173 1.082 2.075 1.082.885 0 1.565-.346 2.04-1.037.474-.698.714-1.711.72-3.041v-.625zm9.843 3.515l2.9-9.624h2.936L32.703 38h-2.751l-4.439-12.797h2.927l2.883 9.624zM41.895 38H39.26V25.203h2.636V38zm3.172 0V25.203h3.938c1.125 0 2.13.255 3.015.765a5.258 5.258 0 012.083 2.162c.498.931.747 1.992.747 3.181v.59c0 1.189-.246 2.247-.739 3.172a5.228 5.228 0 01-2.065 2.154c-.89.51-1.895.767-3.015.773h-3.963zm2.637-10.661v8.543h1.275c1.03 0 1.819-.337 2.364-1.01.545-.675.823-1.639.835-2.892v-.677c0-1.301-.27-2.285-.809-2.953-.539-.674-1.327-1.011-2.364-1.011h-1.3zM62.697 38V25.203h4.482c1.553 0 2.73.299 3.534.897.802.591 1.204 1.461 1.204 2.61 0 .627-.162 1.18-.484 1.661-.322.475-.77.823-1.344 1.046.656.164 1.171.495 1.546.993.381.498.572 1.108.572 1.828 0 1.23-.393 2.162-1.178 2.795-.785.633-1.904.955-3.357.967h-4.975zm2.637-5.572v3.454h2.258c.622 0 1.105-.147 1.45-.44.352-.298.528-.709.528-1.23 0-1.172-.606-1.767-1.82-1.784h-2.416zm0-1.863h1.95c1.33-.024 1.996-.554 1.996-1.591 0-.58-.17-.997-.51-1.248-.334-.258-.864-.387-1.59-.387h-1.846v3.226zm19.265-5.362v8.429c0 1.4-.44 2.508-1.319 3.322-.873.815-2.068 1.222-3.586 1.222-1.494 0-2.68-.396-3.56-1.187-.878-.79-1.326-1.878-1.344-3.26v-8.526h2.637v8.446c0 .838.199 1.45.597 1.837.405.381.961.572 1.67.572 1.483 0 2.236-.78 2.26-2.338v-8.517h2.645zm12.514 2.136h-3.92V38h-2.636V27.339H86.69v-2.136h10.424v2.136zm13.543 7.304c0-.498-.176-.88-.527-1.143-.352-.27-.985-.55-1.899-.844-.914-.299-1.637-.591-2.171-.879-1.453-.785-2.179-1.842-2.179-3.172 0-.692.193-1.307.58-1.846.392-.545.952-.97 1.678-1.275.733-.304 1.553-.457 2.461-.457.914 0 1.729.167 2.444.501.715.328 1.268.794 1.661 1.398.398.603.598 1.289.598 2.056h-2.637c0-.585-.185-1.04-.554-1.362-.369-.328-.888-.492-1.556-.492-.644 0-1.145.138-1.502.413-.358.27-.537.627-.537 1.072 0 .416.208.765.624 1.046.422.281 1.04.545 1.855.791 1.5.451 2.593 1.01 3.278 1.679.686.668 1.029 1.5 1.029 2.496 0 1.107-.419 1.977-1.257 2.61-.838.627-1.966.94-3.384.94-.984 0-1.881-.178-2.69-.535-.808-.364-1.426-.859-1.854-1.486-.422-.627-.633-1.353-.633-2.18h2.646c0 1.413.843 2.119 2.531 2.119.627 0 1.116-.126 1.468-.378.351-.258.527-.615.527-1.072zM126.23 38h-2.637v-5.484h-5.142V38h-2.636V25.203h2.636v5.186h5.142v-5.186h2.637V38zm10.414-2.637h-4.623L131.142 38h-2.804l4.764-12.797h2.443L140.335 38h-2.803l-.888-2.637zm-3.911-2.136h3.199l-1.608-4.79-1.591 4.79zm14.255.088h-2.101V38h-2.636V25.203h4.755c1.511 0 2.677.337 3.498 1.01.82.675 1.23 1.627 1.23 2.857 0 .873-.19 1.603-.571 2.189-.375.58-.947 1.043-1.714 1.389l2.768 5.229V38h-2.83l-2.399-4.685zm-2.101-2.135h2.127c.662 0 1.175-.167 1.538-.501.364-.34.545-.806.545-1.398 0-.603-.173-1.078-.518-1.424-.34-.345-.865-.518-1.573-.518h-2.119v3.84zm16.804 4.183h-4.623L156.189 38h-2.803l4.763-12.797h2.444L165.383 38h-2.804l-.888-2.637zm-3.911-2.136h3.199l-1.608-4.79-1.591 4.79zm18.096-5.888h-3.92V38h-2.636V27.339h-3.868v-2.136h10.424v2.136zM188.523 38h-2.637v-5.484h-5.141V38h-2.637V25.203h2.637v5.186h5.141v-5.186h2.637V38zM11.109 55.309l1.723-9.106h2.628L12.621 59H9.967l-2.083-8.56L5.8 59H3.146L.308 46.203h2.628l1.731 9.088 2.11-9.088h2.232l2.1 9.106zm17.015-2.417c0 1.26-.222 2.364-.668 3.313-.445.95-1.084 1.682-1.916 2.197-.826.516-1.775.774-2.847.774-1.06 0-2.007-.255-2.84-.765-.831-.51-1.476-1.236-1.933-2.18-.457-.949-.688-2.039-.694-3.27v-.632c0-1.26.225-2.367.677-3.322.457-.961 1.098-1.697 1.924-2.206.832-.516 1.782-.774 2.848-.774 1.066 0 2.013.258 2.839.774.832.51 1.474 1.245 1.925 2.206.457.955.685 2.06.685 3.313v.572zm-2.672-.58c0-1.342-.24-2.362-.72-3.06-.48-.696-1.166-1.045-2.057-1.045-.885 0-1.567.346-2.048 1.037-.48.686-.723 1.694-.73 3.024v.624c0 1.306.241 2.32.721 3.04.48.721 1.172 1.082 2.075 1.082.884 0 1.564-.346 2.039-1.037.474-.698.715-1.711.72-3.041v-.624zM41.167 59H38.53l-5.133-8.42V59H30.76V46.203h2.637l5.142 8.438v-8.438h2.628V59zm3.585-8.868l-1.196-.694c.504-.791.765-1.609.783-2.453V45.5h2.021v1.362c0 .528-.146 1.099-.44 1.714a4.71 4.71 0 01-1.168 1.556zm13.921-1.793h-3.92V59h-2.637V48.339H48.25v-2.136h10.424v2.136zM65.58 59V46.203h4.482c1.553 0 2.73.299 3.533.897.803.591 1.204 1.462 1.204 2.61 0 .627-.16 1.18-.483 1.661-.322.475-.77.823-1.345 1.046.657.164 1.172.495 1.547.993.381.498.572 1.108.572 1.828 0 1.23-.393 2.162-1.178 2.795-.785.633-1.905.955-3.358.967H65.58zm2.636-5.572v3.454h2.26c.62 0 1.104-.147 1.45-.44.351-.298.527-.709.527-1.23 0-1.172-.607-1.767-1.82-1.784h-2.416zm0-1.863h1.952c1.33-.024 1.995-.554 1.995-1.591 0-.58-.17-.996-.51-1.248-.334-.258-.864-.387-1.59-.387h-1.847v3.226zm17.28 1.89h-5.063v3.427h5.941V59h-8.578V46.203h8.56v2.136h-5.923v3.05h5.062v2.065zM10.827 67.202v8.429c0 1.4-.44 2.508-1.318 3.322-.873.815-2.069 1.222-3.586 1.222-1.494 0-2.68-.396-3.56-1.187-.879-.79-1.327-1.878-1.344-3.26v-8.526h2.636v8.446c0 .838.2 1.45.598 1.837.404.381.96.572 1.67.572 1.482 0 2.235-.78 2.259-2.338v-8.517h2.645zM24.116 80H21.48l-5.133-8.42V80H13.71V67.203h2.637l5.142 8.438v-8.438h2.627V80zm3.023 0V67.203h3.938c1.125 0 2.13.255 3.014.765a5.258 5.258 0 012.083 2.162c.498.931.747 1.992.747 3.181v.59c0 1.189-.246 2.246-.738 3.172a5.228 5.228 0 01-2.065 2.154c-.89.51-1.896.767-3.015.773H27.14zm2.637-10.661v8.543h1.274c1.032 0 1.82-.337 2.365-1.01.544-.675.823-1.639.835-2.892v-.677c0-1.301-.27-2.285-.809-2.953-.54-.674-1.327-1.011-2.364-1.011h-1.301zm17.49 5.115h-5.063v3.428h5.941V80h-8.578V67.203h8.56v2.136h-5.923v3.05h5.063v2.065zm7.883.861h-2.101V80h-2.637V67.203h4.755c1.512 0 2.678.337 3.498 1.01.82.675 1.23 1.627 1.23 2.857 0 .873-.19 1.603-.57 2.189-.376.58-.947 1.043-1.715 1.388l2.769 5.23V80h-2.83l-2.4-4.685zm-2.101-2.135h2.127c.662 0 1.175-.167 1.538-.501.363-.34.545-.806.545-1.398 0-.603-.173-1.078-.519-1.424-.34-.345-.864-.518-1.573-.518h-2.118v3.84zm12.216 2.311V80h-2.637V67.203h4.992c.962 0 1.805.176 2.532.528.732.351 1.295.852 1.687 1.502.393.645.59 1.38.59 2.206 0 1.254-.431 2.245-1.293 2.971-.855.72-2.042 1.081-3.56 1.081h-2.31zm0-2.135h2.356c.697 0 1.227-.165 1.59-.493.37-.328.554-.797.554-1.406 0-.627-.184-1.134-.554-1.52-.369-.387-.879-.586-1.529-.598h-2.417v4.017zm14.44 1.96h-2.1V80h-2.638V67.203h4.755c1.512 0 2.678.337 3.498 1.01.82.675 1.23 1.627 1.23 2.857 0 .873-.19 1.603-.57 2.189-.375.58-.947 1.043-1.714 1.388l2.768 5.23V80h-2.83l-2.4-4.685zm-2.1-2.136h2.126c.662 0 1.175-.167 1.538-.501.364-.34.545-.806.545-1.398 0-.603-.173-1.078-.518-1.424-.34-.345-.865-.518-1.574-.518h-2.118v3.84zm17.278 1.274h-5.063v3.428h5.942V80h-8.578V67.203h8.56v2.136H89.82v3.05h5.063v2.065zm5.782 1.037V80h-2.636V67.203h4.992c.961 0 1.804.176 2.531.528.732.351 1.295.852 1.688 1.502.392.645.588 1.38.588 2.206 0 1.254-.43 2.245-1.292 2.971-.855.72-2.042 1.081-3.559 1.081h-2.312zm0-2.135h2.356c.697 0 1.227-.165 1.591-.493.369-.328.553-.797.553-1.406 0-.627-.184-1.134-.553-1.52-.37-.387-.879-.586-1.53-.598h-2.417v4.017zm15.363 4.007h-4.623L110.525 80h-2.804l4.764-12.797h2.443L119.718 80h-2.803l-.888-2.637zm-3.911-2.135h3.199l-1.608-4.79-1.591 4.79zm14.255.087h-2.101V80h-2.636V67.203h4.754c1.512 0 2.678.337 3.499 1.01.82.675 1.23 1.627 1.23 2.857 0 .873-.19 1.603-.571 2.189-.375.58-.947 1.043-1.714 1.388l2.768 5.23V80h-2.83l-2.399-4.685zm-2.101-2.135h2.127c.662 0 1.175-.167 1.538-.501.364-.34.545-.806.545-1.398 0-.603-.173-1.078-.518-1.424-.34-.345-.865-.518-1.574-.518h-2.118v3.84zm17.279 1.274h-5.063v3.428h5.942V80h-8.578V67.203h8.56v2.136h-5.924v3.05h5.063v2.065zM144.695 80V67.203h3.937c1.125 0 2.13.255 3.015.765a5.261 5.261 0 012.083 2.162c.498.931.747 1.992.747 3.181v.59c0 1.189-.246 2.246-.738 3.172a5.23 5.23 0 01-2.066 2.154c-.89.51-1.895.767-3.014.773h-3.964zm2.636-10.661v8.543h1.275c1.031 0 1.819-.337 2.364-1.01.545-.675.823-1.639.835-2.892v-.677c0-1.301-.269-2.285-.809-2.953-.539-.674-1.327-1.011-2.364-1.011h-1.301z" fill="#000"/></svg>