<svg width="240" height="63" viewBox="0 0 240 63" fill="none" xmlns="http://www.w3.org/2000/svg"><path d="M10.775 6.339h-3.92V17H4.22V6.339H.352V4.203h10.423V6.34zm12.498 4.553c0 1.26-.223 2.364-.668 3.313-.445.95-1.084 1.682-1.916 2.197-.826.516-1.776.774-2.848.774-1.06 0-2.007-.255-2.839-.765-.832-.51-1.476-1.236-1.933-2.18-.457-.949-.689-2.039-.695-3.27v-.632c0-1.26.226-2.367.677-3.322.457-.961 1.099-1.696 1.925-2.206.832-.516 1.781-.774 2.847-.774 1.067 0 2.013.258 2.84.774.831.51 1.473 1.245 1.924 2.206.457.955.686 2.06.686 3.313v.572zm-2.672-.58c0-1.342-.24-2.362-.72-3.06-.481-.696-1.167-1.045-2.058-1.045-.884 0-1.567.346-2.047 1.037-.48.686-.724 1.694-.73 3.024v.624c0 1.306.24 2.32.72 3.04.481.721 1.173 1.082 2.075 1.082.885 0 1.564-.346 2.04-1.037.474-.698.714-1.711.72-3.042v-.623zM28.712 17h-2.636V4.203h2.636V17zm11.012-4.509V17h-2.637V4.203h4.992c.961 0 1.805.176 2.532.527.732.352 1.294.853 1.687 1.503.392.645.589 1.38.589 2.206 0 1.254-.43 2.245-1.292 2.971-.856.72-2.042 1.081-3.56 1.081h-2.311zm0-2.136h2.355c.697 0 1.228-.164 1.591-.492.37-.328.554-.797.554-1.406 0-.627-.185-1.134-.554-1.52-.37-.387-.879-.586-1.53-.598h-2.416v4.016zm20.214.537c0 1.26-.223 2.364-.668 3.313-.445.95-1.084 1.682-1.916 2.197-.826.516-1.776.774-2.848.774-1.06 0-2.007-.255-2.839-.765-.832-.51-1.476-1.236-1.933-2.18-.457-.949-.689-2.039-.695-3.27v-.632c0-1.26.226-2.367.677-3.322.457-.961 1.099-1.696 1.925-2.206.832-.516 1.781-.774 2.848-.774 1.066 0 2.012.258 2.839.774.832.51 1.473 1.245 1.924 2.206.457.955.686 2.06.686 3.313v.572zm-2.672-.58c0-1.342-.24-2.362-.72-3.06-.481-.696-1.167-1.045-2.057-1.045-.885 0-1.568.346-2.048 1.037-.48.686-.724 1.694-.73 3.024v.624c0 1.306.24 2.32.721 3.04.48.721 1.172 1.082 2.074 1.082.885 0 1.565-.346 2.04-1.037.474-.698.714-1.711.72-3.042v-.623zm7.945 4.57h5.598V17h-8.235V4.203h2.637v10.679zm10.475 0h5.6V17H73.05V4.203h2.636v10.679zm7.796.87c0-.404.134-.732.404-.984.275-.252.618-.378 1.028-.378.416 0 .76.126 1.029.378.275.252.413.58.413.984 0 .398-.135.724-.405.975-.27.247-.615.37-1.037.37-.416 0-.758-.123-1.028-.37-.27-.251-.404-.577-.404-.975zm0-7.198c0-.405.134-.733.404-.985.275-.252.618-.378 1.028-.378.416 0 .76.126 1.029.378.275.252.413.58.413.985 0 .398-.135.723-.405.975-.27.246-.615.37-1.037.37-.416 0-.758-.124-1.028-.37-.27-.252-.404-.577-.404-.975zm21.092 4.183c-.1 1.377-.609 2.461-1.529 3.252-.914.791-2.121 1.187-3.621 1.187-1.641 0-2.933-.551-3.876-1.653-.938-1.107-1.407-2.625-1.407-4.552v-.783c0-1.23.217-2.314.65-3.251.434-.938 1.053-1.656 1.855-2.154.809-.504 1.746-.756 2.813-.756 1.476 0 2.666.396 3.568 1.187.902.79 1.424 1.901 1.565 3.33h-2.637c-.065-.825-.296-1.423-.694-1.792-.393-.375-.994-.563-1.802-.563-.88 0-1.538.317-1.978.95-.433.627-.656 1.602-.668 2.926v.967c0 1.383.208 2.394.624 3.033.422.638 1.084.958 1.987.958.814 0 1.421-.185 1.819-.554.404-.375.636-.952.694-1.732h2.637zm12.963-1.845c0 1.26-.222 2.364-.668 3.313-.445.95-1.084 1.682-1.916 2.197-.826.516-1.775.774-2.847.774-1.061 0-2.007-.255-2.839-.765-.832-.51-1.477-1.236-1.934-2.18-.457-.949-.688-2.039-.694-3.27v-.632c0-1.26.225-2.367.677-3.322.457-.961 1.098-1.696 1.924-2.206.832-.516 1.782-.774 2.848-.774 1.066 0 2.013.258 2.839.774.832.51 1.473 1.245 1.925 2.206.457.955.685 2.06.685 3.313v.572zm-2.672-.58c0-1.342-.24-2.362-.72-3.06-.481-.696-1.166-1.045-2.057-1.045-.885 0-1.567.346-2.048 1.037-.48.686-.724 1.694-.729 3.024v.624c0 1.306.24 2.32.72 3.04.481.721 1.172 1.082 2.075 1.082.884 0 1.564-.346 2.039-1.037.474-.698.714-1.711.72-3.042v-.623zM130.579 17h-2.636l-5.133-8.42V17h-2.637V4.203h2.637l5.142 8.438V4.203h2.627V17zm12.392-10.661h-3.92V17h-2.636V6.339h-3.867V4.203h10.423V6.34zM148.007 17h-2.637V4.203h2.637V17zm13.578 0h-2.637l-5.132-8.42V17h-2.637V4.203h2.637l5.141 8.438V4.203h2.628V17zm12.708-12.797v8.429c0 1.4-.439 2.508-1.318 3.322-.873.815-2.068 1.222-3.586 1.222-1.494 0-2.681-.396-3.559-1.187-.879-.79-1.328-1.878-1.345-3.26V4.203h2.637v8.446c0 .838.199 1.45.597 1.837.405.381.961.572 1.67.572 1.483 0 2.235-.78 2.259-2.338V4.203h2.645zM179.979 17h-2.636V4.203h2.636V17zm13.579 0h-2.637l-5.133-8.42V17h-2.637V4.203h2.637l5.142 8.438V4.203h2.628V17zm13.147-1.617c-.474.568-1.145 1.01-2.012 1.327-.867.31-1.828.466-2.883.466-1.108 0-2.08-.24-2.918-.72-.832-.487-1.477-1.19-1.934-2.11-.451-.92-.682-2.001-.694-3.244v-.87c0-1.277.214-2.381.642-3.313.433-.938 1.054-1.652 1.863-2.145.814-.498 1.766-.747 2.856-.747 1.518 0 2.704.364 3.56 1.09.855.72 1.362 1.773 1.52 3.155h-2.566c-.117-.732-.378-1.268-.782-1.608-.399-.34-.949-.51-1.653-.51-.896 0-1.579.337-2.047 1.011-.469.674-.706 1.676-.712 3.006v.817c0 1.342.255 2.356.764 3.041.51.686 1.257 1.029 2.242 1.029.99 0 1.696-.211 2.118-.633v-2.206h-2.4v-1.943h5.036v5.107zM11.109 34.309l1.723-9.106h2.628L12.621 38H9.967l-2.083-8.56L5.8 38H3.146L.308 25.203h2.628l1.731 9.088 2.11-9.088h2.232l2.1 9.106zM20.416 38H17.78V25.203h2.636V38zm12.542-10.661h-3.92V38H26.4V27.339h-3.867v-2.136h10.424v2.136zM45.604 38h-2.636v-5.484h-5.142V38h-2.637V25.203h2.637v5.186h5.142v-5.186h2.636V38zm11.038 0h-2.637V25.203h2.637V38zm5.809-4.509V38h-2.637V25.203h4.992c.961 0 1.805.176 2.532.527.732.352 1.294.853 1.687 1.503.393.645.589 1.38.589 2.206 0 1.254-.43 2.245-1.292 2.971-.856.72-2.042 1.081-3.56 1.081h-2.311zm0-2.136h2.355c.698 0 1.228-.164 1.591-.492.37-.328.554-.797.554-1.406 0-.627-.185-1.134-.554-1.52-.369-.387-.879-.586-1.53-.598h-2.416v4.017zm12.339 4.527h5.599V38h-8.236V25.203h2.637v10.679zM90.635 38H88V25.203h2.636V38zm9.808-3.357c0-.498-.176-.88-.527-1.143-.352-.27-.985-.55-1.899-.844-.914-.299-1.637-.591-2.17-.879-1.454-.785-2.18-1.842-2.18-3.172 0-.692.193-1.307.58-1.846.392-.545.952-.97 1.679-1.275.732-.304 1.552-.457 2.46-.457.915 0 1.729.167 2.444.501.715.328 1.268.794 1.661 1.398.398.603.598 1.289.598 2.056h-2.637c0-.585-.185-1.04-.554-1.362-.369-.328-.888-.492-1.555-.492-.645 0-1.146.138-1.503.413-.358.27-.537.627-.537 1.072 0 .416.209.765.624 1.046.422.281 1.04.545 1.855.791 1.5.451 2.593 1.01 3.278 1.679.686.668 1.029 1.5 1.029 2.496 0 1.107-.419 1.977-1.257 2.61-.838.627-1.966.94-3.384.94-.984 0-1.88-.178-2.69-.535-.808-.364-1.426-.859-1.854-1.486-.422-.627-.633-1.353-.633-2.18h2.646c0 1.413.843 2.119 2.531 2.119.627 0 1.116-.126 1.468-.378.351-.258.527-.615.527-1.072zm20.486 1.74c-.475.568-1.145 1.01-2.013 1.327-.867.31-1.828.466-2.882.466-1.108 0-2.081-.24-2.918-.72-.832-.487-1.477-1.19-1.934-2.11-.451-.92-.683-2.001-.694-3.243v-.87c0-1.278.214-2.382.641-3.314.434-.938 1.055-1.652 1.864-2.145.814-.498 1.766-.747 2.856-.747 1.518 0 2.704.364 3.56 1.09.855.72 1.362 1.773 1.52 3.155h-2.566c-.118-.732-.378-1.268-.783-1.608-.398-.34-.949-.51-1.652-.51-.896 0-1.579.337-2.048 1.011-.469.674-.706 1.676-.712 3.006v.817c0 1.342.255 2.356.765 3.041.51.686 1.257 1.029 2.241 1.029.99 0 1.696-.211 2.118-.633v-2.206h-2.399v-1.943h5.036v5.107zm7.602-3.068h-2.101V38h-2.636V25.203h4.754c1.512 0 2.678.337 3.499 1.01.82.675 1.23 1.627 1.23 2.857 0 .873-.19 1.603-.571 2.189-.375.58-.947 1.043-1.714 1.389l2.768 5.229V38h-2.83l-2.399-4.685zm-2.101-2.135h2.127c.662 0 1.175-.167 1.538-.501.364-.34.545-.806.545-1.398 0-.603-.173-1.078-.518-1.424-.34-.345-.865-.518-1.574-.518h-2.118v3.84zm17.279 1.274h-5.063v3.428h5.942V38h-8.578V25.203h8.56v2.136h-5.924v3.05h5.063v2.065zm10.845 0h-5.063v3.428h5.942V38h-8.578V25.203h8.56v2.136h-5.924v3.05h5.063v2.065zM157.7 38V25.203h3.937c1.125 0 2.13.255 3.015.765a5.261 5.261 0 012.083 2.162c.498.931.747 1.992.747 3.181v.59c0 1.189-.246 2.247-.738 3.172a5.23 5.23 0 01-2.066 2.154c-.89.51-1.895.767-3.014.773H157.7zm2.636-10.661v8.543h1.275c1.031 0 1.819-.337 2.364-1.01.545-.675.823-1.639.835-2.892v-.677c0-1.301-.269-2.285-.809-2.953-.539-.674-1.327-1.011-2.364-1.011h-1.301zm25.505 4.553c0 1.26-.223 2.364-.668 3.313-.445.95-1.084 1.682-1.916 2.197-.826.516-1.776.774-2.848.774-1.06 0-2.007-.255-2.839-.765-.832-.51-1.476-1.236-1.933-2.18-.457-.949-.689-2.039-.695-3.27v-.632c0-1.26.226-2.367.677-3.322.457-.961 1.099-1.697 1.925-2.206.832-.516 1.781-.774 2.848-.774 1.066 0 2.012.258 2.839.774.832.51 1.473 1.245 1.924 2.206.457.955.686 2.06.686 3.313v.572zm-2.672-.58c0-1.342-.24-2.362-.721-3.06-.48-.696-1.166-1.045-2.056-1.045-.885 0-1.568.346-2.048 1.037-.481.686-.724 1.694-.73 3.024v.624c0 1.306.241 2.32.721 3.04.48.721 1.172 1.082 2.074 1.082.885 0 1.565-.346 2.039-1.037.475-.698.715-1.711.721-3.041v-.625zm10.045 2.003h-2.1V38h-2.637V25.203h4.755c1.511 0 2.678.337 3.498 1.01.82.675 1.23 1.627 1.23 2.857 0 .873-.19 1.603-.571 2.189-.375.58-.946 1.043-1.714 1.389l2.769 5.229V38h-2.83l-2.4-4.685zm-2.1-2.135h2.127c.662 0 1.174-.167 1.538-.501.363-.34.545-.806.545-1.398 0-.603-.173-1.078-.519-1.424-.34-.345-.864-.518-1.573-.518h-2.118v3.84zM4.588 46.203l3.287 9.281 3.27-9.28h3.462V59h-2.645v-3.498l.264-6.038L8.77 59h-1.81l-3.445-9.527.263 6.029V59H1.143V46.203h3.445zm22.728 0v8.429c0 1.4-.44 2.508-1.319 3.322-.873.815-2.068 1.222-3.586 1.222-1.494 0-2.68-.396-3.56-1.187-.878-.79-1.326-1.878-1.344-3.26v-8.526h2.637v8.446c0 .838.199 1.45.598 1.837.404.381.96.572 1.67.572 1.482 0 2.235-.78 2.258-2.338v-8.517h2.646zm12.928 8.534c-.1 1.377-.61 2.461-1.53 3.252-.914.791-2.12 1.187-3.62 1.187-1.641 0-2.933-.551-3.877-1.653-.937-1.107-1.406-2.625-1.406-4.552v-.782c0-1.231.217-2.315.65-3.252.434-.938 1.052-1.656 1.855-2.154.809-.504 1.746-.756 2.813-.756 1.476 0 2.666.396 3.568 1.187.902.79 1.424 1.901 1.564 3.33h-2.636c-.065-.825-.296-1.423-.695-1.792-.392-.375-.993-.563-1.801-.563-.88 0-1.539.317-1.978.95-.434.627-.656 1.602-.668 2.926v.967c0 1.383.208 2.394.624 3.033.422.638 1.084.958 1.986.958.815 0 1.421-.185 1.82-.554.404-.375.635-.952.694-1.732h2.637zM53.11 59h-2.636v-5.484h-5.142V59h-2.637V46.203h2.637v5.186h5.142v-5.186h2.636V59zm7.804-4.456h-4.948v-2.048h4.948v2.048zM74.246 59H71.61l-5.133-8.42V59H63.84V46.203h2.637l5.142 8.438v-8.438h2.627V59zm10.722-5.546h-5.062v3.428h5.941V59H77.27V46.203h8.56v2.136h-5.923v3.05h5.062v2.065zm10.845 0h-5.062v3.428h5.941V59h-8.578V46.203h8.56v2.136h-5.923v3.05h5.062v2.065zM98.96 59V46.203h3.938c1.125 0 2.13.255 3.014.765a5.255 5.255 0 012.083 2.162c.498.931.747 1.992.747 3.181v.59c0 1.189-.246 2.246-.738 3.172a5.228 5.228 0 01-2.065 2.154c-.891.51-1.896.767-3.015.773h-3.964zm2.637-10.661v8.543h1.274c1.032 0 1.82-.337 2.365-1.01.545-.675.823-1.639.835-2.892v-.677c0-1.301-.27-2.285-.809-2.953-.539-.674-1.327-1.011-2.364-1.011h-1.301zm17.489 5.115h-5.062v3.428h5.941V59h-8.578V46.203h8.561v2.136h-5.924v3.05h5.062v2.065zM122.231 59V46.203h3.938c1.125 0 2.13.255 3.014.765a5.255 5.255 0 012.083 2.162c.498.931.747 1.992.747 3.181v.59c0 1.189-.246 2.246-.738 3.172a5.228 5.228 0 01-2.065 2.154c-.891.51-1.896.767-3.015.773h-3.964zm2.637-10.661v8.543h1.274c1.032 0 1.82-.337 2.365-1.01.545-.675.823-1.639.835-2.892v-.677c0-1.301-.27-2.285-.809-2.953-.539-.674-1.327-1.011-2.364-1.011h-1.301zm19.73 5.976h-2.101V59h-2.636V46.203h4.755c1.511 0 2.677.337 3.498 1.01.82.675 1.23 1.627 1.23 2.857 0 .873-.19 1.603-.571 2.189-.375.58-.946 1.043-1.714 1.389l2.768 5.229V59h-2.83l-2.399-4.685zm-2.101-2.135h2.127c.662 0 1.175-.167 1.538-.501.364-.34.545-.806.545-1.398 0-.603-.172-1.078-.518-1.424-.34-.345-.864-.518-1.573-.518h-2.119v3.84zm17.279 1.274h-5.062v3.428h5.941V59h-8.578V46.203h8.56v2.136h-5.923v3.05h5.062v2.065zm5.783 3.428h5.598V59h-8.235V46.203h2.637v10.679zM176.201 59h-2.636V46.203h2.636V59zm10.872-5.546h-5.063v3.428h5.942V59h-8.578V46.203h8.56v2.136h-5.924v3.05h5.063v2.065zm10.845.316h-5.063V59h-2.636V46.203h8.332v2.136h-5.696v3.305h5.063v2.127zm4.789 1.301c0-.82.1-1.473.299-1.96.199-.486.562-.963 1.09-1.432.533-.475.887-.859 1.063-1.152.176-.299.264-.612.264-.94 0-.99-.457-1.485-1.371-1.485-.434 0-.782.134-1.046.404-.258.264-.393.63-.404 1.099h-2.549c.011-1.12.372-1.996 1.081-2.628.715-.633 1.687-.95 2.918-.95 1.242 0 2.206.302 2.891.906.686.597 1.029 1.444 1.029 2.54 0 .498-.112.97-.334 1.415-.223.44-.613.928-1.169 1.468l-.712.676c-.445.428-.7.929-.765 1.503l-.035.536h-2.25zm-.255 2.699c0-.393.132-.715.396-.967.269-.258.612-.387 1.028-.387.416 0 .756.129 1.02.387.269.252.404.574.404.967 0 .386-.132.706-.396.957-.257.253-.6.379-1.028.379-.428 0-.773-.127-1.037-.379a1.282 1.282 0 01-.387-.957z" fill="#000"/></svg>