<svg width="276" height="52" viewBox="0 0 276 52" fill="none" xmlns="http://www.w3.org/2000/svg"><path fill="#031841" stroke="#fff" stroke-width="2" d="M1 1h274v50H1z"/><path d="M54.377 28.382V32h-2.571V21.336h4.255c.816 0 1.536.151 2.16.454.63.298 1.116.725 1.458 1.282.347.552.52 1.179.52 1.882 0 1.04-.373 1.873-1.12 2.498-.743.62-1.763.93-3.062.93h-1.64zm0-1.985h1.684c.498 0 .877-.124 1.135-.374.264-.249.396-.6.396-1.054 0-.498-.134-.896-.403-1.194-.269-.298-.635-.45-1.099-.454h-1.714v3.076zm9.499-1.472c.527-.664 1.201-.996 2.021-.996.874 0 1.534.259 1.978.776.444.518.671 1.282.681 2.293V32h-2.475v-4.944c0-.42-.086-.727-.257-.923-.17-.2-.461-.3-.871-.3-.508 0-.867.161-1.077.483V32h-2.468V20.75h2.468v4.175zm5.742 3.04c0-.792.154-1.495.462-2.11.307-.62.75-1.096 1.325-1.428.576-.332 1.253-.498 2.03-.498 1.186 0 2.12.368 2.804 1.106.684.732 1.026 1.73 1.026 2.995v.088c0 1.236-.345 2.217-1.033 2.945-.684.722-1.611 1.084-2.783 1.084-1.128 0-2.034-.337-2.718-1.011-.683-.679-1.052-1.597-1.105-2.754l-.008-.418zm2.468.153c0 .733.115 1.27.345 1.612.23.341.569.512 1.018.512.879 0 1.328-.676 1.347-2.029v-.249c0-1.42-.454-2.131-1.362-2.131-.825 0-1.272.613-1.34 1.838l-.008.447zm8.533-4.043l.08.93c.548-.717 1.302-1.076 2.264-1.076.825 0 1.44.246 1.846.74.41.493.622 1.235.637 2.226V32H82.97v-5.002c0-.4-.08-.694-.242-.88-.16-.19-.454-.285-.878-.285-.484 0-.843.19-1.077.571V32h-2.468v-7.925h2.314zm10.034 8.072c-1.216 0-2.2-.362-2.951-1.084-.752-.728-1.128-1.673-1.128-2.835v-.205c0-.81.149-1.526.447-2.146a3.295 3.295 0 011.318-1.436c.576-.341 1.26-.512 2.05-.512 1.114 0 1.993.346 2.637 1.04.645.688.967 1.65.967 2.886v.959h-4.907c.088.444.28.793.579 1.047.297.254.683.381 1.157.381.781 0 1.391-.273 1.83-.82l1.129 1.333c-.308.425-.745.764-1.311 1.018a4.428 4.428 0 01-1.817.374zm-.278-6.314c-.723 0-1.152.479-1.29 1.436h2.491v-.19c.01-.396-.09-.702-.3-.916-.21-.22-.51-.33-.901-.33zM107.748 32h-2.556l-3.779-6.636V32h-2.571V21.336h2.571l3.772 6.636v-6.636h2.563V32zm6.233-.857c-.523.669-1.228 1.004-2.117 1.004-.869 0-1.528-.252-1.977-.755-.445-.508-.667-1.235-.667-2.183v-5.134h2.468v5.15c0 .678.33 1.017.989 1.017.567 0 .969-.202 1.209-.608v-5.559h2.483V32h-2.315l-.073-.857zm6.079-7.068l.081.93c.561-.717 1.316-1.076 2.263-1.076 1.001 0 1.677.398 2.029 1.194.537-.796 1.313-1.194 2.329-1.194 1.606 0 2.431.971 2.475 2.915V32h-2.475v-5.002c0-.406-.069-.701-.205-.887-.137-.185-.386-.278-.747-.278-.489 0-.852.217-1.092.652l.008.102V32h-2.476v-4.988c0-.415-.066-.715-.198-.9-.132-.186-.383-.279-.754-.279-.474 0-.835.217-1.084.652V32h-2.468v-7.925h2.314zm17.944 4.029c0 1.298-.268 2.297-.805 2.995s-1.294 1.048-2.271 1.048c-.805 0-1.455-.32-1.948-.96l-.103.813h-2.211V20.75h2.468v3.962c.459-.522 1.052-.783 1.78-.783.986 0 1.748.354 2.285 1.062.537.708.805 1.704.805 2.988v.125zm-2.475-.154c0-.762-.103-1.304-.308-1.626-.2-.327-.51-.491-.93-.491-.557 0-.942.212-1.157.637v3.15c.21.42.6.63 1.172.63.581 0 .949-.284 1.106-.85.078-.278.117-.762.117-1.45zm7.405 4.197c-1.216 0-2.2-.362-2.952-1.084-.752-.728-1.128-1.673-1.128-2.835v-.205c0-.81.149-1.526.447-2.146a3.297 3.297 0 011.318-1.436c.576-.341 1.26-.512 2.051-.512 1.113 0 1.992.346 2.637 1.04.644.688.966 1.65.966 2.886v.959h-4.907c.088.444.281.793.579 1.047.298.254.683.381 1.157.381.781 0 1.392-.273 1.831-.82l1.128 1.333c-.308.425-.745.764-1.311 1.018a4.43 4.43 0 01-1.816.374zm-.279-6.314c-.722 0-1.152.479-1.289 1.436h2.49v-.19c.01-.396-.09-.702-.3-.916-.21-.22-.51-.33-.901-.33zm9.412.476l-.813-.059c-.776 0-1.275.245-1.494.733V32h-2.468v-7.925h2.314l.081 1.018c.415-.776.993-1.164 1.735-1.164.264 0 .494.029.689.088l-.044 2.292zm4.314 1.655c0-.79.154-1.494.461-2.109a3.3 3.3 0 011.326-1.428c.576-.332 1.252-.498 2.029-.498 1.186 0 2.121.368 2.805 1.106.684.732 1.025 1.73 1.025 2.995v.088c0 1.236-.344 2.217-1.032 2.945-.684.722-1.612 1.084-2.784 1.084-1.128 0-2.033-.337-2.717-1.011-.683-.679-1.052-1.597-1.106-2.754l-.007-.418zm2.468.154c0 .733.115 1.27.344 1.612.23.341.569.512 1.018.512.879 0 1.329-.676 1.348-2.029v-.249c0-1.42-.454-2.131-1.362-2.131-.825 0-1.272.613-1.341 1.838l-.007.447zm11.06-1.809l-.813-.059c-.777 0-1.275.245-1.494.733V32h-2.469v-7.925h2.315l.08 1.018c.415-.776.994-1.164 1.736-1.164.264 0 .493.029.689.088l-.044 2.292zm11.352 1.172h-4.043v2.541h4.776V32h-7.347V21.336h7.361v1.985h-4.79v2.248h4.043v1.912zm3.999-3.406l.081.93c.561-.717 1.316-1.076 2.263-1.076 1.001 0 1.677.398 2.029 1.194.537-.796 1.313-1.194 2.329-1.194 1.606 0 2.432.971 2.476 2.915V32h-2.476v-5.002c0-.406-.068-.701-.205-.887-.137-.185-.386-.278-.747-.278-.489 0-.852.217-1.092.652l.008.102V32h-2.476v-4.988c0-.415-.066-.715-.198-.9-.131-.186-.383-.279-.754-.279-.474 0-.835.217-1.084.652V32h-2.468v-7.925h2.314zM200.312 32c-.088-.161-.166-.398-.235-.71-.454.57-1.089.857-1.904.857-.747 0-1.382-.225-1.904-.674-.523-.454-.784-1.023-.784-1.707 0-.86.317-1.509.952-1.948.635-.44 1.558-.66 2.769-.66h.761v-.417c0-.727-.315-1.091-.945-1.091-.585 0-.878.288-.878.864h-2.469c0-.766.325-1.389.974-1.867.655-.479 1.487-.718 2.498-.718 1.011 0 1.809.246 2.395.74.586.493.886 1.169.901 2.028v3.509c.01.727.122 1.284.337 1.67V32h-2.468zm-1.546-1.611c.308 0 .562-.066.762-.198.205-.132.351-.28.439-.447v-1.267h-.717c-.86 0-1.29.386-1.29 1.157 0 .225.076.408.228.55a.829.829 0 00.578.205zM206.42 32h-2.476v-7.925h2.476V32zm-2.622-9.968c0-.352.127-.64.381-.864.254-.225.583-.337.988-.337.406 0 .735.112.989.337.254.224.381.512.381.864 0 .351-.127.64-.381.864-.254.225-.583.337-.989.337-.405 0-.734-.112-.988-.337a1.102 1.102 0 01-.381-.864zM210.551 32h-2.476V20.75h2.476V32zm8.115 0h-2.563V21.336h2.563V32zm1.787 0V21.336h3.435c.943 0 1.79.215 2.542.645a4.45 4.45 0 011.758 1.809c.424.776.639 1.648.644 2.614v.491c0 .977-.207 1.853-.623 2.63a4.52 4.52 0 01-1.743 1.816c-.747.434-1.582.654-2.505.659h-3.508zm2.571-8.68v6.703h.893c.738 0 1.304-.262 1.7-.784.395-.528.593-1.309.593-2.344v-.461c0-1.03-.198-1.807-.593-2.33-.396-.522-.972-.783-1.729-.783h-.864z" fill="#C4C4C4"/></svg>