<svg width="141" height="42" viewBox="0 0 141 42" fill="none" xmlns="http://www.w3.org/2000/svg"><path d="M33.27 28.254h10.74V33H27.1V7.406h6.17v20.848zm12.322-4.94c0-1.898.369-3.585 1.107-5.062.739-1.488 1.799-2.63 3.182-3.428 1.383-.797 3.006-1.195 4.869-1.195 2.848 0 5.092.885 6.732 2.654 1.641 1.758 2.461 4.154 2.461 7.19v.21c0 2.965-.826 5.32-2.478 7.067-1.64 1.734-3.867 2.602-6.68 2.602-2.707 0-4.88-.809-6.521-2.426-1.641-1.63-2.526-3.832-2.655-6.61l-.017-1.002zm5.924.37c0 1.757.275 3.046.826 3.867.55.82 1.365 1.23 2.443 1.23 2.11 0 3.188-1.623 3.235-4.869v-.598c0-3.41-1.09-5.115-3.27-5.115-1.98 0-3.053 1.47-3.217 4.412l-.017 1.073zm14.343-.334c0-1.922.317-3.622.95-5.098.632-1.477 1.54-2.613 2.724-3.41 1.184-.809 2.56-1.213 4.131-1.213 1.98 0 3.527.668 4.64 2.004l.212-1.652h5.378v18.298c0 1.676-.392 3.13-1.177 4.36-.774 1.242-1.899 2.191-3.375 2.847-1.477.668-3.188 1.002-5.133 1.002-1.395 0-2.748-.263-4.06-.79-1.301-.528-2.297-1.214-2.989-2.057l2.479-3.48c1.101 1.3 2.554 1.95 4.359 1.95 2.625 0 3.938-1.347 3.938-4.043v-.597c-1.137 1.254-2.573 1.88-4.307 1.88-2.32 0-4.195-.884-5.625-2.654-1.43-1.781-2.145-4.16-2.145-7.136v-.211zm5.942.369c0 1.558.293 2.795.879 3.709.586.902 1.406 1.353 2.46 1.353 1.278 0 2.21-.427 2.796-1.283V19.5c-.575-.867-1.495-1.3-2.76-1.3-1.055 0-1.881.474-2.479 1.423-.597.938-.896 2.303-.896 4.096zM93.51 33h-5.942V13.98h5.942V33zM87.217 9.076c0-.844.305-1.535.914-2.074.61-.54 1.4-.809 2.373-.809.973 0 1.764.27 2.373.809.61.539.914 1.23.914 2.074 0 .844-.305 1.535-.914 2.074-.61.54-1.4.809-2.373.809-.973 0-1.764-.27-2.373-.809-.61-.539-.914-1.23-.914-2.074zm15.398 4.904l.194 2.233c1.312-1.723 3.123-2.584 5.431-2.584 1.981 0 3.457.592 4.43 1.775.984 1.184 1.494 2.965 1.529 5.344V33h-5.941V20.994c0-.96-.194-1.664-.58-2.11-.387-.456-1.09-.685-2.11-.685-1.16 0-2.021.457-2.584 1.371V33h-5.923V13.98h5.554z" fill="#C80E0E"/><path d="M33.27 28.254h-1v1h1v-1zm10.74 0h1v-1h-1v1zm0 4.746v1h1v-1h-1zM27.1 33h-1v1h1v-1zm0-25.594v-1h-1v1h1zm6.17 0h1v-1h-1v1zm0 21.848h10.74v-2H33.27v2zm9.74-1V33h2v-4.746h-2zm1 3.746H27.1v2h16.91v-2zM28.1 33V7.406h-2V33h2zm-1-24.594h6.17v-2H27.1v2zm5.17-1v20.848h2V7.406h-2zm13.322 15.909h-1v.017l1-.018zm1.107-5.063l.895.447.001-.003-.896-.444zm14.783-1.969l-.733.68.002.002.731-.682zm-.017 14.467l-.727-.687.727.687zm-13.201.176l-.705.71.003.002.702-.712zm-2.655-6.61l-1 .018v.014l.002.015.998-.047zm5.907-.632l-1-.017v.017h1zm6.504.228l1 .015v-.015h-1zm-6.487-1.3l-.998-.056-.001.02v.019l1 .016zm-4.941.703c0-1.767.343-3.298 1.002-4.616l-1.79-.894c-.817 1.635-1.212 3.48-1.212 5.51h2zm1.003-4.619c.654-1.319 1.58-2.311 2.785-3.005l-.998-1.733c-1.561.9-2.756 2.192-3.579 3.85l1.792.888zm2.785-3.005c1.207-.696 2.652-1.062 4.37-1.062v-2c-2.009 0-3.81.43-5.368 1.329l.998 1.733zm4.37-1.062c2.624 0 4.582.806 6 2.334l1.466-1.36c-1.864-2.01-4.395-2.974-7.466-2.974v2zm6.001 2.336c1.426 1.528 2.192 3.657 2.192 6.508h2c0-3.22-.874-5.884-2.73-7.872l-1.462 1.364zm2.192 6.508v.21h2v-.21h-2zm0 .21c0 2.773-.767 4.86-2.204 6.38l1.452 1.374c1.867-1.973 2.752-4.596 2.752-7.753h-2zm-2.205 6.38c-1.418 1.499-3.362 2.289-5.953 2.289v2c3.034 0 5.543-.945 7.406-2.915l-1.453-1.374zm-5.953 2.289c-2.494 0-4.398-.738-5.82-2.138l-1.403 1.424c1.86 1.834 4.303 2.714 7.223 2.714v-2zm-5.817-2.136c-1.428-1.418-2.24-3.365-2.36-5.946l-1.997.093c.138 2.974 1.095 5.433 2.948 7.272l1.41-1.419zM46.61 24.3l-.017-1.002-2 .035.017 1.002 2-.035zm3.907-.615c0 1.82.277 3.354.996 4.424l1.66-1.115c-.383-.57-.656-1.615-.656-3.31h-2zm.996 4.424c.755 1.126 1.898 1.673 3.273 1.673v-2c-.78 0-1.267-.272-1.613-.788l-1.66 1.115zm3.273 1.673c1.357 0 2.482-.547 3.224-1.664.694-1.045.986-2.49 1.01-4.19l-2-.03c-.022 1.546-.293 2.536-.676 3.114-.337.506-.805.77-1.558.77v2zm4.235-5.869v-.598h-2v.598h2zm0-.598c0-1.779-.279-3.285-.975-4.375-.745-1.165-1.895-1.74-3.295-1.74v2c.78 0 1.265.278 1.61.818.393.615.66 1.667.66 3.297h2zM54.75 17.2c-1.277 0-2.355.495-3.098 1.514-.7.96-1.03 2.287-1.117 3.843l1.997.111c.077-1.386.364-2.265.737-2.776.329-.451.778-.692 1.481-.692v-2zm-4.217 5.396l-.017 1.072 2 .033.017-1.072-2-.033zm19-7.753l.559.83.005-.005-.564-.825zm8.772.79l-.769.641 1.47 1.763.29-2.277-.991-.126zm.21-1.652v-1h-.88l-.111.874.992.127zm5.38 0h1v-1h-1v1zM82.716 36.64l-.843-.538-.006.01.849.528zm-3.375 2.847l-.406-.913-.006.002.412.911zm-9.194.211l-.375.927.003.001.372-.928zm-2.988-2.056l-.814-.58-.444.622.485.591.773-.633zm2.479-3.48l.763-.647-.832-.982-.746 1.048.815.58zm8.297-2.69h1v-2.592l-1.741 1.92.74.672zm-9.932-.774l-.78.626.002.003.778-.629zm4.676-3.27l-.842.54.003.005.839-.544zm5.255.071l.826.565.175-.255v-.31h-1zm0-7.998h1v-.301l-.166-.251-.834.552zm-5.238.123l.843.538.003-.005-.846-.533zM66.86 23.35c0-1.813.299-3.374.869-4.704l-1.839-.788c-.695 1.623-1.03 3.46-1.03 5.492h2zm.869-4.704c.567-1.323 1.36-2.298 2.364-2.975l-1.117-1.659c-1.363.918-2.387 2.216-3.086 3.846l1.839.788zm2.37-2.979c1-.684 2.177-1.038 3.566-1.038v-2c-1.751 0-3.33.454-4.695 1.387l1.128 1.652zm3.566-1.038c1.73 0 2.977.57 3.873 1.644l1.536-1.28c-1.331-1.598-3.178-2.364-5.409-2.364v2zm5.633 1.13l.21-1.652-1.983-.253-.211 1.652 1.984.253zm-.781-.779h5.378v-2h-5.378v2zm4.378-1v18.3h2v-18.3h-2zm0 18.3c0 1.513-.352 2.774-1.02 3.82l1.686 1.077c.902-1.414 1.334-3.06 1.334-4.898h-2zm-1.026 3.83c-.657 1.055-1.619 1.879-2.932 2.462l.812 1.828c1.64-.728 2.928-1.803 3.818-3.233l-1.698-1.057zm-2.938 2.465c-1.324.6-2.89.913-4.721.913v2c2.06 0 3.916-.353 5.545-1.09l-.824-1.823zm-4.721.913a9.797 9.797 0 01-3.688-.719l-.745 1.856c1.429.574 2.909.863 4.433.863v-2zm-3.685-.718c-1.189-.482-2.031-1.08-2.59-1.763l-1.547 1.267c.823 1.005 1.973 1.777 3.386 2.35l.751-1.854zm-2.55-.55l2.48-3.48-1.63-1.16-2.478 3.48 1.629 1.16zm.901-3.414c1.305 1.54 3.044 2.305 5.123 2.305v-2c-1.53 0-2.697-.535-3.596-1.597l-1.526 1.292zm5.123 2.305c1.474 0 2.76-.38 3.67-1.313.904-.928 1.267-2.234 1.267-3.73h-2c0 1.2-.292 1.916-.7 2.335-.404.414-1.085.708-2.237.708v2zm4.938-5.043v-.597h-2v.597h2zM77.195 30.8c-.942 1.039-2.106 1.553-3.566 1.553v2c2.009 0 3.716-.74 5.047-2.21L77.195 30.8zm-3.566 1.553c-2.025 0-3.612-.754-4.847-2.283l-1.556 1.257c1.624 2.01 3.787 3.026 6.403 3.026v-2zm-4.845-2.28c-1.25-1.557-1.925-3.693-1.925-6.511h-2c0 3.134.755 5.756 2.365 7.762l1.56-1.252zm-1.925-6.511v-.211h-2v.21h2zm3.942.158c0 1.67.312 3.117 1.037 4.248l1.684-1.079c-.447-.697-.721-1.723-.721-3.17h-2zm1.04 4.253c.766 1.18 1.898 1.81 3.3 1.81v-2c-.708 0-1.217-.274-1.623-.899l-1.677 1.09zm3.3 1.81c1.52 0 2.803-.527 3.62-1.719l-1.65-1.13c-.356.519-.936.848-1.97.848v2zm3.794-2.284V19.5h-2v7.998h2zm-.166-8.55c-.8-1.21-2.075-1.749-3.593-1.749v2c1.013 0 1.578.329 1.926.853l1.667-1.104zm-3.593-1.749c-1.424 0-2.558.673-3.325 1.891l1.692 1.066c.43-.68.947-.957 1.633-.957v-2zm-3.322 1.886c-.745 1.17-1.053 2.756-1.053 4.634h2c0-1.709.29-2.852.74-3.558l-1.687-1.076zM93.51 33v1h1v-1h-1zm-5.942 0h-1v1h1v-1zm0-19.02v-1h-1v1h1zm5.942 0h1v-1h-1v1zm0 18.02h-5.942v2h5.942v-2zm-4.942 1V13.98h-2V33h2zm-1-18.02h5.942v-2h-5.942v2zm4.942-1V33h2V13.98h-2zm-4.293-4.904c0-.57.19-.984.576-1.325l-1.325-1.498c-.833.737-1.251 1.705-1.251 2.823h2zm.576-1.325c.393-.347.932-.558 1.71-.558v-2c-1.166 0-2.208.329-3.035 1.06l1.325 1.498zm1.71-.558c.78 0 1.32.211 1.711.558l1.326-1.498c-.827-.731-1.87-1.06-3.036-1.06v2zm1.711.558c.386.341.577.756.577 1.325h2c0-1.118-.419-2.086-1.251-2.823l-1.326 1.498zm.577 1.325c0 .57-.19.984-.577 1.325L93.54 11.9c.832-.736 1.251-1.705 1.251-2.823h-2zm-.577 1.325c-.392.347-.931.558-1.71.558v2c1.166 0 2.209-.328 3.035-1.06l-1.325-1.498zm-1.71.558c-.779 0-1.318-.21-1.71-.558L87.467 11.9c.827.732 1.87 1.06 3.036 1.06v-2zm-1.71-.558c-.386-.341-.577-.755-.577-1.325h-2c0 1.118.418 2.087 1.251 2.823l1.325-1.498zm13.821 3.58l.997-.087-.08-.914h-.917v1zm.194 2.232l-.997.086.224 2.578 1.568-2.058-.795-.606zm9.861-.809l-.773.635.004.005.769-.64zm1.529 5.344h1v-.015l-1 .015zm0 12.252v1h1v-1h-1zm-5.941 0h-1v1h1v-1zm-.58-14.115l-.764.646.009.01.755-.656zm-4.694.685l-.851-.524-.149.241v.283h1zm0 13.43v1h1v-1h-1zm-5.923 0h-1v1h1v-1zm0-19.02v-1h-1v1h1zm4.558.087l.193 2.232 1.993-.172-.193-2.233-1.993.173zm1.985 2.752c1.109-1.456 2.616-2.19 4.636-2.19v-2c-2.597 0-4.711.989-6.227 2.978l1.591 1.212zm4.636-2.19c1.776 0 2.927.522 3.657 1.41l1.546-1.27c-1.216-1.479-3.018-2.14-5.203-2.14v2zm3.661 1.415c.777.934 1.265 2.45 1.298 4.719l2-.03c-.037-2.489-.569-4.536-1.76-5.968l-1.538 1.279zm1.298 4.704V33h2V20.748h-2zm1 11.252h-5.941v2h5.941v-2zm-4.941 1V20.994h-2V33h2zm0-12.006c0-1.06-.207-2.053-.825-2.765l-1.51 1.312c.155.179.335.591.335 1.453h2zm-.817-2.755c-.676-.799-1.758-1.04-2.873-1.04v2c.925 0 1.249.216 1.346.332l1.527-1.292zm-2.873-1.04c-1.473 0-2.674.61-3.435 1.847l1.703 1.048c.363-.59.886-.895 1.732-.895v-2zm-3.584 2.371V33h2V19.57h-2zm1 12.43h-5.923v2h5.923v-2zm-4.923 1V13.98h-2V33h2zm-1-18.02h5.554v-2h-5.554v2z" fill="#E5E5E5"/></svg>