<svg width="85" height="52" viewBox="0 0 85 52" fill="none" xmlns="http://www.w3.org/2000/svg"><path d="M0 4a4 4 0 014-4h80a4 4 0 014 4v44a4 4 0 01-4 4H4a4 4 0 01-4-4V4z" fill="#C80E0E"/><path d="M27.427 19.11c0-.25-.09-.446-.269-.586-.176-.14-.486-.284-.932-.434a8.976 8.976 0 01-1.094-.435c-.921-.452-1.382-1.074-1.382-1.865 0-.394.114-.74.342-1.04.23-.303.556-.537.976-.703.42-.17.892-.254 1.416-.254.511 0 .969.091 1.372.273.407.183.723.443.948.782.224.335.337.72.337 1.152h-1.71c0-.29-.089-.514-.268-.674-.176-.16-.415-.24-.718-.24-.306 0-.548.07-.727.206a.617.617 0 00-.264.513c0 .182.098.348.293.498.195.146.539.3 1.03.459a6.22 6.22 0 011.211.508c.768.442 1.153 1.053 1.153 1.83 0 .622-.235 1.11-.703 1.465-.47.355-1.112.533-1.93.533a3.87 3.87 0 01-1.567-.308c-.465-.208-.817-.491-1.054-.85a2.236 2.236 0 01-.352-1.245h1.719c0 .381.098.663.293.845.198.18.52.269.962.269.283 0 .506-.06.669-.181a.608.608 0 00.249-.518zm9.424-3.896h-2.134V21h-1.714v-5.786h-2.095V13.89h5.943v1.323zm7.86 2.378c0 .693-.128 1.307-.385 1.84a2.861 2.861 0 01-1.099 1.236c-.471.286-1.01.43-1.616.43-.605 0-1.142-.139-1.611-.415a2.877 2.877 0 01-1.099-1.197c-.26-.517-.397-1.111-.41-1.782v-.4c0-.697.127-1.31.381-1.841a2.861 2.861 0 011.099-1.236 3.086 3.086 0 011.63-.434c.603 0 1.14.143 1.612.43.472.286.838.695 1.099 1.225.263.528.397 1.133.4 1.817v.327zm-1.742-.298c0-.706-.12-1.242-.357-1.607a1.129 1.129 0 00-1.01-.551c-.86 0-1.314.644-1.363 1.933l-.005.523c0 .696.116 1.232.347 1.606.231.375.575.562 1.03.562a1.12 1.12 0 001.001-.552c.235-.368.353-.897.357-1.587v-.327zm9.629 1.299a2.61 2.61 0 01-.4 1.313 2.42 2.42 0 01-1.031.88c-.44.207-.942.312-1.509.312-.934 0-1.67-.305-2.207-.913-.537-.61-.806-1.468-.806-2.579v-.351c0-.697.121-1.305.362-1.826a2.754 2.754 0 011.05-1.211c.455-.287.983-.43 1.582-.43.862 0 1.556.228 2.08.684.524.452.822 1.077.893 1.875h-1.709c-.013-.433-.122-.744-.327-.933-.205-.189-.517-.283-.937-.283-.427 0-.74.16-.938.478-.198.32-.303.829-.312 1.529v.503c0 .758.094 1.3.283 1.626.192.325.52.488.986.488.394 0 .695-.093.904-.278.208-.186.319-.48.332-.884h1.704zm4.477-.24l-.703.772V21h-1.714v-7.11h1.714v3.135l.596-.903 1.533-2.231h2.12l-2.403 3.144L60.62 21H58.59l-1.514-2.646zM20.757 29.892l1.587 4.946 1.582-4.946h2.256V37h-1.72v-1.66l.167-3.399L22.91 37h-1.133l-1.723-5.064.166 3.404V37h-1.714v-7.11h2.25zm11.894 5.78h-2.348L29.893 37H28.06l2.608-7.11h1.611L34.907 37h-1.84l-.416-1.328zm-1.938-1.322h1.528l-.766-2.466-.762 2.466zm8.608.141h-.927V37H36.68v-7.11h2.797c.844 0 1.503.188 1.978.562.475.374.713.903.713 1.587 0 .495-.1.905-.303 1.23-.198.326-.51.59-.937.791l1.484 2.867V37h-1.836l-1.255-2.51zm-.927-1.323h1.084c.325 0 .57-.085.732-.254.166-.172.249-.412.249-.718s-.083-.545-.249-.718c-.166-.175-.41-.263-.733-.263h-1.083v1.953zm8.476 1.186l-.703.772V37h-1.714v-7.11h1.714v3.135l.596-.903 1.533-2.231h2.119l-2.402 3.144L50.415 37h-2.031l-1.514-2.647zm9.639-.366h-2.696v1.695h3.184V37H52.1v-7.11h4.907v1.324h-3.194v1.499h2.696v1.274zm8.115-2.773H62.49V37h-1.714v-5.786h-2.094V29.89h5.942v1.323z" fill="#fff"/></svg>