<svg width="46" height="33" viewBox="0 0 46 33" fill="none" xmlns="http://www.w3.org/2000/svg"><path d="M21.679 22.023c-.58.695-1.4 1.236-2.46 1.622-1.06.38-2.235.57-3.524.57-1.353 0-2.542-.294-3.566-.881-1.017-.594-1.805-1.454-2.363-2.578-.552-1.125-.835-2.446-.849-3.964v-1.064c0-1.56.261-2.91.784-4.05.53-1.145 1.29-2.019 2.277-2.62.996-.61 2.16-.913 3.492-.913 1.854 0 3.305.444 4.35 1.332 1.046.88 1.665 2.166 1.859 3.856h-3.137c-.143-.895-.462-1.55-.956-1.966-.487-.415-1.16-.623-2.02-.623-1.095 0-1.93.412-2.503 1.236-.572.823-.863 2.048-.87 3.673v1c0 1.64.312 2.878.935 3.716.623.838 1.536 1.257 2.74 1.257 1.21 0 2.072-.258 2.588-.774v-2.696h-2.933v-2.374h6.156v6.241zm15.469-5.489c0 1.54-.273 2.89-.817 4.05-.544 1.16-1.325 2.055-2.342 2.686-1.01.63-2.17.945-3.48.945-1.296 0-2.453-.312-3.47-.935-1.017-.623-1.805-1.51-2.363-2.664-.559-1.16-.842-2.492-.849-3.996v-.773c0-1.54.276-2.893.827-4.06.559-1.175 1.343-2.074 2.353-2.697 1.017-.63 2.177-.945 3.48-.945 1.304 0 2.46.315 3.47.945 1.017.623 1.801 1.522 2.353 2.696.558 1.168.837 2.517.837 4.05v.698zm-3.266-.709c0-1.64-.294-2.886-.881-3.738-.587-.852-1.425-1.278-2.514-1.278-1.081 0-1.915.422-2.503 1.267-.587.838-.884 2.07-.891 3.695v.763c0 1.597.293 2.836.88 3.717.588.88 1.433 1.321 2.536 1.321 1.081 0 1.912-.422 2.492-1.267.58-.852.874-2.091.88-3.717v-.763zM7.907 26.148h30.186v1.075H7.907v-1.075z" fill="#E5E5E5"/><a><path fill="none" d="M7.907 3.609h30.186V29.39H7.907z"/></a></svg>